<svg width="341" height="341" viewBox="0 0 341 341" fill="none" xmlns="http://www.w3.org/2000/svg">
<path d="M203.135 170.5C203.135 188.524 188.524 203.135 170.5 203.135C152.476 203.135 137.865 188.524 137.865 170.5C137.865 152.476 152.476 137.865 170.5 137.865C188.524 137.865 203.135 152.476 203.135 170.5Z" fill="white"/>
<path d="M246.821 112.76C245.252 108.509 242.75 104.661 239.498 101.502C236.339 98.2503 232.494 95.7475 228.24 94.1788C224.791 92.8389 219.608 91.2441 210.063 90.8097C199.737 90.3388 196.641 90.2373 170.5 90.2373C144.356 90.2373 141.26 90.3362 130.937 90.8071C121.392 91.2441 116.207 92.8389 112.759 94.1788C108.506 95.7475 104.658 98.2503 101.502 101.502C98.2502 104.661 95.7475 108.506 94.1761 112.76C92.8362 116.209 91.2414 121.394 90.807 130.94C90.3361 141.263 90.2346 144.359 90.2346 170.503C90.2346 196.644 90.3361 199.74 90.807 210.065C91.2414 219.611 92.8362 224.793 94.1761 228.243C95.7475 232.497 98.2476 236.342 101.5 239.5C104.658 242.752 108.503 245.255 112.757 246.824C116.207 248.166 121.392 249.761 130.937 250.196C141.26 250.666 144.354 250.765 170.497 250.765C196.644 250.765 199.74 250.666 210.06 250.196C219.606 249.761 224.791 248.166 228.24 246.824C236.779 243.53 243.527 236.782 246.821 228.243C248.161 224.793 249.756 219.611 250.193 210.065C250.664 199.74 250.763 196.644 250.763 170.503C250.763 144.359 250.664 141.263 250.193 130.94C249.758 121.394 248.164 116.209 246.821 112.76V112.76ZM170.5 220.774C142.733 220.774 120.224 198.267 120.224 170.5C120.224 142.733 142.733 120.226 170.5 120.226C198.264 120.226 220.774 142.733 220.774 170.5C220.774 198.267 198.264 220.774 170.5 220.774ZM222.761 129.988C216.273 129.988 211.012 124.727 211.012 118.239C211.012 111.75 216.273 106.49 222.761 106.49C229.25 106.49 234.51 111.75 234.51 118.239C234.508 124.727 229.25 129.988 222.761 129.988Z" fill="white"/>
<path d="M170.5 0C76.3498 0 0 76.3498 0 170.5C0 264.65 76.3498 341 170.5 341C264.65 341 341 264.65 341 170.5C341 76.3498 264.65 0 170.5 0ZM267.814 210.864C267.34 221.286 265.683 228.402 263.263 234.63C258.177 247.781 247.781 258.177 234.63 263.263C228.404 265.683 221.286 267.338 210.867 267.814C200.426 268.29 197.091 268.404 170.503 268.404C143.911 268.404 140.579 268.29 130.136 267.814C119.716 267.338 112.598 265.683 106.373 263.263C99.8373 260.805 93.9212 256.952 89.0302 251.97C84.0507 247.081 80.1976 241.163 77.7391 234.63C75.3196 228.404 73.6624 221.286 73.1889 210.867C72.7076 200.424 72.5957 197.089 72.5957 170.5C72.5957 143.911 72.7076 140.576 73.1863 130.136C73.6598 119.714 75.3144 112.598 77.7339 106.37C80.1924 99.8373 84.048 93.9186 89.0302 89.0302C93.9186 84.048 99.8373 80.195 106.37 77.7365C112.598 75.317 119.714 73.6624 130.136 73.1863C140.576 72.7102 143.911 72.5957 170.5 72.5957C197.089 72.5957 200.424 72.7102 210.864 73.1889C221.286 73.6624 228.402 75.317 234.63 77.7339C241.163 80.1924 247.081 84.048 251.972 89.0302C256.952 93.9212 260.808 99.8373 263.263 106.37C265.686 112.598 267.34 119.714 267.816 130.136C268.292 140.576 268.404 143.911 268.404 170.5C268.404 197.089 268.292 200.424 267.814 210.864V210.864Z" fill="white"/>
</svg>
