<svg width="341" height="341" viewBox="0 0 341 341" fill="none" xmlns="http://www.w3.org/2000/svg">
<path d="M170.5 341C264.687 341 341 264.687 341 170.5C341 76.313 264.687 0 170.5 0C76.313 0 0 76.313 0 170.5C0 264.687 76.313 341 170.5 341ZM78.018 166.806L242.408 103.422C250.038 100.666 256.702 105.284 254.23 116.821L254.244 116.807L226.253 248.674C224.179 258.023 218.624 260.297 210.852 255.892L168.227 224.477L147.667 244.284C145.394 246.557 143.476 248.475 139.071 248.475L142.098 205.097L221.096 133.729C224.534 130.702 220.329 128.997 215.796 132.01L118.171 193.475L76.0856 180.346C66.9497 177.448 66.7508 171.21 78.018 166.806V166.806Z" fill="white"/>
</svg>
