<svg width="341" height="341" viewBox="0 0 341 341" fill="none" xmlns="http://www.w3.org/2000/svg">
<path d="M170.5 0C76.3386 0 0 76.3352 0 170.5C0 264.665 76.3386 341 170.5 341C264.661 341 341 264.665 341 170.5C341 76.3352 264.661 0 170.5 0ZM256.987 188.94C264.933 196.702 273.341 204.007 280.475 212.571C283.635 216.36 286.614 220.277 288.882 224.683C292.119 230.966 289.196 237.856 283.572 238.229L248.642 238.222C239.621 238.969 232.442 235.33 226.389 229.162C221.558 224.247 217.075 218.997 212.421 213.914C210.52 211.828 208.518 209.864 206.131 208.319C201.37 205.221 197.232 206.17 194.504 211.144C191.724 216.206 191.089 221.816 190.824 227.45C190.444 235.686 187.96 237.838 179.696 238.226C162.037 239.052 145.282 236.373 129.709 227.471C115.971 219.618 105.338 208.535 96.073 195.987C78.0306 171.526 64.2127 144.678 51.7971 117.06C49.0028 110.84 51.0471 107.512 57.909 107.383C69.3093 107.163 80.7097 107.191 92.1101 107.372C96.7498 107.446 99.8197 110.1 101.602 114.478C107.763 129.636 115.316 144.057 124.78 157.432C127.302 160.994 129.877 164.545 133.543 167.06C137.59 169.837 140.673 168.92 142.582 164.402C143.803 161.531 144.329 158.461 144.594 155.384C145.501 144.846 145.61 134.31 144.04 123.814C143.063 117.245 139.369 113.003 132.821 111.761C129.486 111.129 129.974 109.894 131.596 107.99C134.412 104.697 137.049 102.659 142.32 102.659L181.785 102.652C188.005 103.873 189.401 106.664 190.245 112.929L190.28 156.787C190.206 159.211 191.497 166.398 195.851 167.985C199.339 169.136 201.642 166.338 203.728 164.13C213.192 154.087 219.935 142.233 225.974 129.964C228.639 124.553 230.938 118.954 233.171 113.345C234.831 109.197 237.413 107.156 242.094 107.226L280.098 107.271C281.218 107.271 282.355 107.282 283.464 107.473C289.869 108.569 291.624 111.325 289.642 117.573C286.524 127.389 280.464 135.566 274.541 143.764C268.192 152.541 261.421 161.011 255.134 169.827C249.357 177.885 249.814 181.942 256.987 188.94Z" fill="white"/>
</svg>
