<svg xmlns="http://www.w3.org/2000/svg" xmlns:xlink="http://www.w3.org/1999/xlink" viewBox="0 0 236.62 116.41"><defs><style>.cls-1{isolation:isolate;}.cls-2{fill:#bccedd;}.cls-11,.cls-12,.cls-17,.cls-26,.cls-3,.cls-31,.cls-32,.cls-35,.cls-41,.cls-52{mix-blend-mode:multiply;}.cls-3{fill:url(#Безымянный_градиент_9);}.cls-4{fill:#87ccd8;}.cls-5{fill:#256;}.cls-11,.cls-6{fill:#b6e7f2;}.cls-7{fill:#2c3e50;}.cls-34,.cls-8,.cls-9{fill:#bcbec0;}.cls-23,.cls-40,.cls-46,.cls-49,.cls-51,.cls-8,.cls-9{mix-blend-mode:overlay;}.cls-9{opacity:0.63;}.cls-10{fill:#2e6b7c;}.cls-12{fill:url(#Безымянный_градиент_9-2);}.cls-13{fill:#939598;}.cls-14{fill:#7ebfce;}.cls-15{fill:#ce1b31;}.cls-16{fill:#a3dce5;}.cls-17{fill:url(#Безымянный_градиент_9-3);}.cls-18{fill:#f57c00;}.cls-19{fill:#ffcc80;}.cls-20{fill:#546e7a;}.cls-21,.cls-40,.cls-46,.cls-51{fill:#b0bec5;}.cls-22{fill:#d82341;}.cls-23{fill:#d1cebd;}.cls-24{fill:#cfd8dc;}.cls-25{fill:#af0e29;}.cls-26{fill:url(#Безымянный_градиент_9-4);}.cls-27{fill:#34495e;}.cls-28{fill:#17c5cc;}.cls-29{fill:#15404c;}.cls-30{fill:#48647c;}.cls-31{fill:url(#Безымянный_градиент_9-5);}.cls-32{fill:url(#Безымянный_градиент_9-6);}.cls-33{fill:#f94e63;}.cls-35{fill:url(#Безымянный_градиент_9-7);}.cls-36{fill:#81d4fa;}.cls-37{fill:#b3e5fc;}.cls-38{fill:#90a4ae;}.cls-39{fill:#d13f4a;}.cls-41{fill:url(#Безымянный_градиент_9-8);}.cls-42{fill:#fff;}.cls-43{fill:#7f8c8d;}.cls-44{fill:#14b0bf;}.cls-45{fill:#455a64;}.cls-46{opacity:0.66;}.cls-47{fill:#78909c;}.cls-48{fill:#e0e0e0;}.cls-49{fill:#bdbdbd;opacity:0.46;}.cls-50{fill:#b20f2a;}.cls-51{opacity:0.43;}.cls-52{opacity:0.72;fill:url(#Безымянный_градиент_9-9);}</style><radialGradient id="Безымянный_градиент_9" cx="13.28" cy="-169.48" r="21" gradientTransform="translate(12.46 78.38) scale(0.71 0.11)" gradientUnits="userSpaceOnUse"><stop offset="0" stop-color="#9eadb8"/><stop offset="1" stop-color="#fff"/></radialGradient><radialGradient id="Безымянный_градиент_9-2" cx="32.51" cy="252.93" r="21.24" gradientTransform="translate(20.72 78.38) scale(0.86 0.11)" xlink:href="#Безымянный_градиент_9"/><radialGradient id="Безымянный_градиент_9-3" cx="124.44" cy="-392.29" r="17.72" gradientTransform="translate(-36.76 111.54) scale(1.43 0.16)" xlink:href="#Безымянный_градиент_9"/><radialGradient id="Безымянный_градиент_9-4" cx="96.75" cy="-531.27" r="21.25" gradientTransform="translate(-37.51 108.9) scale(1.16 0.14)" xlink:href="#Безымянный_градиент_9"/><radialGradient id="Безымянный_градиент_9-5" cx="92.06" cy="291.12" r="21.25" gradientTransform="translate(-12.44 55.84) scale(1.15 0.17)" xlink:href="#Безымянный_градиент_9"/><radialGradient id="Безымянный_градиент_9-6" cx="151.72" cy="208.02" r="21.24" gradientTransform="translate(40.27 85.56) scale(0.63 0.09)" xlink:href="#Безымянный_градиент_9"/><radialGradient id="Безымянный_градиент_9-7" cx="198.33" cy="-301.73" r="21.17" gradientTransform="translate(25.45 83.58) scale(0.79 0.08)" xlink:href="#Безымянный_градиент_9"/><radialGradient id="Безымянный_градиент_9-8" cx="215.74" cy="234.87" r="21.25" gradientTransform="translate(32.12 79.32) scale(0.85 0.1)" xlink:href="#Безымянный_градиент_9"/><radialGradient id="Безымянный_градиент_9-9" cx="130.27" cy="443.92" r="20.67" gradientTransform="translate(84.24 77.68) scale(0.64 0.08)" xlink:href="#Безымянный_градиент_9"/></defs><title>Ресурс 2</title><g class="cls-1"><g id="Слой_2" data-name="Слой 2"><g id="_1" data-name="1"><g id="_2" data-name="2"><g id="_2-2" data-name="2"><g id="_1-2" data-name="1"><path class="cls-2" d="M96.64,116.41c-.56,0-1.12,0-1.68,0a.49.49,0,0,1-.45-.5.47.47,0,0,1,.5-.44c.93,0,1.85.06,2.77,0a.47.47,0,0,1,0,.94C97.43,116.41,97,116.41,96.64,116.41Zm4-.25a.46.46,0,0,1-.46-.41.47.47,0,0,1,.41-.53c.91-.11,1.83-.25,2.75-.43a.47.47,0,0,1,.55.37.47.47,0,0,1-.37.55c-.94.18-1.89.33-2.82.45Zm-8.43-.07h-.07c-.94-.13-1.89-.31-2.81-.53A.47.47,0,0,1,89,115a.47.47,0,0,1,.56-.35c.9.21,1.82.39,2.73.52a.47.47,0,0,1-.06.93Zm14-1a.47.47,0,0,1-.12-.93c.88-.23,1.78-.49,2.68-.79a.47.47,0,0,1,.59.31.48.48,0,0,1-.3.59c-.92.3-1.84.57-2.73.8Zm-19.46-.3a.39.39,0,0,1-.15,0c-.91-.3-1.81-.65-2.67-1a.47.47,0,1,1,.38-.86c.83.37,1.7.7,2.59,1a.47.47,0,0,1-.15.91Zm24.82-1.44a.47.47,0,0,1-.17-.91c.85-.33,1.72-.68,2.59-1.07a.48.48,0,0,1,.62.25.47.47,0,0,1-.24.61c-.89.39-1.77.76-2.63,1.09Zm-30-.83a.39.39,0,0,1-.23-.07,24.85,24.85,0,0,1-2.42-1.54.47.47,0,1,1,.55-.77,25.07,25.07,0,0,0,2.33,1.5.47.47,0,0,1,.18.64A.49.49,0,0,1,81.54,112.53Zm35.14-1.43a.47.47,0,0,1-.21-.89l1.25-.62c.4-.21.81-.44,1.22-.68a.47.47,0,0,1,.64.17.46.46,0,0,1-.17.64c-.42.25-.84.49-1.27.7s-.83.43-1.26.63A.46.46,0,0,1,116.68,111.1Zm43.35-.6h-.59A.48.48,0,0,1,159,110a.49.49,0,0,1,.48-.46H160c.74,0,1.47,0,2.21,0a.48.48,0,0,1,.49.45.47.47,0,0,1-.45.49C161.53,110.48,160.78,110.5,160,110.5Zm-3.41-.11h0c-.94-.06-1.89-.14-2.84-.24a.47.47,0,0,1,.1-.93c.93.1,1.87.17,2.79.23a.47.47,0,0,1,.44.5A.46.46,0,0,1,156.62,110.39Zm8.45-.15a.47.47,0,0,1,0-.93c.93-.1,1.86-.22,2.76-.37a.47.47,0,1,1,.15.92c-.91.16-1.86.28-2.82.38Zm-14-.44H151c-.94-.14-1.87-.29-2.8-.47a.47.47,0,1,1,.17-.92c.92.17,1.84.32,2.77.46a.47.47,0,0,1,.39.54A.46.46,0,0,1,151,109.8Zm19.61-.49a.48.48,0,0,1-.46-.36.47.47,0,0,1,.35-.56c.92-.22,1.82-.47,2.69-.74a.47.47,0,0,1,.28.9c-.89.28-1.82.53-2.75.75ZM77,109.23a.49.49,0,0,1-.32-.12,22.81,22.81,0,0,1-2-2.07.47.47,0,1,1,.71-.61,22.45,22.45,0,0,0,1.92,2,.47.47,0,0,1,0,.66A.49.49,0,0,1,77,109.23Zm68.5-.47h-.1q-1.38-.3-2.76-.66a.47.47,0,0,1-.34-.57.48.48,0,0,1,.58-.34c.9.23,1.81.45,2.72.65a.47.47,0,0,1-.1.93Zm-23.61-.59-.3-.36-.26-.39c.83-.54,1.61-1.06,2.4-1.53a.47.47,0,0,1,.48.81C123.4,107.16,122.63,107.67,121.86,108.17Zm54.15-.55a.48.48,0,0,1-.44-.29.46.46,0,0,1,.26-.61c.85-.35,1.7-.74,2.53-1.17a.48.48,0,0,1,.63.21.47.47,0,0,1-.2.63c-.85.44-1.73.84-2.6,1.2A.57.57,0,0,1,176,107.62Zm-36-.25a.27.27,0,0,1-.13,0c-.91-.25-1.82-.52-2.72-.81a.47.47,0,1,1,.28-.89c.9.28,1.79.54,2.7.8a.47.47,0,0,1-.13.92Zm-113.53-.43a11.66,11.66,0,0,1-1.18-.06.47.47,0,0,1,.11-.94,9.17,9.17,0,0,0,2.67-.08.48.48,0,0,1,.55.38.48.48,0,0,1-.38.55A10.31,10.31,0,0,1,26.48,106.94Zm-3.84-.8a.46.46,0,0,1-.19,0A8,8,0,0,1,20,104.42a.47.47,0,1,1,.67-.66,6.73,6.73,0,0,0,2.17,1.48.47.47,0,0,1,.23.62A.46.46,0,0,1,22.64,106.14Zm8.21-.2a.47.47,0,0,1-.43-.27.48.48,0,0,1,.23-.63A14.37,14.37,0,0,0,33,103.69a.48.48,0,0,1,.65.12.47.47,0,0,1-.12.66A15.35,15.35,0,0,1,31,105.9.43.43,0,0,1,30.85,105.94Zm103.77-.25-.15,0-.35-.12c-.87-.3-1.62-.56-2.3-.73a.47.47,0,0,1-.34-.57.47.47,0,0,1,.57-.34c.72.18,1.48.44,2.37.75l.35.12a.47.47,0,0,1-.15.91Zm-8.18-.21a.47.47,0,0,1-.17-.9l.25-.11a12,12,0,0,1,2.55-.72.47.47,0,1,1,.14.92,11.2,11.2,0,0,0-2.34.68l-.25.1A.57.57,0,0,1,126.44,105.48Zm54.58-.43a.49.49,0,0,1-.4-.22.48.48,0,0,1,.15-.65c.78-.49,1.55-1,2.29-1.58a.48.48,0,0,1,.66.1.47.47,0,0,1-.09.66c-.77.57-1.56,1.12-2.36,1.62A.55.55,0,0,1,181,105.05Zm-107.68-.11a.47.47,0,0,1-.39-.22,19.45,19.45,0,0,1-1.37-2.54.47.47,0,0,1,.23-.62.46.46,0,0,1,.62.24,20,20,0,0,0,1.31,2.41.48.48,0,0,1-.14.65A.5.5,0,0,1,73.34,104.94ZM35.5,102.8a.48.48,0,0,1-.35-.16.46.46,0,0,1,0-.66c.62-.57,1.24-1.18,1.9-1.89a.51.51,0,0,1,.7-.06.44.44,0,0,1,.06.63l-.07.07c-.68.73-1.32,1.36-2,1.94A.46.46,0,0,1,35.5,102.8Zm-16.64-.62a.47.47,0,0,1-.44-.32A7.38,7.38,0,0,1,18,99.45c0-.19,0-.37,0-.55a.46.46,0,0,1,.5-.44A.47.47,0,0,1,19,99c0,.16,0,.32,0,.49a6.66,6.66,0,0,0,.34,2.11.47.47,0,0,1-.29.59A.45.45,0,0,1,18.86,102.18Zm166.67-.51a.48.48,0,0,1-.35-.16.46.46,0,0,1,0-.66c.69-.62,1.36-1.27,2-1.94a.47.47,0,0,1,.66,0,.48.48,0,0,1,0,.67c-.65.68-1.34,1.35-2.06,2A.47.47,0,0,1,185.53,101.67ZM71,99.81a.47.47,0,0,1-.46-.34,21.71,21.71,0,0,1-.6-2.82.49.49,0,0,1,.4-.53.47.47,0,0,1,.53.4,21.4,21.4,0,0,0,.58,2.69.47.47,0,0,1-.32.58A.32.32,0,0,1,71,99.81ZM39.35,98.68a.49.49,0,0,1-.3-.1.49.49,0,0,1-.07-.67c.59-.71,1.16-1.46,1.69-2.22a.47.47,0,1,1,.77.55c-.55.77-1.13,1.53-1.72,2.27A.5.5,0,0,1,39.35,98.68Zm150.05-1.1a.48.48,0,0,1-.29-.11.46.46,0,0,1-.07-.66c.58-.73,1.12-1.49,1.62-2.25a.47.47,0,0,1,.78.52c-.5.78-1.07,1.56-1.67,2.32A.49.49,0,0,1,189.4,97.58ZM19.15,96.66a.57.57,0,0,1-.18,0,.47.47,0,0,1-.26-.61,10.57,10.57,0,0,1,.67-1.4,11.52,11.52,0,0,1,.76-1.16.47.47,0,0,1,.76.55c-.26.36-.5.72-.71,1.08a9.88,9.88,0,0,0-.61,1.27A.47.47,0,0,1,19.15,96.66Zm51.08-2.41a.48.48,0,0,1-.47-.47v-.32a24.66,24.66,0,0,1,.14-2.55.46.46,0,0,1,.51-.42.47.47,0,0,1,.42.52,22.79,22.79,0,0,0-.13,2.46v.3a.47.47,0,0,1-.46.48Zm-27.62-.17a.47.47,0,0,1-.25-.07.46.46,0,0,1-.15-.64c.48-.79.95-1.6,1.39-2.42a.47.47,0,1,1,.83.44c-.45.84-.92,1.67-1.42,2.47A.47.47,0,0,1,42.61,94.08Zm149.86-1.22a.39.39,0,0,1-.21-.06.46.46,0,0,1-.2-.63c.39-.75.74-1.53,1.05-2.3a.55.55,0,0,1-.06-.26.46.46,0,0,1,.5-.44,25.41,25.41,0,0,0,2.76,0,.47.47,0,0,1,.06.94,20.49,20.49,0,0,1-2.35,0c-.33.83-.71,1.66-1.13,2.47A.48.48,0,0,1,192.47,92.86ZM22.4,92.11a.45.45,0,0,1-.34-.15.47.47,0,0,1,0-.67,26.62,26.62,0,0,1,2.2-1.84.47.47,0,1,1,.57.75A25,25,0,0,0,22.72,92,.48.48,0,0,1,22.4,92.11ZM199.14,89.8a.47.47,0,0,1-.08-.93,25.21,25.21,0,0,0,2.71-.6.47.47,0,1,1,.25.91,27.44,27.44,0,0,1-2.8.61Zm-8.42,0h-.08c-.66-.12-1.31-.26-2-.44q-.42-.1-.84-.24a.47.47,0,0,1-.3-.59.48.48,0,0,1,.59-.31c.26.09.53.16.79.24.62.16,1.26.3,1.89.42a.47.47,0,0,1,.38.54A.48.48,0,0,1,190.72,89.78ZM45.26,89.11a.43.43,0,0,1-.19,0,.47.47,0,0,1-.23-.63c.38-.84.75-1.7,1.08-2.57a.47.47,0,1,1,.88.34c-.34.88-.72,1.77-1.11,2.62A.47.47,0,0,1,45.26,89.11Zm-18.4-.44a.48.48,0,0,1-.39-.21.48.48,0,0,1,.13-.65c.78-.52,1.59-1,2.41-1.53a.46.46,0,0,1,.64.17.47.47,0,0,1-.16.64c-.8.48-1.6,1-2.36,1.5A.53.53,0,0,1,26.86,88.67Zm44,0h-.1a.47.47,0,0,1-.36-.56,28.53,28.53,0,0,1,.76-2.77v0c-.56-.12-1.14-.27-1.74-.43a.47.47,0,0,1-.33-.58.46.46,0,0,1,.57-.33c1,.26,1.85.47,2.71.63a.46.46,0,0,1,.38.54.48.48,0,0,1-.55.38l-.13,0a.35.35,0,0,1,0,.14,25.79,25.79,0,0,0-.73,2.67A.48.48,0,0,1,70.82,88.65Zm133.75-.34a.47.47,0,0,1-.17-.91,27.3,27.3,0,0,0,2.54-1.13.48.48,0,0,1,.63.21.47.47,0,0,1-.21.63,27.88,27.88,0,0,1-2.62,1.17A.47.47,0,0,1,204.57,88.31Zm-19.21-.22a.35.35,0,0,1-.2,0,18.59,18.59,0,0,1-2.52-1.41.47.47,0,0,1,.52-.78,18.53,18.53,0,0,0,2.4,1.34.48.48,0,0,1,.22.63A.47.47,0,0,1,185.36,88.09Zm9.15-.47-.12,0a.47.47,0,0,1-.33-.58,23,23,0,0,0,.54-2.7.48.48,0,0,1,.53-.4.46.46,0,0,1,.4.53,26,26,0,0,1-.56,2.82A.48.48,0,0,1,194.51,87.62ZM80.71,86.16l0-.94c1,0,1.89,0,2.8-.07a.44.44,0,0,1,.49.45.47.47,0,0,1-.45.49C82.6,86.14,81.66,86.16,80.71,86.16Zm-2.85-.07h0C76.9,86,76,86,75,85.88a.46.46,0,0,1-.42-.51.48.48,0,0,1,.51-.43c.93.1,1.87.17,2.79.21a.48.48,0,0,1,.45.49A.47.47,0,0,1,77.86,86.09Zm8.45-.2a.48.48,0,0,1-.47-.43.48.48,0,0,1,.43-.51c.92-.09,1.85-.2,2.77-.34a.47.47,0,0,1,.14.93c-.94.14-1.89.26-2.82.35Zm123.29-.12a.46.46,0,0,1-.25-.86c.78-.5,1.55-1,2.27-1.6a.47.47,0,0,1,.58.74c-.75.58-1.54,1.14-2.35,1.65A.45.45,0,0,1,209.6,85.77Zm-177.9,0a.47.47,0,0,1-.22-.88c.84-.45,1.69-.88,2.54-1.28a.47.47,0,0,1,.4.85c-.83.39-1.67.82-2.5,1.26A.42.42,0,0,1,31.7,85.76Zm60.19-.7a.46.46,0,0,1-.46-.37.47.47,0,0,1,.37-.56c.91-.18,1.83-.39,2.73-.61a.48.48,0,0,1,.57.34.47.47,0,0,1-.34.57c-.91.23-1.85.44-2.78.62ZM180.7,85a.46.46,0,0,1-.33-.13,13.93,13.93,0,0,1-1.89-2.21.46.46,0,0,1,.12-.65.47.47,0,0,1,.65.12A13.07,13.07,0,0,0,181,84.14a.47.47,0,0,1,0,.67A.51.51,0,0,1,180.7,85Zm-113.89-.9a.39.39,0,0,1-.15,0L64,83.11a.47.47,0,0,1-.29-.6.48.48,0,0,1,.6-.29l2.66.92a.47.47,0,0,1-.15.91Zm-19.52-.2-.14,0a.47.47,0,0,1-.31-.59c.28-.89.54-1.79.77-2.69a.51.51,0,0,1,.09-.18.47.47,0,0,1-.11-.94c1-.12,1.93-.19,2.85-.22a.48.48,0,0,1,.49.46.47.47,0,0,1-.46.48c-.69,0-1.4.07-2.12.14a.48.48,0,0,1,.17.49c-.23.92-.49,1.84-.78,2.74A.47.47,0,0,1,47.29,83.85Zm50.07-.16a.47.47,0,0,1-.45-.34.46.46,0,0,1,.31-.58c.89-.28,1.78-.58,2.65-.89a.47.47,0,1,1,.32.88c-.88.32-1.79.63-2.69.9ZM36.8,83.35a.47.47,0,0,1-.18-.9c.88-.37,1.78-.71,2.66-1a.48.48,0,0,1,.6.29.46.46,0,0,1-.29.6c-.87.3-1.74.64-2.61,1A.57.57,0,0,1,36.8,83.35Zm35.79,0a.45.45,0,0,1-.19,0,.47.47,0,0,1-.24-.62c.4-.87.83-1.73,1.31-2.55a.47.47,0,0,1,.81.47c-.46.8-.88,1.63-1.26,2.47A.48.48,0,0,1,72.59,83.31Zm141.45-1a.47.47,0,0,1-.32-.81,27.59,27.59,0,0,0,1.9-2,.47.47,0,1,1,.72.61c-.62.72-1.28,1.42-2,2.08A.51.51,0,0,1,214,82.31ZM61.48,82.2a.39.39,0,0,1-.15,0c-.89-.3-1.78-.6-2.67-.86a.47.47,0,0,1-.32-.58.48.48,0,0,1,.59-.32q1.35.4,2.7.87a.47.47,0,0,1-.15.91ZM195.27,82h0a.48.48,0,0,1-.47-.48v-.17a18.48,18.48,0,0,0-.16-2.57.48.48,0,0,1,.41-.53.47.47,0,0,1,.53.41,22.18,22.18,0,0,1,.16,2.69v.19A.46.46,0,0,1,195.27,82Zm-92.62-.29a.47.47,0,0,1-.43-.28.47.47,0,0,1,.25-.62l.84-.37c.57-.25,1.13-.53,1.67-.82a.48.48,0,0,1,.64.19.48.48,0,0,1-.19.64c-.56.3-1.15.59-1.73.85l-.86.37A.41.41,0,0,1,102.65,81.75ZM42.13,81.5a.47.47,0,0,1-.13-.92c.92-.26,1.86-.49,2.77-.68a.47.47,0,0,1,.55.37.45.45,0,0,1-.36.55c-.89.19-1.8.41-2.71.67Zm13.93-.85H56a24.4,24.4,0,0,0-2.74-.42.46.46,0,0,1-.42-.51.47.47,0,0,1,.51-.43,26.27,26.27,0,0,1,2.84.44.47.47,0,0,1-.1.93Zm121.49-.32a.46.46,0,0,1-.44-.3c-.06-.15-.12-.31-.17-.46a10.08,10.08,0,0,1-.47-2.42.46.46,0,0,1,.43-.5.48.48,0,0,1,.5.44,9.16,9.16,0,0,0,.43,2.18c0,.14.1.28.16.42a.47.47,0,0,1-.27.61Zm-70-1.27a.47.47,0,0,1-.27-.85,19.91,19.91,0,0,0,2.14-1.73.47.47,0,1,1,.65.68A21,21,0,0,1,107.87,79,.43.43,0,0,1,107.6,79.06Zm-32.2-.64a.44.44,0,0,1-.27-.09.45.45,0,0,1-.11-.65c.54-.76,1.13-1.52,1.75-2.26a.47.47,0,0,1,.72.61c-.61.71-1.18,1.45-1.71,2.19A.46.46,0,0,1,75.4,78.42Zm-26.73,0h-.08a.46.46,0,0,1-.38-.55c.17-.91.32-1.84.44-2.75a.47.47,0,1,1,.93.12c-.12.93-.27,1.88-.45,2.81A.46.46,0,0,1,48.67,78.38Zm169-.36a.43.43,0,0,1-.27-.08.47.47,0,0,1-.12-.65,26.15,26.15,0,0,0,1.43-2.37.47.47,0,0,1,.83.45,25,25,0,0,1-1.49,2.45A.46.46,0,0,1,217.7,78Zm-23.18-1.55a.46.46,0,0,1-.45-.33,15.78,15.78,0,0,0-1-2.52.47.47,0,0,1,.83-.44A16.5,16.5,0,0,1,195,75.86a.47.47,0,0,1-.31.59A.34.34,0,0,1,194.52,76.47Zm-82.86-1.29a.46.46,0,0,1-.27-.09.47.47,0,0,1-.11-.65,9.56,9.56,0,0,0,1.27-2.36.47.47,0,0,1,.89.32A11,11,0,0,1,112,75,.45.45,0,0,1,111.66,75.18Zm65.47-.4H177a.46.46,0,0,1-.36-.55,11,11,0,0,1,1-2.78.47.47,0,0,1,.64-.2.46.46,0,0,1,.2.63,9.92,9.92,0,0,0-.88,2.54A.47.47,0,0,1,177.13,74.78ZM79,74.12a.47.47,0,0,1-.33-.8c.65-.65,1.35-1.31,2.08-1.95a.47.47,0,0,1,.62.71c-.72.62-1.4,1.26-2,1.9A.43.43,0,0,1,79,74.12Zm141.31-1.06a.39.39,0,0,1-.18,0,.46.46,0,0,1-.26-.61,26.9,26.9,0,0,0,.9-2.62.47.47,0,1,1,.9.26,26.18,26.18,0,0,1-.93,2.71A.46.46,0,0,1,220.35,73.06Zm-171-.27h0a.47.47,0,0,1-.44-.5c.06-.93.09-1.87.1-2.79a.47.47,0,0,1,.47-.47h0a.48.48,0,0,1,.47.48c0,.94,0,1.89-.1,2.84A.48.48,0,0,1,49.39,72.79ZM191.9,71.51a.47.47,0,0,1-.37-.18,11.5,11.5,0,0,0-1.91-1.91.47.47,0,0,1-.08-.66.47.47,0,0,1,.66-.08,12.28,12.28,0,0,1,2.07,2.07.47.47,0,0,1-.08.66A.45.45,0,0,1,191.9,71.51ZM83.29,70.42a.46.46,0,0,1-.37-.18.46.46,0,0,1,.09-.66c.73-.56,1.51-1.12,2.31-1.66a.48.48,0,1,1,.53.79c-.79.52-1.55,1.07-2.28,1.62A.47.47,0,0,1,83.29,70.42ZM113.47,70a.48.48,0,0,1-.47-.46,7.48,7.48,0,0,0-.18-1.48,7,7,0,0,0-.36-1.09.47.47,0,1,1,.87-.37,7.79,7.79,0,0,1,.4,1.24,8,8,0,0,1,.21,1.68.48.48,0,0,1-.46.48Zm66.21-.11a.51.51,0,0,1-.33-.13.48.48,0,0,1,0-.67,8.06,8.06,0,0,1,2.44-1.71.48.48,0,0,1,.62.24.46.46,0,0,1-.24.62A7.12,7.12,0,0,0,180,69.7.48.48,0,0,1,179.68,69.84ZM22,68.34h0c-.41,0-.82,0-1.22-.07A16.38,16.38,0,0,1,19.12,68a.47.47,0,0,1-.36-.55.46.46,0,0,1,.55-.37c.52.1,1,.18,1.56.23s.77,0,1.16.06a.48.48,0,0,1,.46.49A.47.47,0,0,1,22,68.34Zm2.81-.1a.47.47,0,0,1-.46-.42.47.47,0,0,1,.42-.52,21.42,21.42,0,0,0,2.72-.45.46.46,0,0,1,.56.36.47.47,0,0,1-.35.56,25.47,25.47,0,0,1-2.84.47Zm162.65-.12a.47.47,0,0,1-.17,0,7,7,0,0,0-2.46-.45.53.53,0,0,1-.54-.47c0-.26.14-.47.4-.47h.08a8,8,0,0,1,2.85.51.47.47,0,0,1,.27.61A.46.46,0,0,1,187.48,68.12Zm34.43-.47h-.09a.48.48,0,0,1-.38-.55,27.17,27.17,0,0,0,.37-2.75.48.48,0,0,1,.51-.42.47.47,0,0,1,.43.5c-.08,1-.21,1.92-.38,2.84A.47.47,0,0,1,221.91,67.65ZM88,67.28a.47.47,0,0,1-.24-.87c.8-.48,1.63-1,2.48-1.4a.47.47,0,1,1,.44.83c-.84.45-1.66.91-2.44,1.37A.42.42,0,0,1,88,67.28Zm-71.45,0a.39.39,0,0,1-.18,0,14.23,14.23,0,0,1-2.57-1.35.47.47,0,0,1,.52-.79,13.11,13.11,0,0,0,2.41,1.27.48.48,0,0,1,.26.62A.48.48,0,0,1,16.52,67.23Zm32.89-.08a.47.47,0,0,1-.47-.44c0-.39,0-.78-.08-1.17s-.12-1.05-.21-1.57a.47.47,0,0,1,.37-.55.48.48,0,0,1,.55.38c.1.54.18,1.1.23,1.66,0,.4.06.8.08,1.2a.46.46,0,0,1-.44.49ZM30.32,67a.47.47,0,0,1-.15-.91,26.68,26.68,0,0,0,2.57-1,.47.47,0,0,1,.4.86c-.88.4-1.77.77-2.66,1.08Zm81-2.13a.48.48,0,0,1-.34-.14,9.15,9.15,0,0,0-2.12-1.64.47.47,0,0,1,.47-.82,10.52,10.52,0,0,1,2.33,1.81.46.46,0,0,1,0,.66A.45.45,0,0,1,111.34,64.87Zm-75.9-.24a.47.47,0,0,1-.24-.87c.79-.46,1.57-1,2.34-1.51a.48.48,0,0,1,.65.12.47.47,0,0,1-.11.65c-.79.56-1.6,1.08-2.41,1.55A.46.46,0,0,1,35.44,64.63Zm57.51,0a.47.47,0,0,1-.2-.9l.31-.15c.83-.39,1.58-.72,2.28-1a.48.48,0,0,1,.62.26.47.47,0,0,1-.26.61c-.69.29-1.43.61-2.24,1l-.31.15A.46.46,0,0,1,93,64.63Zm-81.06-.55a.47.47,0,0,1-.35-.16A8.9,8.9,0,0,1,10,61.43a.48.48,0,0,1,.26-.62.47.47,0,0,1,.61.26,7.74,7.74,0,0,0,1.43,2.23.47.47,0,0,1-.36.78Zm86.29-1.56a.46.46,0,0,1-.45-.33A.47.47,0,0,1,98,61.6a23.1,23.1,0,0,1,2.81-.66.47.47,0,0,1,.14.93,21.42,21.42,0,0,0-2.68.63A.3.3,0,0,1,98.18,62.52Zm8.33-.44-.12,0a11.13,11.13,0,0,0-1.9-.34l-.77,0a.47.47,0,0,1-.46-.48.51.51,0,0,1,.48-.46c.28,0,.56,0,.83,0a12.29,12.29,0,0,1,2.07.36.47.47,0,0,1,.33.58A.48.48,0,0,1,106.51,62.08ZM222.4,62a.47.47,0,0,1-.47-.47c0-.92-.05-1.85-.14-2.78a.47.47,0,0,1,.94-.08c.09.95.13,1.91.14,2.85a.48.48,0,0,1-.47.48ZM48.32,61.65a.46.46,0,0,1-.43-.29,15,15,0,0,0-1.25-2.42.47.47,0,1,1,.79-.51A14.66,14.66,0,0,1,48.76,61a.46.46,0,0,1-.26.61A.57.57,0,0,1,48.32,61.65Zm-8.27-.25a.5.5,0,0,1-.37-.17.49.49,0,0,1,.06-.67c.71-.58,1.41-1.21,2.08-1.86a.47.47,0,0,1,.65.68c-.69.66-1.4,1.3-2.12,1.91A.5.5,0,0,1,40.05,61.4ZM9.84,59h0a.47.47,0,0,1-.47-.47,7.9,7.9,0,0,1,.57-2.92.47.47,0,1,1,.88.34,6.93,6.93,0,0,0-.51,2.58A.47.47,0,0,1,9.84,59ZM44.1,57.48a.47.47,0,0,1-.35-.79c.17-.19.35-.39.52-.6-.42-.4-.86-.79-1.33-1.16a.46.46,0,0,1-.08-.66.48.48,0,0,1,.66-.08c.48.38.93.78,1.37,1.19l.66-.82a.47.47,0,0,1,.74.59c-.25.3-.49.6-.74.89l.1.11a.47.47,0,0,1,0,.66.46.46,0,0,1-.66,0l0,0-.49.56A.51.51,0,0,1,44.1,57.48Zm177.77-1a.47.47,0,0,1-.46-.39c-.17-.91-.37-1.82-.62-2.71a.47.47,0,0,1,.91-.25c.25.92.46,1.86.64,2.79a.48.48,0,0,1-.38.55Zm-115.11-.35h0a17.22,17.22,0,0,1-2.88-.24.48.48,0,0,1-.39-.55.48.48,0,0,1,.55-.38,16.37,16.37,0,0,0,2.72.23.47.47,0,0,1,0,.94Zm2.81-.25a.46.46,0,0,1-.46-.38.47.47,0,0,1,.38-.55,14,14,0,0,0,2-.5l.65-.23a.47.47,0,0,1,.33.88c-.23.08-.45.17-.68.24a14.62,14.62,0,0,1-2.12.54Zm-8.33-.72a.51.51,0,0,1-.17,0,13.53,13.53,0,0,1-2.61-1.3.47.47,0,0,1-.14-.65A.48.48,0,0,1,99,53a11.4,11.4,0,0,0,2.42,1.21.48.48,0,0,1,.28.61A.46.46,0,0,1,101.24,55.11Zm13.6-1.2a.47.47,0,0,1-.22-.89,19.62,19.62,0,0,0,2.31-1.48.47.47,0,0,1,.66.1.46.46,0,0,1-.1.65,20.74,20.74,0,0,1-2.42,1.56A.46.46,0,0,1,114.84,53.91Zm-103-.1a.5.5,0,0,1-.3-.11.46.46,0,0,1-.06-.66,10.75,10.75,0,0,1,2.15-2,.47.47,0,0,1,.66.12.46.46,0,0,1-.12.65,10.34,10.34,0,0,0-2,1.82A.44.44,0,0,1,11.82,53.81Zm29.08-.36a.42.42,0,0,1-.24-.07,24.66,24.66,0,0,0-2.46-1.26.48.48,0,0,1-.24-.63.47.47,0,0,1,.62-.23,26.7,26.7,0,0,1,2.56,1.31.48.48,0,0,1,.16.65A.46.46,0,0,1,40.9,53.45Zm6.72-.37a.46.46,0,0,1-.27-.09.48.48,0,0,1-.11-.66c.55-.75,1.07-1.52,1.59-2.3a.47.47,0,0,1,.65-.14.46.46,0,0,1,.13.65c-.52.8-1,1.58-1.61,2.34A.46.46,0,0,1,47.62,53.08Zm49-1.06a.46.46,0,0,1-.36-.16,9,9,0,0,1-1.56-2.51.47.47,0,0,1,.87-.36,7.91,7.91,0,0,0,1.4,2.25.48.48,0,0,1,0,.67A.45.45,0,0,1,96.59,52Zm-60.82-.89-.15,0c-.86-.29-1.76-.55-2.67-.78a.47.47,0,0,1-.35-.57.47.47,0,0,1,.57-.34c.94.23,1.86.5,2.75.8a.47.47,0,0,1-.15.91ZM220.39,51a.46.46,0,0,1-.44-.3c-.32-.88-.68-1.74-1.07-2.57a.47.47,0,0,1,.22-.62.48.48,0,0,1,.63.22c.4.85.77,1.74,1.1,2.64a.46.46,0,0,1-.28.6A.45.45,0,0,1,220.39,51Zm-204-.42a.46.46,0,0,1-.43-.3.47.47,0,0,1,.26-.61A17.06,17.06,0,0,1,19,48.84a.48.48,0,0,1,.56.36.47.47,0,0,1-.37.56,15.16,15.16,0,0,0-2.62.78A.57.57,0,0,1,16.36,50.57Zm103,0a.45.45,0,0,1-.34-.15.46.46,0,0,1,0-.66,21.33,21.33,0,0,0,1.87-2,.46.46,0,0,1,.66-.06.47.47,0,0,1,.07.66,21.75,21.75,0,0,1-2,2.11A.47.47,0,0,1,119.37,50.57Zm-89.08-.79h-.07c-.91-.15-1.84-.27-2.77-.35a.47.47,0,0,1,.08-.93c.95.08,1.91.2,2.84.35a.47.47,0,0,1-.08.93Zm-8.43-.4a.47.47,0,0,1,0-.93c.44,0,.87-.06,1.31-.07s.77,0,1.17,0h.38a.47.47,0,0,1,.47.47.51.51,0,0,1-.48.47H23.16l-1.27.07Zm28.87-1a.42.42,0,0,1-.24-.07.47.47,0,0,1-.16-.64c.49-.8,1-1.6,1.43-2.42a.48.48,0,0,1,.65-.17.47.47,0,0,1,.17.64c-.47.82-.95,1.63-1.45,2.44A.47.47,0,0,1,50.73,48.37ZM94.48,46.9a.47.47,0,0,1-.47-.44c0-.21,0-.42,0-.63a10.82,10.82,0,0,1,.26-2.3.47.47,0,0,1,.56-.36.49.49,0,0,1,.36.57,9.51,9.51,0,0,0-.24,2.09c0,.19,0,.38,0,.57a.46.46,0,0,1-.44.5Zm28.44-.7a.47.47,0,0,1-.25-.07.47.47,0,0,1-.14-.65,23.61,23.61,0,0,0,1.35-2.41.47.47,0,0,1,.63-.22.48.48,0,0,1,.22.63A27.89,27.89,0,0,1,123.32,46,.46.46,0,0,1,122.92,46.2ZM218,45.9a.46.46,0,0,1-.4-.24c-.47-.8-1-1.58-1.51-2.33a.48.48,0,0,1,.11-.66.47.47,0,0,1,.65.11c.55.78,1.08,1.58,1.56,2.41a.47.47,0,0,1-.17.64A.55.55,0,0,1,218,45.9Zm-40.57-.49a.47.47,0,0,1,0-.94A8.52,8.52,0,0,0,180,44a.47.47,0,1,1,.32.88,9.4,9.4,0,0,1-2.9.57Zm-2.78-.36-.14,0a7.08,7.08,0,0,1-2.63-1.45.47.47,0,1,1,.63-.7,6.07,6.07,0,0,0,2.28,1.25.47.47,0,0,1-.14.92ZM53.56,43.49a.46.46,0,0,1-.23-.06.47.47,0,0,1-.19-.64c.46-.82.91-1.64,1.35-2.47a.47.47,0,0,1,.83.45L54,43.25A.49.49,0,0,1,53.56,43.49Zm129.06,0a.46.46,0,0,1-.37-.18.47.47,0,0,1,.09-.66,13.78,13.78,0,0,0,2-1.87.47.47,0,0,1,.66,0,.46.46,0,0,1,0,.66,14.57,14.57,0,0,1-2.11,2A.52.52,0,0,1,182.62,43.48Zm-87-2a.43.43,0,0,1-.19,0,.48.48,0,0,1-.24-.62,20.3,20.3,0,0,1,1.41-2.53.48.48,0,0,1,.65-.13.47.47,0,0,1,.14.65,18.83,18.83,0,0,0-1.34,2.4A.47.47,0,0,1,95.62,41.44Zm75-.06a.47.47,0,0,1-.44-.31,6.38,6.38,0,0,1-.36-2.15,7.89,7.89,0,0,1,0-.84.47.47,0,1,1,.94.11,6,6,0,0,0,0,.73,5.55,5.55,0,0,0,.3,1.84.45.45,0,0,1-.44.62Zm44.09-.07a.52.52,0,0,1-.36-.16l-.15-.18c-.55-.63-1.14-1.25-1.76-1.84a.47.47,0,0,1,0-.66.47.47,0,0,1,.67,0c.63.6,1.24,1.24,1.81,1.9l.15.17a.48.48,0,0,1,0,.67A.51.51,0,0,1,214.72,41.31Zm-89.33-.16-.15,0a.47.47,0,0,1-.29-.6,24.55,24.55,0,0,0,.78-2.66.47.47,0,1,1,.92.22,26.26,26.26,0,0,1-.81,2.75A.47.47,0,0,1,125.39,41.15Zm61-1.86a.45.45,0,0,1-.25-.07.47.47,0,0,1-.15-.65,22.32,22.32,0,0,0,1.34-2.41.47.47,0,0,1,.63-.23.48.48,0,0,1,.22.63,24.34,24.34,0,0,1-1.39,2.52A.48.48,0,0,1,186.36,39.29ZM56.23,38.53a.46.46,0,0,1-.22-.06.47.47,0,0,1-.19-.64l.09-.17c.4-.74.8-1.51,1.21-2.32a.47.47,0,0,1,.63-.2.46.46,0,0,1,.21.63c-.42.81-.82,1.59-1.22,2.34l-.09.17A.48.48,0,0,1,56.23,38.53ZM210.67,37.4a.48.48,0,0,1-.3-.11c-.71-.58-1.46-1.13-2.23-1.66A.47.47,0,0,1,208,35a.46.46,0,0,1,.65-.12c.79.53,1.56,1.11,2.3,1.7a.46.46,0,0,1,.06.66A.44.44,0,0,1,210.67,37.4Zm-112-.7a.49.49,0,0,1-.3-.1.47.47,0,0,1-.07-.66c.4-.5.82-1,1.24-1.45.2-.24.41-.47.63-.71a.47.47,0,1,1,.69.64l-.62.69c-.41.46-.81.93-1.21,1.42A.46.46,0,0,1,98.66,36.7Zm72.51-.78a.54.54,0,0,1-.21-.05.48.48,0,0,1-.21-.63,9,9,0,0,1,1.75-2.39.46.46,0,0,1,.66,0,.47.47,0,0,1,0,.67,8.1,8.1,0,0,0-1.57,2.14A.46.46,0,0,1,171.17,35.92Zm-44.5-.26h-.06a.47.47,0,0,1-.41-.52,21.74,21.74,0,0,0,.14-2.54v-.22a.47.47,0,0,1,.47-.47h0a.46.46,0,0,1,.47.46v.22a23.58,23.58,0,0,1-.15,2.66A.46.46,0,0,1,126.67,35.66ZM206,34.23a.39.39,0,0,1-.23-.07c-.8-.45-1.63-.88-2.47-1.27a.47.47,0,1,1,.4-.85c.86.4,1.71.84,2.53,1.31a.47.47,0,0,1-.23.88Zm-17.21,0a.41.41,0,0,1-.16,0,.48.48,0,0,1-.29-.6,24.46,24.46,0,0,0,.76-2.66.47.47,0,0,1,.57-.35.47.47,0,0,1,.35.56,26.34,26.34,0,0,1-.79,2.76A.47.47,0,0,1,188.8,34.22Zm-130-.71a.59.59,0,0,1-.22,0,.47.47,0,0,1-.2-.63c.41-.83.84-1.67,1.28-2.52a.47.47,0,1,1,.83.43l-1.27,2.51A.49.49,0,0,1,58.82,33.51Zm43.63-1a.47.47,0,0,1-.33-.14.46.46,0,0,1,0-.66c.67-.68,1.35-1.33,2-2a.47.47,0,0,1,.67,0,.48.48,0,0,1,0,.67q-1,.94-2,1.95A.47.47,0,0,1,102.45,32.53ZM175.09,32a.47.47,0,0,1-.41-.24.46.46,0,0,1,.18-.64,15.36,15.36,0,0,1,2.65-1.18.48.48,0,0,1,.6.3.47.47,0,0,1-.29.59,15.17,15.17,0,0,0-2.5,1.1A.39.39,0,0,1,175.09,32Zm25.82-.14a.51.51,0,0,1-.17,0c-.86-.33-1.75-.62-2.64-.88a.48.48,0,0,1-.32-.59.47.47,0,0,1,.58-.32c.92.27,1.83.57,2.71.91a.46.46,0,0,1,.28.6A.47.47,0,0,1,200.91,31.84Zm-5.41-1.59h-.1c-.9-.19-1.83-.35-2.74-.48a.46.46,0,0,1-.4-.53.47.47,0,0,1,.52-.4c.95.13,1.89.3,2.82.49a.48.48,0,0,1,.36.56A.47.47,0,0,1,195.5,30.25Zm-15.11-.14a.46.46,0,0,1-.46-.37.48.48,0,0,1,.36-.56l1.12-.2c.93-.16,1.88-.28,2.83-.36a.47.47,0,1,1,.08.93c-.92.08-1.85.2-2.76.35l-1.08.2ZM126.61,30a.47.47,0,0,1-.47-.41,23.11,23.11,0,0,0-.52-2.71.47.47,0,0,1,.91-.23,23.18,23.18,0,0,1,.54,2.81.46.46,0,0,1-.4.53Zm63.31-.56h0c-.78,0-1.57-.07-2.34-.07h-.45a.46.46,0,0,1-.47-.46.47.47,0,0,1,.46-.48h.46c.7,0,1.41,0,2.11.06a.44.44,0,0,1-.08-.32,21.3,21.3,0,0,0,.13-2.37v-.39a.47.47,0,0,1,.46-.48h0a.48.48,0,0,1,.47.46v.41a23,23,0,0,1-.14,2.47.47.47,0,0,1-.26.37.47.47,0,0,1-.33.8Zm-83.34-.79a.47.47,0,0,1-.31-.83c.72-.62,1.45-1.22,2.19-1.81a.47.47,0,0,1,.58.74c-.73.58-1.45,1.17-2.16,1.78A.44.44,0,0,1,106.58,28.69Zm-45.19-.2A.47.47,0,0,1,61,27.8c.43-.83.88-1.67,1.34-2.5a.48.48,0,0,1,.64-.18.47.47,0,0,1,.18.64c-.45.82-.9,1.65-1.33,2.47A.49.49,0,0,1,61.39,28.49ZM111,25.18a.45.45,0,0,1-.38-.19.47.47,0,0,1,.1-.66c.76-.56,1.54-1.1,2.32-1.63a.47.47,0,0,1,.53.78c-.78.52-1.54,1.06-2.3,1.61A.46.46,0,0,1,111,25.18Zm14.24-.6a.46.46,0,0,1-.44-.31,26.8,26.8,0,0,0-1.11-2.54.48.48,0,0,1,.21-.63.47.47,0,0,1,.63.22A26.52,26.52,0,0,1,125.68,24a.47.47,0,0,1-.28.6A.45.45,0,0,1,125.24,24.58Zm-61.11-1a.42.42,0,0,1-.24-.07.47.47,0,0,1-.17-.64c.49-.82,1-1.63,1.49-2.42a.47.47,0,0,1,.79.51c-.5.78-1,1.58-1.47,2.39A.46.46,0,0,1,64.13,23.55Zm125.78-.44a.48.48,0,0,1-.47-.39,13.26,13.26,0,0,0-.73-2.62.47.47,0,0,1,.27-.61.47.47,0,0,1,.61.26,15,15,0,0,1,.78,2.81.46.46,0,0,1-.38.54ZM115.67,22a.49.49,0,0,1-.4-.22.48.48,0,0,1,.15-.65c.81-.5,1.62-1,2.44-1.45a.46.46,0,0,1,.64.18.47.47,0,0,1-.17.64c-.81.46-1.62.94-2.41,1.43A.45.45,0,0,1,115.67,22Zm7.06-2.49a.49.49,0,0,1-.4-.22c-.14-.24-.29-.47-.45-.7l-1.09.56a.47.47,0,1,1-.44-.83l1-.51c-.19-.27-.39-.53-.59-.8a.47.47,0,0,1,.08-.66.48.48,0,0,1,.66.09c.24.31.48.63.7,1l.7-.34a.47.47,0,0,1,.41.85l-.57.27.4.62a.46.46,0,0,1-.15.64A.46.46,0,0,1,122.73,19.54Zm-55.54-.73a.47.47,0,0,1-.28-.09.48.48,0,0,1-.11-.66c.58-.8,1.16-1.56,1.73-2.26a.47.47,0,1,1,.73.59c-.56.69-1.13,1.43-1.69,2.22A.47.47,0,0,1,67.19,18.81Zm120.61-.88a.48.48,0,0,1-.38-.2,8.94,8.94,0,0,0-.62-.76,10.68,10.68,0,0,0-1.24-1.17.47.47,0,0,1-.07-.66.46.46,0,0,1,.66-.07,10.93,10.93,0,0,1,1.35,1.27c.24.27.47.55.68.84a.47.47,0,0,1-.38.75Zm-62.14-1.12a.47.47,0,0,1-.43-.28.47.47,0,0,1,.25-.62c.86-.37,1.74-.73,2.62-1.08a.47.47,0,1,1,.34.88c-.87.34-1.73.69-2.59,1.06A.41.41,0,0,1,125.66,16.81Zm-6.37-1.73a.46.46,0,0,1-.34-.15c-.63-.67-1.3-1.33-2-1.94a.48.48,0,0,1,0-.67.47.47,0,0,1,.67,0,27.5,27.5,0,0,1,2,2,.46.46,0,0,1,0,.66A.44.44,0,0,1,119.29,15.08Zm11.62-.32a.47.47,0,0,1-.15-.91c.89-.32,1.79-.61,2.69-.89a.46.46,0,0,1,.59.31.47.47,0,0,1-.31.59c-.89.27-1.78.57-2.66.87A.41.41,0,0,1,130.91,14.76Zm-60.14-.3a.48.48,0,0,1-.34-.8,24.88,24.88,0,0,1,2.12-1.94.47.47,0,1,1,.59.73,23.15,23.15,0,0,0-2,1.87A.51.51,0,0,1,70.77,14.46Zm112.73-.1a.46.46,0,0,1-.22-.06,20.3,20.3,0,0,0-2.52-1.11.47.47,0,1,1,.33-.88,21.42,21.42,0,0,1,2.63,1.16.47.47,0,0,1-.22.89Zm-47.2-1.27a.46.46,0,0,1-.45-.35.47.47,0,0,1,.33-.58c.91-.24,1.83-.48,2.75-.69a.47.47,0,1,1,.21.91c-.91.22-1.81.45-2.72.69Zm41.93-.71-.12,0c-.84-.22-1.76-.42-2.72-.6a.47.47,0,0,1-.37-.55.47.47,0,0,1,.54-.38c1,.19,1.92.4,2.79.62a.49.49,0,0,1,.34.58A.48.48,0,0,1,178.23,12.38Zm-36.44-.58a.46.46,0,0,1-.46-.38.47.47,0,0,1,.37-.55c.93-.18,1.86-.35,2.79-.5a.47.47,0,0,1,.54.39.47.47,0,0,1-.39.54c-.92.15-1.84.31-2.76.49Zm-26.71-.47a.51.51,0,0,1-.28-.09c-.74-.55-1.52-1.07-2.3-1.55a.45.45,0,0,1-.16-.64.47.47,0,0,1,.64-.16c.81.49,1.61,1,2.38,1.59a.47.47,0,0,1,.1.66A.47.47,0,0,1,115.08,11.33Zm57.61,0h-.06c-.94-.13-1.87-.23-2.79-.32a.46.46,0,0,1-.42-.51.47.47,0,0,1,.51-.42c.93.09,1.88.19,2.82.32a.46.46,0,0,1,.4.52A.46.46,0,0,1,172.69,11.32Zm-25.33-.41a.48.48,0,0,1-.47-.42.47.47,0,0,1,.41-.52q1.41-.18,2.82-.3a.48.48,0,0,1,.51.43.46.46,0,0,1-.42.51c-.93.08-1.86.18-2.79.29Zm-72.23,0a.46.46,0,0,1-.39-.21.47.47,0,0,1,.14-.65c.78-.51,1.61-1,2.46-1.45a.48.48,0,0,1,.64.2.47.47,0,0,1-.2.63c-.82.44-1.63.91-2.39,1.41A.48.48,0,0,1,75.13,10.9Zm91.94-.12h0l-2.81-.18a.47.47,0,0,1,.05-.94l2.82.18a.47.47,0,0,1,0,.94Zm-5.63-.34h0c-.93,0-1.87-.09-2.8-.11a.47.47,0,0,1-.46-.48.48.48,0,0,1,.48-.46c.94,0,1.89.06,2.83.11a.47.47,0,0,1,.44.5A.46.46,0,0,1,161.44,10.44Zm-8.46,0a.46.46,0,0,1-.47-.44.49.49,0,0,1,.45-.5c.94,0,1.89-.08,2.83-.09a.48.48,0,0,1,.48.46.48.48,0,0,1-.46.48c-.94,0-1.87,0-2.81.09Zm-42.72-2a.46.46,0,0,1-.2-.05c-.51-.24-1-.47-1.54-.68l-1-.4a.47.47,0,0,1,.33-.88c.35.13.7.26,1,.41.54.22,1.07.45,1.6.71a.47.47,0,0,1,.22.62A.48.48,0,0,1,110.26,8.42ZM80.11,8.26A.46.46,0,0,1,79.68,8a.47.47,0,0,1,.24-.62c.87-.37,1.77-.71,2.67-1a.47.47,0,0,1,.6.3.46.46,0,0,1-.3.59c-.87.3-1.75.63-2.6,1ZM105,6.46h-.12c-.88-.24-1.8-.45-2.72-.62a.47.47,0,1,1,.18-.92c.94.17,1.88.38,2.78.63a.47.47,0,0,1,.33.58A.45.45,0,0,1,105,6.46Zm-19.53,0a.47.47,0,0,1-.12-.93c.91-.23,1.85-.44,2.79-.61a.47.47,0,0,1,.17.93c-.92.16-1.83.36-2.73.59Zm5.54-1a.47.47,0,0,1,0-.94c1-.1,1.91-.17,2.85-.2a.47.47,0,0,1,.49.45.48.48,0,0,1-.46.48c-.92,0-1.85.11-2.78.21Zm8.45,0h0c-.92-.1-1.85-.16-2.78-.19a.49.49,0,0,1-.46-.49.44.44,0,0,1,.49-.45c1,0,1.91.1,2.85.2a.46.46,0,0,1,.42.51A.48.48,0,0,1,99.44,5.43Z"/></g><g id="_2-3" data-name="2"><path class="cls-3" d="M36.79,60.52c0,1.22-6.67,2.21-14.9,2.21S7,61.74,7,60.52s6.68-2.22,14.91-2.22S36.79,59.29,36.79,60.52Z"/><g id="_4" data-name="4"><path class="cls-4" d="M37.35,21l3.23.09a2.19,2.19,0,0,1,2,1.49l.56,1.61L44,25.58a2.22,2.22,0,0,1-.1,2.47L42.85,29.5l-3-4.29Z"/><path class="cls-4" d="M4.93,21.61l-.66.08A30.5,30.5,0,0,0,9.52,33.51L12.28,23.3Z"/><polygon class="cls-5" points="13.01 20.96 4.27 21.69 12.28 23.3 13.01 20.96"/><path class="cls-6" d="M28.28,29.74h0v.07S28.26,29.77,28.28,29.74Z"/><path class="cls-6" d="M28.29,29.85v0S28.28,29.85,28.29,29.85Z"/><path class="cls-6" d="M45.28,42.31a13.13,13.13,0,0,1-6.07,7.77,20.21,20.21,0,0,1-5.76,2.39L33,50a13.84,13.84,0,0,0,8.24-7h0v0h0A10.78,10.78,0,0,0,41.56,38a53.38,53.38,0,0,0-1.83-7.47c-.87-2.63-2.45-4.17-3.1-4.29l-.2-.13s0,0,0,0h0c-4-.38-8,2.78-8.18,3.63l-.63-8-.56-2.09c.71-.05,2.05-.08,2.76-.07,9,.18,11.63,3,14,9.51C45.39,33,46.32,38.18,45.28,42.31Z"/><rect class="cls-7" x="9.52" y="53.58" width="24.55" height="4.4"/><rect class="cls-5" x="8.06" y="57.97" width="27.48" height="2.58" rx="1.27" ry="1.27"/><path class="cls-4" d="M37.34,47.74a28.81,28.81,0,0,1-.28,3.48c-.1.76-.25,1.51-.42,2.27a2.93,2.93,0,0,1-1,1.59,2.89,2.89,0,0,1-1.89.69H9.85A3,3,0,0,1,7,53.49c-1.76-7.42.07-15.23,2-22.15C10,27.9,11,24.67,12,21.69H31.6c.22.66.44,1.33.67,2q.45,1.36.9,2.79c.5,1.57,1,3.18,1.5,4.85C36.08,36.49,37.46,42.14,37.34,47.74Z"/><path class="cls-8" d="M16.86,21.69H12c-1,3-2.05,6.2-3.08,9.65C7,38.26,5.2,46.07,7,53.48a3,3,0,0,0,2.89,2.29h8.21C12.16,46,13.15,32.18,16.86,21.69Z"/><path class="cls-9" d="M27.38,52c-6.95-7.77-8.06-20-5.88-30.27H16.86c-3.71,10.49-4.7,24.27,1.2,34.08h13.4A30.6,30.6,0,0,1,27.38,52Z"/><path class="cls-6" d="M30.31,19.53H14a2,2,0,0,0-2,2v.15H30.31Z"/><path class="cls-10" d="M21.62,27.18c-3.29,0-6,4.85-6,10.84s2.67,10.83,6,10.83h0V27.18Z"/><path class="cls-5" d="M27.57,38c0-6-2.65-10.81-5.92-10.84V48.85C24.92,48.82,27.57,44,27.57,38Z"/><path class="cls-5" d="M16.58,19.53H27.8a1,1,0,0,1-.95.95H17.53a1,1,0,0,1-1-.95Z"/><rect class="cls-6" x="20.19" y="30.02" width="2.76" height="1.07"/><rect class="cls-6" x="20.19" y="36.52" width="2.76" height="1.07"/><rect class="cls-6" x="20.19" y="43.03" width="2.76" height="1.07"/><path class="cls-6" d="M28.28,29.74h0v.07S28.26,29.77,28.28,29.74Z"/><path class="cls-6" d="M28.29,29.85v0S28.28,29.85,28.29,29.85Z"/><path class="cls-4" d="M39.21,50.08c-.34.21-.7.41-1.06.6s-.72.37-1.09.54-.73.32-1.11.47a21.31,21.31,0,0,1-2.5.78L33,50a17.51,17.51,0,0,0,3.15-1.42,13.31,13.31,0,0,0,1.23-.83A12.53,12.53,0,0,0,41.2,43h0A10.78,10.78,0,0,0,41.56,38a53.38,53.38,0,0,0-1.83-7.47,8.35,8.35,0,0,0-2.63-4.06,1.25,1.25,0,0,0-.47-.23l-.2-.13s0,0,0,0a8.46,8.46,0,0,0-3.29.39,13.21,13.21,0,0,0-1.63.66c-1.83.9-3.14,2.1-3.26,2.58l-.63-8h4.76a10,10,0,0,1,6.29,2.16,6,6,0,0,1,2,2.57c1.17,3.21,2.72,12.31,2.72,12.31A13.77,13.77,0,0,1,39.21,50.08Z"/><path class="cls-11" d="M38.6,46.67a28.09,28.09,0,0,1-.45,4c-.35.2-.72.37-1.09.54-.1.76-.25,1.51-.42,2.27a2.93,2.93,0,0,1-1,1.59c.09-.81.21-2,.31-3.39.07-.95.11-2,.16-3.12.29-7.1-3.84-19.4-4.57-21.42-.81-2.23-1.23-3.35-1.23-3.35s.87-.08,2-.1c1.51,0,3.45.11,4.13.78a3.76,3.76,0,0,1,.7,1.94,1.25,1.25,0,0,0-.47-.23l-.2-.13s0,0,0,0a8.46,8.46,0,0,0-3.29.39c.5,1.57,1,3.18,1.5,4.85,1.41,5.15,2.79,10.8,2.67,16.4A12.14,12.14,0,0,0,38.6,46.67Z"/><rect class="cls-10" x="16.58" y="51.37" width="10.5" height="2.21"/></g></g><g id="_3" data-name="3"><path class="cls-12" d="M67.15,105c0,1.23-8.21,2.24-18.35,2.24s-18.35-1-18.35-2.24,8.21-2.24,18.35-2.24S67.15,103.8,67.15,105Z"/><g id="_9" data-name="9"><rect class="cls-13" x="20.39" y="70.89" width="12.22" height="1.69"/><rect class="cls-6" x="29.75" y="70.5" width="1.91" height="2.59"/><rect class="cls-14" x="30.98" y="69.87" width="3.25" height="4.14"/><path class="cls-13" d="M5.52,77.69A5.37,5.37,0,0,1,4,77.47,5.44,5.44,0,0,1,0,71.79l0-.05,0,0A5.39,5.39,0,0,1,4.13,66a5.49,5.49,0,0,1,1.49-.17c7.58.16,10.57,1.82,11.76,3.19a2.75,2.75,0,0,1,.79,2l-.05.42-.39-.17A27.35,27.35,0,0,0,7.45,68.65c-4.9,0-6.46,2.5-6.76,3.09.3.59,1.86,3.08,6.76,3.08a27.35,27.35,0,0,0,10.28-2.53l.39-.16.05.41a2.74,2.74,0,0,1-.79,2c-1.18,1.37-4.17,3-11.73,3.19ZM.68,72.84a4.57,4.57,0,0,0,3.45,4,5,5,0,0,0,1.51.2c7.27-.16,10.12-1.69,11.23-2.94a2.67,2.67,0,0,0,.6-1,27.19,27.19,0,0,1-10,2.38C3.53,75.46,1.57,73.91.68,72.84Zm4.81-6.43a4.59,4.59,0,0,0-1.2.15A4.61,4.61,0,0,0,.68,70.62C1.56,69.55,3.52,68,7.45,68a27.19,27.19,0,0,1,10,2.38,2.67,2.67,0,0,0-.6-1c-1.12-1.25-4-2.78-11.26-2.93Z"/><rect class="cls-13" x="0.34" y="71.42" width="17.51" height="0.64"/><path class="cls-14" d="M65.9,76.35h0a1.71,1.71,0,0,1,1.68,2l-.64,3.24v5.84a1.7,1.7,0,0,1-.8,1.44l-3.25,2L64,77.6Z"/><path class="cls-15" d="M65,67.86h.2A2.82,2.82,0,0,1,68,70.68V71a2.82,2.82,0,0,1-2.82,2.82H65a0,0,0,0,1,0,0V67.86A0,0,0,0,1,65,67.86Z"/><path class="cls-6" d="M52.73,83.87c0-6.48,1.85-11.73,4.13-11.73S61,77.39,61,83.87,59.14,95.6,56.86,95.6,52.73,90.35,52.73,83.87ZM64.17,64.64a6.41,6.41,0,0,0-4.54-1.88H45.74a28.92,28.92,0,0,0-4.33.24,8.73,8.73,0,0,0-7.22,10.3L35,77.78l1.53,8a28.08,28.08,0,0,1-1,16.3l-.24.65v0H62.9v0l.18-1.06.33-1.86A180,180,0,0,0,66,69.18,6.4,6.4,0,0,0,64.17,64.64Z"/><path class="cls-16" d="M63.08,101.7l-.18,1.06v0H35.3v0l.24-.65a28.08,28.08,0,0,0,1-16.3l-1.53-8c1.07,1.93,2.25,3.81,3.47,5.63C43.57,91,50.36,98.33,59.37,100.85,60.59,101.19,61.83,101.47,63.08,101.7Z"/><path class="cls-6" d="M61.63,104.89H36.56a1.51,1.51,0,0,1-1.37-2.13H63A1.51,1.51,0,0,1,61.63,104.89Z"/><path class="cls-14" d="M38.43,66.62a.81.81,0,0,0-.85.77v7.86a.86.86,0,0,0,1.7,0V67.39A.81.81,0,0,0,38.43,66.62Z"/><path class="cls-14" d="M41.4,66.62a.81.81,0,0,0-.85.77v7.86a.85.85,0,0,0,1.69,0V67.39A.81.81,0,0,0,41.4,66.62Z"/><path class="cls-14" d="M44.36,66.62a.81.81,0,0,0-.85.77v7.86a.86.86,0,0,0,1.7,0V67.39A.81.81,0,0,0,44.36,66.62Z"/><path class="cls-14" d="M47.33,66.62a.81.81,0,0,0-.85.77v7.86a.85.85,0,0,0,1.69,0V67.39A.81.81,0,0,0,47.33,66.62Z"/><path class="cls-16" d="M56.92,69.11c-3.7,0-6.69,6.6-6.69,14.73s3,14.74,6.69,14.74,6.7-6.6,6.7-14.74S60.62,69.11,56.92,69.11ZM56.86,95.6c-2.28,0-4.13-5.25-4.13-11.73s1.85-11.73,4.13-11.73S61,77.39,61,83.87,59.14,95.6,56.86,95.6Z"/><path class="cls-6" d="M20.23,73.32l-2.38.5V69.65l2.38.5a1.64,1.64,0,0,1,1.29,1.59h0A1.64,1.64,0,0,1,20.23,73.32Z"/><rect class="cls-14" x="38.32" y="78.03" width="9.11" height="2.55"/></g></g><path class="cls-17" d="M166.34,48.46c0,1.57-11.33,2.85-25.32,2.85S115.7,50,115.7,48.46,127,45.61,141,45.61,166.34,46.89,166.34,48.46Z"/><g id="_16" data-name="16"><path class="cls-18" d="M150.36,25.85H129.55l-.84-9a2.61,2.61,0,0,1,1.65-2.79,30.33,30.33,0,0,1,19.18,0,2.59,2.59,0,0,1,1.66,2.78Z"/><path class="cls-19" d="M149.31,25.65H130.6l-.69-8.22a2.06,2.06,0,0,1,1.33-2.2,26.76,26.76,0,0,1,7.7-1.41,27.17,27.17,0,0,1,9.73,1.41,2.08,2.08,0,0,1,1.33,2.2Z"/><path class="cls-15" d="M121.93,44.77H126a0,0,0,0,1,0,0v4.37a1.31,1.31,0,0,1-1.31,1.31h-1.48a1.31,1.31,0,0,1-1.31-1.31V44.77A0,0,0,0,1,121.93,44.77Z"/><path class="cls-15" d="M153.49,44.77h4.1a0,0,0,0,1,0,0v4.37a1.31,1.31,0,0,1-1.31,1.31H154.8a1.31,1.31,0,0,1-1.31-1.31V44.77A0,0,0,0,1,153.49,44.77Z"/><path class="cls-20" d="M160.07,38.5h4.34A1.52,1.52,0,0,1,165.93,40v.55a1.52,1.52,0,0,1-1.52,1.52h-4.34a0,0,0,0,1,0,0V38.5A0,0,0,0,1,160.07,38.5Z"/><path class="cls-21" d="M128,19.21h23.83A11.13,11.13,0,0,1,163,30.34V41.83a4.81,4.81,0,0,1-4.81,4.81H121.71a4.81,4.81,0,0,1-4.81-4.81V30.34A11.13,11.13,0,0,1,128,19.21Z"/><path class="cls-22" d="M151.81,21.22H128.09a9,9,0,0,0-9,9V42.35c0,.14,0,.28,0,.42a4.48,4.48,0,0,0,.7,2,3.73,3.73,0,0,0,.35.46,4.42,4.42,0,0,0,2.45,1.44l37.75-19.13A9,9,0,0,0,151.81,21.22Z"/><path class="cls-15" d="M122.64,46.67a4.33,4.33,0,0,0,.89.09h32.84a4.41,4.41,0,0,0,3.35-1.53,5,5,0,0,0,.34-.46,4.37,4.37,0,0,0,.71-2c0-.14,0-.28,0-.42V30.19a9.18,9.18,0,0,0-.39-2.65Z"/><path class="cls-23" d="M158.25,29.19a8.68,8.68,0,0,0-6.82-3.3h-23a8.66,8.66,0,0,0-6.81,3.3,8,8,0,0,1,7.78-6.29h21A8,8,0,0,1,158.25,29.19Z"/><rect class="cls-24" x="132.25" y="30.99" width="15.41" height="3.09"/><path class="cls-25" d="M160.06,44.77a5,5,0,0,1-.34.46,4.41,4.41,0,0,1-3.35,1.53H123.53a4.37,4.37,0,0,1-3.34-1.53,3.73,3.73,0,0,1-.35-.46Z"/></g><g id="_4-2" data-name="4"><path class="cls-26" d="M99.74,37c0,1.59-11.06,2.88-24.71,2.88S50.32,38.61,50.32,37,61.38,34.15,75,34.15,99.74,35.43,99.74,37Z"/><g id="_5" data-name="5"><path class="cls-15" d="M94.69,19.63l-1.41-1.74a6.53,6.53,0,0,1-1.09,2,6.6,6.6,0,0,1-3.31,2.19l6.74,1.15Z"/><rect class="cls-27" x="94.02" y="12.31" width="6.59" height="1.3" transform="translate(4.43 44.75) rotate(-26.48)"/><rect class="cls-14" x="94.1" y="12.12" width="4.6" height="2.44" transform="translate(5.01 46.79) rotate(-27.98)"/><path class="cls-28" d="M93.69,10.44h.74a2.31,2.31,0,0,1,2.27,1.85l3.56,17.23L94.37,18.13Z"/><path class="cls-28" d="M58.77,24.9l-1.67.19a1.77,1.77,0,0,0-1.55,2L55.76,29l3-.74Z"/><path class="cls-5" d="M78.78,22.69a.89.89,0,0,1-.16-1.77l5.87-1a.89.89,0,0,1,1,.72.9.9,0,0,1-.73,1l-5.86,1Z"/><path class="cls-5" d="M70.54,21.49l3.56-.89a2.47,2.47,0,0,0,1.8-3l-.38-1.56-5,4.55Z"/><path class="cls-6" d="M94.05,11.1a3.15,3.15,0,0,0-2.93-2H90c-11.73.6-23.29,6.62-26.5,10.23s-11.34,14-11.34,14c.61,1.62,31.8,2.45,43.24.6,3.91-.63,6.32-.2,5.22-3.51C99.69,27.83,96.09,16.18,94.05,11.1ZM71.51,24.67s-2.24-2.51-.26-4.21c6.39-6.52,20.44-6.22,20.44-6.22s.63,1.85,1.79,4.69a1.66,1.66,0,0,1-1.37,2.27C85.85,21.88,71.51,24.67,71.51,24.67Z"/><path class="cls-6" d="M100.58,30.49l-.32-1c0-.05,0-.09,0-.14-.11-.32-.22-.69-.35-1.09-1.41-4.41-4.14-13-5.82-17.19a3.15,3.15,0,0,0-2.93-2H90c-11.73.6-23.29,6.62-26.5,10.23-.66.74-1.53,1.77-2.49,2.94-2.44,3-5.48,6.8-7.28,9.11l-.85,1.08-.72.92c.15.41,2.25.77,5.47,1,9.6.83,29.21,1,37.77-.44,1.76-.28,3.22-.35,4.19-.64C100.73,33,101.19,32.31,100.58,30.49Zm-8.47-9.28c-6.26.67-20.6,3.46-20.6,3.46s-2.24-2.51-.26-4.21c4.9-5,14.29-6,18.41-6.18a2.73,2.73,0,0,1,2.69,1.77c.29.76.66,1.74,1.13,2.88A1.67,1.67,0,0,1,92.11,21.21Z"/><path class="cls-28" d="M85.28,20.64l-6.5,1.16a1.62,1.62,0,0,0-1.49,1.79L87.65,22l-.17-.35A2,2,0,0,0,85.28,20.64Z"/><path class="cls-5" d="M67.71,15.24v.82l6.57-3.27-4.67.39A2.06,2.06,0,0,0,67.71,15.24Z"/><path class="cls-28" d="M99.55,33.36c-1,.29-2.43.36-4.19.64-8.56,1.39-28.17,1.27-37.77.44a50.56,50.56,0,0,1,3.77-4.11l.87-.8c1.92-1.69,3.89-2.92,5.48-2.83,2,.11,8.07,1.33,14.37,2.69l3,.66C91.93,31.57,98.36,33.08,99.55,33.36Z"/><path class="cls-29" d="M93.69,34.24l-.55.93c-.22.37-.48.81-.7,1.15-34.3,2.7-40.32-.87-40.32-.87V33.4c.58,1.55,29,2.38,41.56.84Z"/><path class="cls-5" d="M100.58,30.49l-.32-1C81.77,35.2,53.69,31.4,53.69,31.4l-.85,1.08-.72.92h0c.58,1.55,29,2.38,41.57.84.59-.07,1.15-.15,1.67-.24C99.27,33.37,101.68,33.8,100.58,30.49Z"/><path class="cls-28" d="M90.54,9.12c-.2,2-1.62,2.14-4.48,2.42-14.66,2-19.71,8.79-21.18,10.26-1,1.05-2.93.75-3.91.49,1-1.17,1.83-2.2,2.49-2.94C66.67,15.74,78.23,9.72,90,9.12Z"/><path class="cls-28" d="M90.54,24.9a1.66,1.66,0,1,1-1.66-1.66A1.65,1.65,0,0,1,90.54,24.9Z"/><rect class="cls-28" x="91.72" y="28.7" width="5.29" height="1.47" transform="matrix(0.98, -0.17, 0.17, 0.98, -3.69, 16.92)"/><path class="cls-6" d="M85.09,30.05c-4.07.28-9.74.36-14.72.36-3.69,0-7,0-9-.08l.87-.8c4.45.06,13.27.13,19.85-.14Z"/><path class="cls-30" d="M93.14,35.17c-.22.37-.48.81-.7,1.15-34.3,2.7-40.32-.87-40.32-.87v-.94C54.49,35,65,37,82.31,35.81Z"/></g></g><g id="_5-2" data-name="5"><path class="cls-31" d="M118.05,104.17c0,2-11,3.53-24.47,3.53s-24.46-1.58-24.46-3.53,10.95-3.53,24.46-3.53S118.05,102.22,118.05,104.17Z"/><path class="cls-32" d="M149.93,103.9c0,1-6,1.88-13.47,1.88S123,104.94,123,103.9s6-1.87,13.46-1.87S149.93,102.87,149.93,103.9Z"/><g id="_6" data-name="6"><rect class="cls-13" x="119.01" y="47.08" width="3.05" height="44.95" transform="translate(-18.12 57.63) rotate(-25.07)"/><path class="cls-29" d="M80.18,96.45a22.67,22.67,0,0,1-4.36-1.74C74.39,94.12,73,93.62,71.58,93a25.42,25.42,0,0,0,.88,4.8c-.84,1.52,27.62,7,38.56,4.72a4.64,4.64,0,0,0,3.67-5v0a5,5,0,0,1-.62.29C103,101.83,91.52,97.91,80.18,96.45Z"/><path class="cls-5" d="M113.72,93.37c-6.22,1.26-15.6-.11-24-2a18.23,18.23,0,0,1,.36-13.5,12.28,12.28,0,0,1,1.63-2.57,33.73,33.73,0,0,1,14.44,7.17A25.91,25.91,0,0,1,113.72,93.37Z"/><path class="cls-33" d="M90.05,77.87a18.23,18.23,0,0,0-.36,13.5c-7.88-1.76-14.93-4-17.79-4.92a15.84,15.84,0,0,1,.85-3,7.91,7.91,0,0,1,5.7-5.24c5.24-3.07,9.39-3.84,13.23-2.92A12.28,12.28,0,0,0,90.05,77.87Z"/><path class="cls-33" d="M114,94.34a29.37,29.37,0,0,1-6,.54,90.11,90.11,0,0,1-19.31-2.67c-7.46-1.71-14.11-3.79-17-4.74A24.82,24.82,0,0,0,71.58,93c1.38.59,2.81,1.09,4.24,1.68a22.67,22.67,0,0,0,4.36,1.74c11.34,1.46,22.83,5.38,33.88,1.31a5,5,0,0,0,.62-.29A18.58,18.58,0,0,0,114,94.34Z"/><path class="cls-15" d="M108,94.88a29.37,29.37,0,0,0,6-.54c-.09-.32-.2-.65-.31-1-12,2.44-35.9-5-41.82-6.92-.06.34-.12.68-.17,1,2.89,1,9.54,3,17,4.74A90.11,90.11,0,0,0,108,94.88Z"/><path class="cls-5" d="M93.08,96.31a9.83,9.83,0,1,1-9.83-9.83A9.83,9.83,0,0,1,93.08,96.31Z"/><path class="cls-15" d="M91.11,96.31a7.86,7.86,0,1,1-7.86-7.87A7.86,7.86,0,0,1,91.11,96.31Z"/><path class="cls-15" d="M91.11,96.31a7.86,7.86,0,0,1-7.86,7.86,7.87,7.87,0,0,1-7.86-7.86,7.86,7.86,0,0,1,7.86-7.87,5.37,5.37,0,0,1,.7,0A7.86,7.86,0,0,1,91.11,96.31Z"/><path class="cls-33" d="M86.58,94.34a7.86,7.86,0,0,1-7.86,7.87,5.37,5.37,0,0,1-.7,0,7.86,7.86,0,0,1,5.23-13.73,5.37,5.37,0,0,1,.7,0A7.83,7.83,0,0,1,86.58,94.34Z"/><path class="cls-34" d="M106.12,82.47c-1.43.14-4-.4-8-2.14a23.39,23.39,0,0,0-8.06-2.46c-8.19-.88-14.35,3.39-17.3,5.59a7.91,7.91,0,0,1,5.7-5.24c5.24-3.07,9.39-3.84,13.23-2.92A33.73,33.73,0,0,1,106.12,82.47Z"/><path class="cls-33" d="M72.48,84.19l2.18-8.42a5.17,5.17,0,0,1,5.1-4.31h0l3.49,4.47a21.46,21.46,0,0,1-6.41,6.2A20.94,20.94,0,0,1,72.48,84.19Z"/><path class="cls-5" d="M96.77,77.27a.56.56,0,0,1-.25,0c-5-2.06-7.89-2-7.92-2a.66.66,0,0,1-.68-.63.65.65,0,0,1,.62-.68c.13,0,3.22-.12,8.48,2.05a.65.65,0,0,1-.25,1.26Z"/><path class="cls-10" d="M109.3,89.15h-.21l.22-3.34h0a2.68,2.68,0,0,0,1.86-.79c.86-.86,1.28-2.43,1.21-4.56-.13-4.06-2.89-7.1-8.44-9.28C98.65,69.1,91.14,68,81.61,67.79a13.71,13.71,0,0,1-7-2,11.22,11.22,0,0,1-4.67-5.67,15.84,15.84,0,0,1,2-14.66c3.32-4.72,8.91-7.39,15.33-7.3,16.4.21,18.93.63,19.17.67l.75.15,1.42,2.48-2.91,1.66L105.09,42c-1.55-.12-6-.38-17.87-.54-5.37-.06-9.83,2-12.55,5.88A12.53,12.53,0,0,0,73.05,59c1.24,3.32,4.54,5.43,8.61,5.5,9.94.17,17.84,1.39,23.49,3.61a19.85,19.85,0,0,1,7.48,4.79,11.37,11.37,0,0,1,3.07,7.49c.1,3.17-.66,5.57-2.27,7.11A6.05,6.05,0,0,1,109.3,89.15Z"/><rect class="cls-29" x="108.02" y="85.39" width="3.34" height="4.9" rx="0.71" ry="0.71" transform="translate(-30.83 86.95) rotate(-38.32)"/><rect class="cls-5" x="106.9" y="41.03" width="4.36" height="9.85" transform="translate(-8.81 56.58) rotate(-28)"/><rect class="cls-5" x="128.94" y="84.37" width="4.07" height="14.49" transform="translate(-27.36 69.73) rotate(-27.1)"/><polygon class="cls-5" points="130.97 95.8 134.27 94.27 147.79 102.21 128.6 102.21 130.97 95.8"/><path class="cls-29" d="M148.52,103.87H127.67a1.09,1.09,0,1,1,0-2.18h20.85a1.09,1.09,0,0,1,0,2.18Z"/><path class="cls-29" d="M112.3,48.09a.74.74,0,0,1-.66-.41l-2.6-5.3a.73.73,0,0,1,.34-1,.72.72,0,0,1,1,.33L113,47a.74.74,0,0,1-.34,1A.7.7,0,0,1,112.3,48.09Z"/><path class="cls-10" d="M91.11,79.19s-1.45,7.37.57,10.33c4.93,2.23,17.15,2.1,17.15,2.1S93.12,89.27,91.11,79.19Z"/></g></g><g id="_6-2" data-name="6"><path class="cls-35" d="M198.23,58.14c0,1-7.46,1.78-16.67,1.78s-16.67-.79-16.67-1.78,7.46-1.78,16.67-1.78S198.23,57.15,198.23,58.14Z"/><g id="_15" data-name="15"><rect class="cls-36" x="176.21" y="0.86" width="10.38" height="2.02"/><path class="cls-37" d="M187.47,1.34H175.33a.67.67,0,0,1-.67-.67h0a.67.67,0,0,1,.67-.67h12.14a.67.67,0,0,1,.67.67h0A.67.67,0,0,1,187.47,1.34Z"/><polygon class="cls-36" points="166.11 5.65 169.87 4.15 172.46 9.04 166.11 5.65"/><path class="cls-37" d="M169.38,5.65h-3.27s1.89,3.73,3.76,4.52C172.39,11.23,169.38,5.65,169.38,5.65Z"/><path class="cls-37" d="M194.1,26.42H189v-2.5h5.11a.8.8,0,0,0,.59-.26.77.77,0,0,0,.21-.6l-.7-11.18a.81.81,0,0,0-.8-.76l-2.2,0,.72-2.51h1.48a3.3,3.3,0,0,1,3.29,3.09l.71,11.19a3.34,3.34,0,0,1-.89,2.46A3.29,3.29,0,0,1,194.1,26.42Z"/><path class="cls-36" d="M197.4,22.91l-.71-11.19a3.3,3.3,0,0,0-3.29-3.09h-.21l-.33,2.5h.54a.81.81,0,0,1,.8.76l.7,11.18a.77.77,0,0,1-.21.6.8.8,0,0,1-.59.26h-2.89l-.32,2.5h3.21a3.29,3.29,0,0,0,2.41-1.05A3.34,3.34,0,0,0,197.4,22.91Z"/><polygon class="cls-36" points="188.99 23.92 188.99 26.42 190.89 26.42 191.21 23.92 188.99 23.92"/><polygon class="cls-36" points="191.92 8.63 191.2 11.14 192.86 11.13 193.19 8.63 191.92 8.63"/><polygon class="cls-36" points="172.22 29.07 172.46 31.12 189.37 31.12 189.62 29.07 172.22 29.07"/><polygon class="cls-37" points="190.54 7.49 188.25 29.07 172.22 29.07 169.63 7.49 190.54 7.49"/><polygon class="cls-36" points="192.21 7.49 190.54 7.49 188.25 29.07 189.62 29.07 192.21 7.49"/><polygon class="cls-7" points="193.98 54.95 167.85 54.95 172.46 31.12 189.37 31.12 193.98 54.95"/><path class="cls-38" d="M180.63,49.18c-4.6,0-7.83-3.52-7.27-7.27L175,31.12h11.3l1.62,10.79C188.46,45.66,185.23,49.18,180.63,49.18Z"/><path class="cls-39" d="M182.94,35.54h-4a1.45,1.45,0,0,1-1.44-1.44h0a1.45,1.45,0,0,1,1.44-1.44h4a1.45,1.45,0,0,1,1.44,1.44h0A1.45,1.45,0,0,1,182.94,35.54Z"/><path class="cls-7" d="M185,42.07a4.23,4.23,0,1,1-4.23-4.22A4.23,4.23,0,0,1,185,42.07Z"/><path class="cls-39" d="M180.81,38.55h0a.72.72,0,0,0-.72.72v.95h1.44v-.95A.72.72,0,0,0,180.81,38.55Z"/><path class="cls-30" d="M180.09,40.22v4.71a.72.72,0,0,0,.72.72h0a.72.72,0,0,0,.72-.72V40.22Z"/><path class="cls-27" d="M190.51,2.31H171.33a2.06,2.06,0,0,0-2.05,2.3h23.27A2.05,2.05,0,0,0,190.51,2.31Z"/><polygon class="cls-7" points="169.28 4.61 169.63 7.49 192.21 7.49 192.55 4.61 169.28 4.61"/><path class="cls-7" d="M190.72,58.21h-19.6A3.27,3.27,0,0,1,167.85,55H194A3.26,3.26,0,0,1,190.72,58.21Z"/><rect class="cls-38" x="174.77" y="51.68" width="11.91" height="2.11"/><polygon class="cls-40" points="178.42 7.49 170.93 7.49 173.34 29.07 178.42 29.07 178.42 7.49"/><polygon class="cls-40" points="178.42 31.12 177.27 54.95 167.85 54.95 172.46 31.12 178.42 31.12"/><polygon class="cls-40" points="186.35 7.49 185.22 29.07 182.48 29.07 183.61 7.49 186.35 7.49"/><path class="cls-39" d="M176.91,37.85a.7.7,0,1,1-1.4,0,.7.7,0,0,1,1.4,0Z"/></g></g><g id="_7" data-name="7"><path class="cls-41" d="M234.38,102.76c0,1.17-8.12,2.12-18.13,2.12s-18.14-.95-18.14-2.12,8.12-2.12,18.14-2.12S234.38,101.59,234.38,102.76Z"/><g id="_10" data-name="10"><rect class="cls-42" x="214.19" y="76.67" width="4.42" height="23.4"/><rect class="cls-43" x="214.99" y="43.33" width="2.83" height="33.63"/><rect class="cls-43" x="214.99" y="43.33" width="2.83" height="33.63"/><rect class="cls-6" x="214.12" y="43.33" width="4.56" height="17.88"/><polygon class="cls-42" points="218.08 61.22 214.72 61.22 214.12 43.33 218.68 43.33 218.08 61.22"/><rect class="cls-44" x="214.55" y="71.82" width="3.7" height="3.14"/><rect class="cls-44" x="213.92" y="73.83" width="4.97" height="3.14"/><path class="cls-44" d="M217.54,59a1.14,1.14,0,1,1-1.14-1.14A1.14,1.14,0,0,1,217.54,59Z"/><path class="cls-44" d="M217.54,56a1.14,1.14,0,1,1-1.14-1.15A1.14,1.14,0,0,1,217.54,56Z"/><path class="cls-44" d="M217.54,52.9a1.14,1.14,0,1,1-1.14-1.14A1.14,1.14,0,0,1,217.54,52.9Z"/><path class="cls-44" d="M201.77,100.6v1.83h2.76V98.75h-.91A1.85,1.85,0,0,0,201.77,100.6Z"/><rect class="cls-42" x="204.53" y="98.75" width="11.87" height="3.68"/><path class="cls-44" d="M231,100.6v1.83h-2.76V98.75h.91A1.85,1.85,0,0,1,231,100.6Z"/><rect class="cls-42" x="216.4" y="98.75" width="11.87" height="3.68"/><path class="cls-44" d="M213.54,99.86v2.57h5.73V99.86a1.7,1.7,0,0,0-1.7-1.7h-2.34A1.7,1.7,0,0,0,213.54,99.86Z"/><path class="cls-44" d="M213.9,38.21s-6.19-4.13-6.63-9.13a6.74,6.74,0,0,1,3.19-6.55,10.06,10.06,0,0,1,6.23-1.4c2.73.33,6,1.27,8.16,3.11a3.9,3.9,0,0,1,1.62,3.54,3.7,3.7,0,0,1-1.95,2.66,12.37,12.37,0,0,0-5.27,6.29c-.31.86-.5,1.48-.5,1.48Z"/><path class="cls-44" d="M214.06,45.31s-.48,7.41-4.59,10.3a6.75,6.75,0,0,1-7.26.51,10.08,10.08,0,0,1-4.33-4.7,15.9,15.9,0,0,1-1.39-8.62,3.89,3.89,0,0,1,2.26-3.17A3.66,3.66,0,0,1,202,40a12.35,12.35,0,0,0,8.09,1.41c.9-.16,1.52-.3,1.52-.3Z"/><path class="cls-44" d="M221.31,39.87s6.66-3.29,11.22-1.17a6.72,6.72,0,0,1,4.07,6,10.06,10.06,0,0,1-1.9,6.1c-1.64,2.2-4.11,4.58-6.78,5.51a3.84,3.84,0,0,1-3.86-.37,3.66,3.66,0,0,1-1.33-3,12.42,12.42,0,0,0-2.82-7.71c-.59-.7-1-1.17-1-1.17Z"/><path class="cls-14" d="M223.52,41.64a7.42,7.42,0,1,1-7.42-7.42A7.42,7.42,0,0,1,223.52,41.64Z"/><path class="cls-6" d="M221.76,41.64A5.66,5.66,0,1,1,216.1,36,5.65,5.65,0,0,1,221.76,41.64Z"/><path class="cls-42" d="M220.63,41.64a4.52,4.52,0,0,1-2.44,4,5.24,5.24,0,0,0-3.22-8.4,4.28,4.28,0,0,1,1.13-.15A4.53,4.53,0,0,1,220.63,41.64Z"/></g></g><g id="_8" data-name="8"><g id="_14" data-name="14"><path class="cls-45" d="M169.06,94.38l-2.19.81a.91.91,0,0,1-1.21-.71l-1-6.78a.7.7,0,0,1,0-.25l.3-2.36a.91.91,0,0,1,.83-.78l2.59-.19Z"/><path class="cls-45" d="M165.83,79h2.86a0,0,0,0,1,0,0v3.61a0,0,0,0,1,0,0h-2.86a1.2,1.2,0,0,1-1.2-1.2V80.21A1.2,1.2,0,0,1,165.83,79Z"/><path class="cls-21" d="M144.91,62.75V73.59l-11.18,3.82a16.51,16.51,0,0,1-2.59-8.75c0-.16,0-.33,0-.49a19.2,19.2,0,0,1,.12-2.06c0-.13,0-.27.05-.4s.07-.5.11-.74.05-.28.07-.41a17.28,17.28,0,0,1,.8-2.78c.13-.35.26-.67.4-1s.3-.63.45-.89.18-.33.26-.48.24-.38.34-.52Z"/><path class="cls-46" d="M144.91,62.75v5.08H131.14c0-.6.05-1.17.11-1.72,0-.13,0-.27.05-.4s.07-.5.11-.74.05-.28.07-.41a17.28,17.28,0,0,1,.8-2.78c.13-.35.26-.67.4-1s.3-.63.45-.89.18-.33.26-.48.24-.38.34-.52Z"/><path class="cls-40" d="M144.61,63.38l-.53,1-11.4-3.57c.15-.33.3-.63.45-.89s.18-.33.26-.48Z"/><path class="cls-38" d="M144.91,62.75V73.59l-7.32-2a3.57,3.57,0,0,1-1.89-1.27,3.53,3.53,0,0,1-.73-2.15,3.45,3.45,0,0,1,.14-1,1.43,1.43,0,0,1,.09-.27,3.55,3.55,0,0,1,2.39-2.19l.6-.16Z"/><path class="cls-47" d="M181.72,68.17c0,.16,0,.33,0,.49a8.16,8.16,0,0,1-.22,1.54,6.57,6.57,0,0,1-.31,1A7.58,7.58,0,0,1,179,74.05h0l.1-5.4.07-4.1,0-1.51a6.37,6.37,0,0,1,1.42,1.51,6,6,0,0,1,.36.6,5.67,5.67,0,0,1,.42,1,6.47,6.47,0,0,1,.31,1.54C181.71,67.84,181.72,68,181.72,68.17Z"/><path class="cls-38" d="M176.38,61.82l-5-.88V75.39l.2,0a14.3,14.3,0,0,0-1.1,3.87c-1.25,7.65,1,16.68,2.68,20.78,0,0,2.51-8.9,2.36-14.38-.07-2.34-.74-4.94-.52-7.25s2.57-3.06,4-4.32l.2-11A6.37,6.37,0,0,0,176.38,61.82Z"/><path class="cls-15" d="M173.11,100h-4.58a50.51,50.51,0,0,1-1.94-13.63c0-1,0-2,.07-2.92.07-1.24.18-2.41.32-3.52a5.66,5.66,0,0,0-5.25-5.2l-13.28-.91-3.54-.24V62.75l26.42-1.81a11.6,11.6,0,0,1,2.1,3.64,11.27,11.27,0,0,1,.54,2.35l0,.27a11.53,11.53,0,0,1,0,1.19,11.14,11.14,0,0,1-2.3,6.5,15,15,0,0,0-1.31,4.34C169.18,86.88,171.4,95.91,173.11,100Z"/><rect class="cls-48" x="154.54" y="68.55" width="10.99" height="1.87"/><polygon class="cls-45" points="171.56 110.62 170.04 110.62 168.53 100.01 173.06 100.01 171.56 110.62"/><path class="cls-45" d="M175.85,102.58a3.46,3.46,0,0,0-4.16-2.07l.43,1.28a2.09,2.09,0,0,1,2.46,1.27,2.68,2.68,0,0,1-.89,2.9,3.55,3.55,0,0,1-3.26.48l-.43,1.29a5,5,0,0,0,1.62.26,4.63,4.63,0,0,0,2.9-1A4,4,0,0,0,175.85,102.58Z"/><path class="cls-45" d="M181.39,66.14h-2.2v-1H181A5.67,5.67,0,0,1,181.39,66.14Z"/><path class="cls-45" d="M181.72,68.17c0,.16,0,.33,0,.49h-2.52v-1h2.51C181.71,67.84,181.72,68,181.72,68.17Z"/><path class="cls-45" d="M181.49,70.2a6.57,6.57,0,0,1-.31,1h-2v-1Z"/><path class="cls-46" d="M174,67.83H135.11q0-.47.09-.9a3.55,3.55,0,0,1,2.39-2.19l.6-.16,6.72-1.83,26.42-1.81a11.6,11.6,0,0,1,2.1,3.64,11.27,11.27,0,0,1,.54,2.35Z"/><path class="cls-40" d="M146.19,63.38c.3,0,25.06-1.76,25.06-1.76a4.08,4.08,0,0,1,1.28,2.26C170.28,63.88,146.19,63.38,146.19,63.38Z"/><path class="cls-49" d="M176.19,62.07a28.76,28.76,0,0,0-3.66-.45l1.06,2.26,5.4.28S178.66,62.45,176.19,62.07Z"/><path class="cls-50" d="M166.66,83.46c.07-1.24.18-2.41.32-3.52a5.66,5.66,0,0,0-5.25-5.2l-13.28-.91C152,73.5,158.91,73,163,73.58a4.59,4.59,0,0,1,3.39,2.34A7.87,7.87,0,0,1,166.66,83.46Z"/><polygon class="cls-51" points="169.47 100.91 170.8 100.91 170.8 109.83 169.47 100.91"/></g><path class="cls-52" d="M181.1,112.75c0,.91-5.94,1.64-13.26,1.64s-13.27-.73-13.27-1.64,5.94-1.63,13.27-1.63S181.1,111.85,181.1,112.75Z"/></g></g></g></g></g></g></svg>