<svg xmlns="http://www.w3.org/2000/svg" xmlns:xlink="http://www.w3.org/1999/xlink" viewBox="0 0 250.09 266.4"><defs><style>.cls-1{fill:url(#radial-gradient);}.cls-2{fill:url(#linear-gradient);}.cls-3{fill:#60a4b1;}.cls-4{fill:url(#linear-gradient-2);}.cls-5{fill:url(#linear-gradient-3);}.cls-6{fill:url(#linear-gradient-4);}.cls-7{fill:url(#radial-gradient-2);}.cls-8{fill:url(#linear-gradient-5);}.cls-9{fill:url(#linear-gradient-6);}.cls-10{fill:url(#linear-gradient-7);}.cls-11{fill:url(#linear-gradient-8);}.cls-12{fill:#363834;}.cls-13{fill:url(#linear-gradient-9);}.cls-14{fill:url(#linear-gradient-10);}.cls-15{fill:url(#linear-gradient-11);}.cls-16{fill:url(#linear-gradient-12);}.cls-17{fill:url(#linear-gradient-13);}.cls-18{fill:url(#linear-gradient-14);}.cls-19{fill:url(#linear-gradient-15);}.cls-20{fill:url(#linear-gradient-16);}.cls-21{fill:url(#linear-gradient-17);}.cls-22{fill:url(#linear-gradient-18);}.cls-23{fill:url(#linear-gradient-19);}.cls-24{fill:url(#linear-gradient-20);}.cls-25{fill:url(#linear-gradient-21);}.cls-26{fill:url(#linear-gradient-22);}.cls-27{fill:url(#linear-gradient-23);}.cls-28{fill:url(#linear-gradient-24);}.cls-29{fill:url(#linear-gradient-25);}.cls-30{fill:url(#linear-gradient-26);}.cls-31{fill:url(#linear-gradient-27);}.cls-32{fill:url(#linear-gradient-28);}.cls-33{fill:url(#linear-gradient-29);}.cls-34{fill:url(#linear-gradient-30);}.cls-35{fill:url(#linear-gradient-31);}.cls-36{fill:url(#radial-gradient-3);}.cls-37{fill:url(#linear-gradient-32);}.cls-38{fill:url(#linear-gradient-33);}.cls-39{fill:url(#linear-gradient-34);}.cls-40{fill:url(#linear-gradient-35);}.cls-41{fill:url(#radial-gradient-4);}.cls-42{fill:url(#linear-gradient-36);}.cls-43{fill:url(#linear-gradient-37);}.cls-44{fill:url(#linear-gradient-38);}.cls-45{fill:url(#linear-gradient-39);}.cls-46{fill:url(#linear-gradient-40);}.cls-47{fill:url(#linear-gradient-41);}.cls-48{fill:url(#linear-gradient-42);}.cls-49{fill:url(#linear-gradient-43);}.cls-50{fill:url(#linear-gradient-44);}.cls-51{fill:url(#linear-gradient-45);}.cls-52{fill:#407177;}</style><radialGradient id="radial-gradient" cx="176.44" cy="250.53" r="13.88" gradientUnits="userSpaceOnUse"><stop offset="0" stop-color="#2a2b28"/><stop offset="0.53" stop-color="#282926"/><stop offset="0.82" stop-color="#20211e"/><stop offset="1" stop-color="#171715"/></radialGradient><linearGradient id="linear-gradient" x1="168.92" y1="245.77" x2="186.29" y2="256.77" gradientUnits="userSpaceOnUse"><stop offset="0.02" stop-color="#7d7d7d"/><stop offset="0.5" stop-color="#7b7b7b"/><stop offset="0.76" stop-color="#737473"/><stop offset="0.98" stop-color="#656867"/><stop offset="1" stop-color="#636665"/></linearGradient><linearGradient id="linear-gradient-2" x1="170.35" y1="250.53" x2="182.54" y2="250.53" xlink:href="#linear-gradient"/><linearGradient id="linear-gradient-3" x1="178.37" y1="247.59" x2="178.37" y2="230.76" gradientUnits="userSpaceOnUse"><stop offset="0.02" stop-color="#d4d4d4"/><stop offset="0.27" stop-color="#d2d2d2"/><stop offset="0.41" stop-color="#c9caca"/><stop offset="0.52" stop-color="#bcbcbc"/><stop offset="0.62" stop-color="#a8a9a9"/><stop offset="0.71" stop-color="#8e9090"/><stop offset="0.79" stop-color="#707271"/><stop offset="0.82" stop-color="#656867"/></linearGradient><linearGradient id="linear-gradient-4" x1="170.73" y1="233.81" x2="186.02" y2="233.81" gradientUnits="userSpaceOnUse"><stop offset="0" stop-color="#9a9a9b"/><stop offset="0.22" stop-color="#9c9c9d"/><stop offset="0.34" stop-color="#a4a4a5"/><stop offset="0.44" stop-color="#b2b2b3"/><stop offset="0.52" stop-color="#c6c6c6"/><stop offset="0.6" stop-color="#dfdfdf"/><stop offset="0.67" stop-color="#fefefe"/><stop offset="0.67" stop-color="#fff"/><stop offset="0.75" stop-color="#cccdcc"/><stop offset="0.83" stop-color="#a0a2a1"/><stop offset="0.9" stop-color="#808281"/><stop offset="0.96" stop-color="#6c6f6e"/><stop offset="1" stop-color="#656867"/></linearGradient><radialGradient id="radial-gradient-2" cx="22.65" cy="250.53" r="13.88" xlink:href="#radial-gradient"/><linearGradient id="linear-gradient-5" x1="15.13" y1="245.77" x2="32.49" y2="256.77" xlink:href="#linear-gradient"/><linearGradient id="linear-gradient-6" x1="16.55" y1="250.53" x2="28.74" y2="250.53" xlink:href="#linear-gradient"/><linearGradient id="linear-gradient-7" x1="24.58" y1="247.59" x2="24.58" y2="230.76" xlink:href="#linear-gradient-3"/><linearGradient id="linear-gradient-8" x1="16.94" y1="233.81" x2="32.22" y2="233.81" xlink:href="#linear-gradient-4"/><linearGradient id="linear-gradient-9" x1="323.5" y1="62.82" x2="323.5" y2="50.49" gradientTransform="matrix(1, 0.09, -0.09, 1, -147.91, 110.8)" gradientUnits="userSpaceOnUse"><stop offset="0.39" stop-color="#9a9a9b"/><stop offset="0.53" stop-color="#fff"/><stop offset="0.81" stop-color="#656867"/></linearGradient><linearGradient id="linear-gradient-10" x1="347.2" y1="73.79" x2="353.77" y2="73.79" gradientTransform="matrix(1, 0.09, -0.09, 1, -147.91, 110.8)" gradientUnits="userSpaceOnUse"><stop offset="0" stop-color="#9a9a9b"/><stop offset="0.26" stop-color="#fff"/><stop offset="0.35" stop-color="#eaeaea"/><stop offset="0.66" stop-color="#a3a4a4"/><stop offset="0.89" stop-color="#767978"/><stop offset="1" stop-color="#656867"/></linearGradient><linearGradient id="linear-gradient-11" x1="-578.74" y1="588.82" x2="-566.94" y2="588.82" gradientTransform="translate(520.7 -570.86) rotate(-20.23)" xlink:href="#linear-gradient-10"/><linearGradient id="linear-gradient-12" x1="295.92" y1="75.91" x2="302.5" y2="75.91" xlink:href="#linear-gradient-10"/><linearGradient id="linear-gradient-13" x1="-626.02" y1="568.87" x2="-614.23" y2="568.87" gradientTransform="translate(520.7 -570.86) rotate(-20.23)" xlink:href="#linear-gradient-10"/><linearGradient id="linear-gradient-14" x1="279.59" y1="30.6" x2="279.59" y2="18.51" xlink:href="#linear-gradient-9"/><linearGradient id="linear-gradient-15" x1="448.86" y1="-2670.31" x2="460.6" y2="-2670.31" gradientTransform="matrix(-0.05, 1, -1.8, -0.1, -4674.69, -571.14)" xlink:href="#linear-gradient-10"/><linearGradient id="linear-gradient-16" x1="418.51" y1="-2647.75" x2="430.25" y2="-2647.75" gradientTransform="matrix(-0.05, 1, -1.84, -0.1, -4734.36, -574.19)" xlink:href="#linear-gradient-10"/><linearGradient id="linear-gradient-17" x1="388.19" y1="-2613.49" x2="399.93" y2="-2613.49" gradientTransform="matrix(-0.05, 1, -1.9, -0.1, -4831.57, -579.5)" xlink:href="#linear-gradient-10"/><linearGradient id="linear-gradient-18" x1="239.64" y1="-634.12" x2="242.34" y2="-634.12" gradientTransform="matrix(1, 0.08, -0.13, 1.63, -221.09, 1115.6)" xlink:href="#linear-gradient-10"/><linearGradient id="linear-gradient-19" x1="222.74" y1="-601.95" x2="225.42" y2="-601.95" gradientTransform="matrix(1, 0.08, -0.12, 1.58, -215.07, 1037.48)" xlink:href="#linear-gradient-10"/><linearGradient id="linear-gradient-20" x1="183.78" y1="-553.3" x2="186.31" y2="-553.3" gradientTransform="matrix(1, 0.06, -0.1, 1.54, -172.16, 942.14)" xlink:href="#linear-gradient-10"/><linearGradient id="linear-gradient-21" x1="497.31" y1="-906.17" x2="501.28" y2="-906.17" gradientTransform="matrix(0.98, 0.18, -0.34, 1.88, -610.84, 1719.71)" xlink:href="#linear-gradient-10"/><linearGradient id="linear-gradient-22" x1="483.01" y1="-884.86" x2="486.93" y2="-884.86" gradientTransform="matrix(0.98, 0.18, -0.33, 1.84, -597.23, 1643.42)" xlink:href="#linear-gradient-10"/><linearGradient id="linear-gradient-23" x1="468.69" y1="-872.31" x2="472.59" y2="-872.31" gradientTransform="matrix(0.98, 0.18, -0.33, 1.81, -589.78, 1601.21)" xlink:href="#linear-gradient-10"/><linearGradient id="linear-gradient-24" x1="454.22" y1="-845.38" x2="458.06" y2="-845.38" gradientTransform="matrix(0.98, 0.18, -0.32, 1.76, -573.39, 1510.77)" xlink:href="#linear-gradient-10"/><linearGradient id="linear-gradient-25" x1="439.82" y1="-824.1" x2="443.62" y2="-824.1" gradientTransform="matrix(0.98, 0.18, -0.31, 1.72, -561.4, 1444.1)" xlink:href="#linear-gradient-10"/><linearGradient id="linear-gradient-26" x1="338.69" y1="-737.47" x2="341.91" y2="-737.47" gradientTransform="matrix(0.99, 0.13, -0.21, 1.69, -379.15, 1309.08)" xlink:href="#linear-gradient-10"/><linearGradient id="linear-gradient-27" x1="13.5" y1="100.86" x2="15.37" y2="100.86" gradientTransform="matrix(1, 0, 0, 1, 0, 0)" xlink:href="#linear-gradient-10"/><linearGradient id="linear-gradient-28" x1="26.28" y1="101.62" x2="28.14" y2="101.62" gradientTransform="matrix(1, 0, 0, 1, 0, 0)" xlink:href="#linear-gradient-10"/><linearGradient id="linear-gradient-29" x1="39.06" y1="101.62" x2="40.92" y2="101.62" gradientTransform="matrix(1, 0, 0, 1, 0, 0)" xlink:href="#linear-gradient-10"/><linearGradient id="linear-gradient-30" x1="106.74" y1="-473.79" x2="108.94" y2="-473.79" gradientTransform="matrix(1, 0.03, -0.05, 1.49, -76.29, 806.02)" xlink:href="#linear-gradient-10"/><linearGradient id="linear-gradient-31" x1="10.63" y1="229.39" x2="196.42" y2="229.39" gradientUnits="userSpaceOnUse"><stop offset="0" stop-color="#9a9a9b"/><stop offset="0.26" stop-color="#fff"/><stop offset="0.65" stop-color="#656867"/><stop offset="1" stop-color="#9a9a9b"/></linearGradient><radialGradient id="radial-gradient-3" cx="28.83" cy="252.01" r="14.39" xlink:href="#radial-gradient"/><linearGradient id="linear-gradient-32" x1="21.03" y1="247.07" x2="39.04" y2="258.47" xlink:href="#linear-gradient"/><linearGradient id="linear-gradient-33" x1="22.51" y1="252.01" x2="35.15" y2="252.01" xlink:href="#linear-gradient"/><linearGradient id="linear-gradient-34" x1="30.83" y1="248.96" x2="30.83" y2="231.51" xlink:href="#linear-gradient-3"/><linearGradient id="linear-gradient-35" x1="22.91" y1="234.67" x2="38.75" y2="234.67" xlink:href="#linear-gradient-4"/><radialGradient id="radial-gradient-4" cx="188.27" cy="252.01" r="14.39" xlink:href="#radial-gradient"/><linearGradient id="linear-gradient-36" x1="180.47" y1="247.07" x2="198.48" y2="258.47" xlink:href="#linear-gradient"/><linearGradient id="linear-gradient-37" x1="181.95" y1="252.01" x2="194.59" y2="252.01" xlink:href="#linear-gradient"/><linearGradient id="linear-gradient-38" x1="190.27" y1="248.96" x2="190.27" y2="231.51" xlink:href="#linear-gradient-3"/><linearGradient id="linear-gradient-39" x1="182.35" y1="234.67" x2="198.19" y2="234.67" xlink:href="#linear-gradient-4"/><linearGradient id="linear-gradient-40" x1="13.76" y1="34.83" x2="235.72" y2="142.57" gradientTransform="translate(-8.91 8.02) rotate(0.27)" xlink:href="#linear-gradient-10"/><linearGradient id="linear-gradient-41" x1="-418.31" y1="-1161.74" x2="-412.22" y2="-1161.74" gradientTransform="matrix(1.83, 0.33, -0.49, 2.73, 393.78, 3396.54)" xlink:href="#linear-gradient-10"/><linearGradient id="linear-gradient-42" x1="391.47" y1="-2619.06" x2="403.22" y2="-2619.06" gradientTransform="matrix(-0.05, 1, -1.89, -0.1, -4815.04, -579.08)" xlink:href="#linear-gradient-10"/><linearGradient id="linear-gradient-43" x1="421.49" y1="-2647.83" x2="433.23" y2="-2647.83" gradientTransform="matrix(-0.05, 1, -1.84, -0.1, -4734.36, -574.19)" xlink:href="#linear-gradient-10"/><linearGradient id="linear-gradient-44" x1="451.84" y1="-2670.39" x2="463.58" y2="-2670.39" gradientTransform="matrix(-0.05, 1, -1.8, -0.1, -4674.69, -571.14)" xlink:href="#linear-gradient-10"/><linearGradient id="linear-gradient-45" x1="242.09" y1="6.17" x2="246.09" y2="6.17" gradientTransform="matrix(1, 0, 0, 1, 0, 0)" xlink:href="#linear-gradient-10"/></defs><title>Ресурс 2</title><g id="Слой_2" data-name="Слой 2"><g id="Capa_1" data-name="Capa 1"><path class="cls-1" d="M190.33,250.53a13.89,13.89,0,1,0-13.89,13.88A13.88,13.88,0,0,0,190.33,250.53Z"/><path class="cls-2" d="M185.13,250.53a8.69,8.69,0,1,0-8.69,8.69A8.68,8.68,0,0,0,185.13,250.53Z"/><path class="cls-3" d="M183.37,250.53a6.93,6.93,0,1,0-6.93,6.93A6.93,6.93,0,0,0,183.37,250.53Z"/><path class="cls-4" d="M182.54,250.53a6.1,6.1,0,1,0-6.1,6.1A6.1,6.1,0,0,0,182.54,250.53Z"/><path class="cls-5" d="M184,236a2.58,2.58,0,0,0-2.83-2.81h-5.43c-1.31,0-2.85.28-2.93,3-.07,2.42,1.91,5.92.42,10.73a4.23,4.23,0,0,0-.24.71,3.21,3.21,0,0,0-.17,1.18,1.55,1.55,0,0,0,0,.22c0,2.67,1.87,4.84,4.19,4.84a4.24,4.24,0,0,0,3.86-3h0C183.4,245.74,184,241.67,184,236Z"/><path class="cls-6" d="M186,233.81c0,.76-.41,1.37-.9,1.37H171.63c-.5,0-.9-.61-.9-1.37h0c0-.76.4-1.37.9-1.37h13.49c.49,0,.9.61.9,1.37Z"/><path class="cls-3" d="M186.17,233.55h0a.38.38,0,0,0-.39-.39H171a.38.38,0,0,0-.39.39h0c-.22,0-.41.09-.41.2s.19.19.41.19h0a.38.38,0,0,0,.39.39h14.77a.38.38,0,0,0,.39-.39h0c.22,0,.41-.09.41-.19S186.39,233.55,186.17,233.55Z"/><path class="cls-7" d="M36.53,250.53a13.89,13.89,0,1,0-13.88,13.88A13.88,13.88,0,0,0,36.53,250.53Z"/><path class="cls-8" d="M31.33,250.53a8.69,8.69,0,1,0-8.68,8.69A8.68,8.68,0,0,0,31.33,250.53Z"/><path class="cls-3" d="M29.58,250.53a6.93,6.93,0,1,0-6.93,6.93A6.94,6.94,0,0,0,29.58,250.53Z"/><path class="cls-9" d="M28.74,250.53a6.1,6.1,0,1,0-6.09,6.1A6.09,6.09,0,0,0,28.74,250.53Z"/><path class="cls-10" d="M30.17,236a2.58,2.58,0,0,0-2.82-2.81H21.92c-1.31,0-2.85.28-2.93,3-.08,2.42,1.9,5.92.41,10.73a7.39,7.39,0,0,0-.24.71,3.21,3.21,0,0,0-.17,1.18V249c0,2.67,1.87,4.84,4.18,4.84a4.25,4.25,0,0,0,3.87-3h0C29.6,245.74,30.17,241.67,30.17,236Z"/><path class="cls-11" d="M32.22,233.81c0,.76-.4,1.37-.9,1.37H17.84c-.5,0-.9-.61-.9-1.37h0c0-.76.4-1.37.9-1.37H31.32c.5,0,.9.61.9,1.37Z"/><path class="cls-3" d="M32.37,233.55h0a.39.39,0,0,0-.39-.39H17.19a.38.38,0,0,0-.39.39h0c-.23,0-.41.09-.41.2s.18.19.41.19h0a.38.38,0,0,0,.39.39H32a.39.39,0,0,0,.39-.39h0c.23,0,.41-.09.41-.19S32.6,233.55,32.37,233.55Z"/><polygon class="cls-12" points="179.03 158.69 74.62 149.53 74.62 159.69 173.83 168.3 189.96 197.72 186.7 234.85 193.24 235.43 198.78 195.78 179.03 158.69"/><path class="cls-13" d="M197.27,194.69l-52.12-4.4c-1.68-.14-3.13.72-3.23,1.93s1.17,2.32,2.84,2.46l49.65,4.17Z"/><polygon class="cls-14" points="196.56 232.44 199.62 197.38 193.08 196.81 189.97 232.44 196.56 232.44"/><polygon class="cls-15" points="193.08 196.81 199.62 197.38 180.46 161.06 174.03 162.04 193.08 196.81"/><polygon class="cls-16" points="145.29 230.08 148.36 195.02 141.82 194.44 138.7 230.08 145.29 230.08"/><polygon class="cls-17" points="141.82 194.44 148.36 195.02 129.19 158.69 122.76 159.68 141.82 194.44"/><path class="cls-18" d="M180.55,161.06,80,152.34c-1.68-.15-3.12.71-3.23,1.92s1.17,2.32,2.85,2.46l96.1,8.34Z"/><polygon class="cls-19" points="4.43 137.98 4.53 136.12 195.7 136.36 195.6 138.22 4.43 137.98"/><polygon class="cls-20" points="4.43 107.66 4.53 105.8 199.74 106.25 199.64 108.11 4.43 107.66"/><polygon class="cls-21" points="4.43 77.19 4.53 75.33 206.31 76.13 206.21 77.99 4.43 77.19"/><polygon class="cls-22" points="97.31 149.5 95.45 149.34 101.97 54.99 103.83 55.15 97.31 149.5"/><polygon class="cls-23" points="80.38 148.2 78.52 148.04 84.86 56.29 86.72 56.45 80.38 148.2"/><polygon class="cls-24" points="65.83 146.35 63.97 146.22 69.06 56.91 70.91 57.05 65.83 146.35"/><polygon class="cls-25" points="180.86 158.79 179.03 158.42 196.62 49.37 198.45 49.74 180.86 158.79"/><polygon class="cls-26" points="166.35 157.52 164.52 157.15 181.7 50.64 183.53 51.01 166.35 157.52"/><polygon class="cls-27" points="151.89 155.97 150.06 155.6 167.01 50.47 168.85 50.84 151.89 155.97"/><polygon class="cls-28" points="137.39 154.64 135.56 154.27 152.02 52.19 153.86 52.56 137.39 154.64"/><polygon class="cls-29" points="122.9 153.26 121.07 152.89 137.18 53.02 139.01 53.39 122.9 153.26"/><polygon class="cls-30" points="111.69 151.85 109.84 151.59 120.88 53.39 122.73 53.65 111.69 151.85"/><polygon class="cls-31" points="15.37 141.36 13.5 141.16 13.5 60.35 15.37 60.35 15.37 141.36"/><polygon class="cls-32" points="28.14 143.41 26.28 143.21 26.28 59.83 28.14 59.83 28.14 143.41"/><polygon class="cls-33" points="40.92 144.2 39.06 143.99 39.06 59.04 40.92 59.04 40.92 144.2"/><polygon class="cls-34" points="52.66 144.94 50.8 144.88 53.07 58.3 54.93 58.36 52.66 144.94"/><path class="cls-12" d="M199.71,233a1.54,1.54,0,0,0-1.53-1.53H11.39A1.54,1.54,0,0,0,9.86,233h0a1.53,1.53,0,0,0,1.53,1.52H198.18a1.53,1.53,0,0,0,1.53-1.52Z"/><path class="cls-35" d="M196.42,229.39a3,3,0,0,1-3,3.05H13.68a3,3,0,0,1-3-3.05h0a3,3,0,0,1,3-3H193.37a3.06,3.06,0,0,1,3,3Z"/><path class="cls-36" d="M43.22,252A14.4,14.4,0,1,0,28.83,266.4,14.4,14.4,0,0,0,43.22,252Z"/><path class="cls-37" d="M37.83,252a9,9,0,1,0-9,9A9,9,0,0,0,37.83,252Z"/><path class="cls-3" d="M36,252a7.19,7.19,0,1,0-7.18,7.18A7.19,7.19,0,0,0,36,252Z"/><path class="cls-38" d="M35.15,252a6.32,6.32,0,1,0-6.32,6.32A6.32,6.32,0,0,0,35.15,252Z"/><path class="cls-39" d="M36.63,236.91A2.68,2.68,0,0,0,33.7,234H28.07c-1.36,0-2.95.29-3,3.14-.07,2.51,2,6.14.44,11.12a5,5,0,0,0-.25.74,3.22,3.22,0,0,0-.18,1.22,1.77,1.77,0,0,0,0,.23c0,2.77,1.95,5,4.34,5a4.38,4.38,0,0,0,4-3.1h0C36,247,36.63,242.82,36.63,236.91Z"/><path class="cls-40" d="M38.75,234.67c0,.79-.41,1.42-.93,1.42h-14c-.51,0-.93-.63-.93-1.42h0c0-.78.42-1.41.93-1.41h14c.52,0,.93.63.93,1.41Z"/><path class="cls-3" d="M38.91,234.4h0a.4.4,0,0,0-.41-.4H23.17a.4.4,0,0,0-.4.4h0c-.23,0-.42.09-.42.21s.19.2.42.2h0a.4.4,0,0,0,.4.4H38.49a.4.4,0,0,0,.41-.4h0c.23,0,.43-.09.43-.2S39.14,234.4,38.91,234.4Z"/><path class="cls-41" d="M202.66,252a14.4,14.4,0,1,0-14.39,14.39A14.4,14.4,0,0,0,202.66,252Z"/><path class="cls-42" d="M197.27,252a9,9,0,1,0-9,9A9,9,0,0,0,197.27,252Z"/><path class="cls-3" d="M195.45,252a7.19,7.19,0,1,0-7.18,7.18A7.18,7.18,0,0,0,195.45,252Z"/><path class="cls-43" d="M194.59,252a6.32,6.32,0,1,0-6.32,6.32A6.32,6.32,0,0,0,194.59,252Z"/><path class="cls-44" d="M196.07,236.91a2.68,2.68,0,0,0-2.93-2.91h-5.63c-1.36,0-2.95.29-3,3.14-.07,2.51,2,6.14.44,11.12a5,5,0,0,0-.25.74,3.22,3.22,0,0,0-.18,1.22,1.77,1.77,0,0,0,0,.23c0,2.77,1.94,5,4.34,5a4.38,4.38,0,0,0,4-3.1h0C195.48,247,196.07,242.82,196.07,236.91Z"/><path class="cls-45" d="M198.19,234.67c0,.79-.41,1.42-.93,1.42h-14c-.51,0-.93-.63-.93-1.42h0c0-.78.42-1.41.93-1.41h14c.52,0,.93.63.93,1.41Z"/><path class="cls-3" d="M198.35,234.4h0a.41.41,0,0,0-.41-.4H182.61a.4.4,0,0,0-.4.4h0c-.23,0-.42.09-.42.21s.19.2.42.2h0a.4.4,0,0,0,.4.4h15.32a.41.41,0,0,0,.41-.4h0c.23,0,.43-.09.43-.2S198.58,234.4,198.35,234.4Z"/><path class="cls-46" d="M209.11,46l-.35,2.13L6,59.8a1.61,1.61,0,0,0-1.63,1.62L4,139.53a1.89,1.89,0,0,0,1.8,2.09L191.38,161v-.1l.5.11L211,46ZM190.35,158.78,5.91,139.53l.33-77.66L208.41,50.2Z"/><path class="cls-47" d="M193.9,161.36l-3.4-.62s18.29-101.26,24.38-135c1.78-10.49,12.69-9.61,12.69-9.61V19s-7.45-1.2-9.21,7C212.24,59.91,193.9,161.36,193.9,161.36Z"/><polygon class="cls-48" points="4.42 80.18 4.52 78.31 205.19 79.06 205.09 80.92 4.42 80.18"/><polygon class="cls-49" points="4.42 110.64 4.52 108.78 199.73 109.24 199.63 111.09 4.42 110.64"/><polygon class="cls-50" points="4.42 140.96 4.51 139.1 195.69 139.34 195.59 141.2 4.42 140.96"/><path class="cls-3" d="M249.36,4.59c1.46,3.41.68,7-1.74,8.05l-17.74,7.57c-2.42,1-5.56-.89-7-4.31h0c-1.46-3.41-.68-7,1.74-8L242.34.28c2.42-1,5.56.89,7,4.31Z"/><path class="cls-51" d="M246.09,6.17a2,2,0,1,1-2-2A2,2,0,0,1,246.09,6.17Z"/><rect class="cls-52" x="2.09" y="59.83" width="15.8" height="13.38" rx="2.53" ry="2.53"/><path class="cls-3" d="M19.35,60.35a1.59,1.59,0,0,1-1.59,1.59H1.59A1.59,1.59,0,0,1,0,60.35H0a1.59,1.59,0,0,1,1.59-1.59H17.76a1.59,1.59,0,0,1,1.59,1.59Z"/><path class="cls-3" d="M211,80.74a5.42,5.42,0,0,1-5.41,5.42H112.94a5.42,5.42,0,0,1-5.41-5.42h0a5.41,5.41,0,0,1,5.41-5.41H205.6A5.42,5.42,0,0,1,211,80.74Z"/></g></g></svg>