<svg xmlns="http://www.w3.org/2000/svg" xmlns:xlink="http://www.w3.org/1999/xlink" viewBox="0 0 246.18 103.28"><defs><style>.cls-1{isolation:isolate;}.cls-2{fill:#bccedd;}.cls-13,.cls-15,.cls-17,.cls-27,.cls-28,.cls-29,.cls-3,.cls-34,.cls-36,.cls-37,.cls-38,.cls-45,.cls-51,.cls-9{mix-blend-mode:multiply;}.cls-3{fill:url(#Безымянный_градиент_9);}.cls-4{fill:#fff;}.cls-5{fill:#34495e;}.cls-6{fill:#48647c;}.cls-7{fill:#d1d3d4;}.cls-8{fill:#939598;}.cls-9{fill:url(#Безымянный_градиент_9-2);}.cls-10{fill:#e6eff4;}.cls-11{fill:#c5cfd3;}.cls-12{fill:#989a9d;}.cls-13{fill:url(#Безымянный_градиент_9-3);}.cls-14{fill:#90a4ae;}.cls-15{fill:url(#Безымянный_градиент_9-4);}.cls-16{fill:#d9e1e8;}.cls-17{fill:url(#Безымянный_градиент_9-5);}.cls-18{fill:#787f88;}.cls-19{fill:#476481;}.cls-20{fill:#c5c9cd;}.cls-21{fill:#dee1e3;}.cls-22{fill:#c3c3c3;mix-blend-mode:overlay;}.cls-23{fill:#b1b1b2;}.cls-24{fill:#e2e6e8;}.cls-25{fill:#68787a;}.cls-26{fill:#3a5266;}.cls-27{fill:url(#Безымянный_градиент_7);}.cls-28{fill:url(#Безымянный_градиент_9-6);}.cls-29{fill:url(#Безымянный_градиент_9-7);}.cls-30{fill:#2c3e50;}.cls-31{fill:#95a5a6;}.cls-32{fill:#ce1b31;}.cls-33{fill:#283a49;}.cls-34{fill:url(#Безымянный_градиент_9-8);}.cls-35{fill:#b5c0c6;}.cls-36{fill:url(#Безымянный_градиент_9-9);}.cls-37{fill:url(#Безымянный_градиент_9-10);}.cls-38{fill:url(#Безымянный_градиент_9-11);}.cls-39{fill:#bfe3e8;}.cls-40{fill:#2a445d;}.cls-41{fill:#355168;}.cls-42{fill:#39e69e;}.cls-43{fill:#b6e7f2;}.cls-44{fill:#7ebfce;}.cls-45{fill:url(#Безымянный_градиент_9-12);}.cls-46{fill:#d13f4a;}.cls-47{fill:#7c8a98;}.cls-48{fill:#6c7a88;}.cls-49{fill:#4d5a68;}.cls-50{fill:#2c3a48;opacity:0.46;}.cls-51{opacity:0.6;fill:url(#Безымянный_градиент_9-13);}.cls-52{fill:#14b0bf;}</style><radialGradient id="Безымянный_градиент_9" cx="286.42" cy="-222.84" r="25.15" gradientTransform="translate(-20.89 113.88) scale(0.84 0.1)" gradientUnits="userSpaceOnUse"><stop offset="0" stop-color="#9eadb8"/><stop offset="1" stop-color="#fff"/></radialGradient><radialGradient id="Безымянный_градиент_9-2" cx="503.43" cy="-204.96" r="25.74" gradientTransform="translate(-15.38 113.88) scale(0.4 0.1)" xlink:href="#Безымянный_градиент_9"/><radialGradient id="Безымянный_градиент_9-3" cx="718.6" cy="-540.49" r="25.74" gradientTransform="translate(-69.79 100.87) scale(0.35 0.1)" xlink:href="#Безымянный_градиент_9"/><radialGradient id="Безымянный_градиент_9-4" cx="75.57" cy="-338.32" r="19.96" gradientTransform="translate(-20.6 113.88) scale(0.53 0.1)" xlink:href="#Безымянный_градиент_9"/><radialGradient id="Безымянный_градиент_9-5" cx="216.77" cy="-673.39" r="25.74" gradientTransform="translate(-15.38 113.88) scale(0.4 0.1)" xlink:href="#Безымянный_градиент_9"/><radialGradient id="Безымянный_градиент_7" cx="142.27" cy="-607.63" r="33.74" gradientTransform="translate(-9.86 90.44) scale(1.08 0.06)" gradientUnits="userSpaceOnUse"><stop offset="0" stop-color="#cfcfcf"/><stop offset="1" stop-color="#fff"/></radialGradient><radialGradient id="Безымянный_градиент_9-6" cx="254.96" cy="-22.11" r="25.74" gradientTransform="translate(7.94 100.87) scale(0.42 0.1)" xlink:href="#Безымянный_градиент_9"/><radialGradient id="Безымянный_градиент_9-7" cx="67.97" cy="-23.1" r="25.74" gradientTransform="translate(7.94 100.87) scale(0.42 0.1)" xlink:href="#Безымянный_градиент_9"/><radialGradient id="Безымянный_градиент_9-8" cx="71.94" cy="-136.85" r="31.88" gradientTransform="translate(-9.53 113.88) scale(1.2 0.1)" xlink:href="#Безымянный_градиент_9"/><radialGradient id="Безымянный_градиент_9-9" cx="143.32" cy="-209.49" r="26.6" gradientTransform="translate(0 113.88) scale(1 0.1)" xlink:href="#Безымянный_градиент_9"/><radialGradient id="Безымянный_градиент_9-10" cx="481.74" cy="-545.63" r="25.74" gradientTransform="translate(-69.79 100.87) scale(0.35 0.1)" xlink:href="#Безымянный_градиент_9"/><radialGradient id="Безымянный_градиент_9-11" cx="-16.4" cy="-578.14" r="23.78" gradientTransform="translate(54.48 100.87) scale(1.02 0.1)" xlink:href="#Безымянный_градиент_9"/><radialGradient id="Безымянный_градиент_9-12" cx="298.73" cy="-673.41" r="31.07" gradientTransform="matrix(0.81, 0, 0, 0.16, -22.1, 143.14)" xlink:href="#Безымянный_градиент_9"/><radialGradient id="Безымянный_градиент_9-13" cx="404.93" cy="55.07" r="28.52" gradientTransform="matrix(0.62, 0.11, -0.02, 0.1, -46.41, 35.37)" xlink:href="#Безымянный_градиент_9"/></defs><title>Ресурс 3</title><g class="cls-1"><g id="Слой_2" data-name="Слой 2"><g id="_1" data-name="1"><g id="_3" data-name="3"><g id="_2" data-name="2"><g id="_1-2" data-name="1"><path class="cls-2" d="M219.5,96h-3a.5.5,0,0,1-.5-.5.5.5,0,0,1,.5-.5h3a.5.5,0,0,1,.5.5A.5.5,0,0,1,219.5,96Zm-6,0h-3a.5.5,0,0,1-.5-.5.5.5,0,0,1,.5-.5h3a.5.5,0,0,1,.5.5A.5.5,0,0,1,213.5,96Zm-6,0h-3a.5.5,0,0,1-.5-.5.5.5,0,0,1,.5-.5h3a.5.5,0,0,1,.5.5A.5.5,0,0,1,207.5,96Zm-6,0h-3a.5.5,0,0,1-.5-.5.5.5,0,0,1,.5-.5h3a.5.5,0,0,1,.5.5A.5.5,0,0,1,201.5,96Zm-6,0h-3a.5.5,0,0,1-.5-.5.5.5,0,0,1,.5-.5h3a.5.5,0,0,1,.5.5A.5.5,0,0,1,195.5,96Zm-6,0h-3a.5.5,0,0,1-.5-.5.5.5,0,0,1,.5-.5h3a.5.5,0,0,1,.5.5A.5.5,0,0,1,189.5,96Zm-6,0h-3a.5.5,0,0,1-.5-.5.5.5,0,0,1,.5-.5h3a.5.5,0,0,1,.5.5A.5.5,0,0,1,183.5,96Zm-6,0h-3a.5.5,0,0,1-.5-.5.5.5,0,0,1,.5-.5h3a.5.5,0,0,1,.5.5A.5.5,0,0,1,177.5,96Zm-6,0h-3a.5.5,0,0,1-.5-.5.5.5,0,0,1,.5-.5h3a.5.5,0,0,1,.5.5A.5.5,0,0,1,171.5,96Zm-6,0h-3a.5.5,0,0,1-.5-.5.5.5,0,0,1,.5-.5h3a.5.5,0,0,1,.5.5A.5.5,0,0,1,165.5,96Zm-6,0h-3a.5.5,0,0,1-.5-.5.5.5,0,0,1,.5-.5h3a.5.5,0,0,1,.5.5A.5.5,0,0,1,159.5,96Zm-6,0h-3a.5.5,0,0,1-.5-.5.5.5,0,0,1,.5-.5h3a.5.5,0,0,1,.5.5A.5.5,0,0,1,153.5,96Zm-6,0h-3a.5.5,0,0,1-.5-.5.5.5,0,0,1,.5-.5h3a.5.5,0,0,1,.5.5A.5.5,0,0,1,147.5,96Zm-6,0h-3a.5.5,0,0,1-.5-.5.5.5,0,0,1,.5-.5h3a.5.5,0,0,1,.5.5A.5.5,0,0,1,141.5,96Zm-6,0h-3a.5.5,0,0,1-.5-.5.5.5,0,0,1,.5-.5h3a.5.5,0,0,1,.5.5A.5.5,0,0,1,135.5,96Zm-6,0h-3a.5.5,0,0,1-.5-.5.5.5,0,0,1,.5-.5h3a.5.5,0,0,1,.5.5A.5.5,0,0,1,129.5,96Zm-6,0h-3a.5.5,0,0,1-.5-.5.5.5,0,0,1,.5-.5h3a.5.5,0,0,1,.5.5A.5.5,0,0,1,123.5,96Zm-6,0h-3a.5.5,0,0,1-.5-.5.5.5,0,0,1,.5-.5h3a.5.5,0,0,1,.5.5A.5.5,0,0,1,117.5,96Zm-6,0h-3a.5.5,0,0,1-.5-.5.5.5,0,0,1,.5-.5h3a.5.5,0,0,1,.5.5A.5.5,0,0,1,111.5,96Zm-6,0h-3a.5.5,0,0,1-.5-.5.5.5,0,0,1,.5-.5h3a.5.5,0,0,1,.5.5A.5.5,0,0,1,105.5,96Zm-6,0h-3a.5.5,0,0,1-.5-.5.5.5,0,0,1,.5-.5h3a.5.5,0,0,1,.5.5A.5.5,0,0,1,99.5,96Zm-6,0h-3a.5.5,0,0,1-.5-.5.5.5,0,0,1,.5-.5h3a.5.5,0,0,1,.5.5A.5.5,0,0,1,93.5,96Zm-6,0h-3a.5.5,0,0,1-.5-.5.5.5,0,0,1,.5-.5h3a.5.5,0,0,1,.5.5A.5.5,0,0,1,87.5,96Zm-6,0h-3a.5.5,0,0,1-.5-.5.5.5,0,0,1,.5-.5h3a.5.5,0,0,1,.5.5A.5.5,0,0,1,81.5,96Zm-6,0h-3a.5.5,0,0,1-.5-.5.5.5,0,0,1,.5-.5h3a.5.5,0,0,1,.5.5A.5.5,0,0,1,75.5,96Zm-6,0h-3a.5.5,0,0,1-.5-.5.5.5,0,0,1,.5-.5h3a.5.5,0,0,1,.5.5A.5.5,0,0,1,69.5,96Zm-6,0h-3a.5.5,0,0,1-.5-.5.5.5,0,0,1,.5-.5h3a.5.5,0,0,1,.5.5A.5.5,0,0,1,63.5,96Zm-6,0h-3a.5.5,0,0,1-.5-.5.5.5,0,0,1,.5-.5h3a.5.5,0,0,1,.5.5A.5.5,0,0,1,57.5,96Zm-6,0h-3a.5.5,0,0,1-.5-.5.5.5,0,0,1,.5-.5h3a.5.5,0,0,1,.5.5A.5.5,0,0,1,51.5,96Zm-6,0h-3a.5.5,0,0,1-.5-.5.5.5,0,0,1,.5-.5h3a.5.5,0,0,1,.5.5A.5.5,0,0,1,45.5,96Zm-6,0h-3a.5.5,0,0,1-.5-.5.5.5,0,0,1,.5-.5h3a.5.5,0,0,1,.5.5A.5.5,0,0,1,39.5,96Zm-6,0h-3a.5.5,0,0,1-.5-.5.5.5,0,0,1,.5-.5h3a.5.5,0,0,1,.5.5A.5.5,0,0,1,33.5,96Zm-6,0h-3a.5.5,0,0,1-.5-.5.5.5,0,0,1,.5-.5h3a.5.5,0,0,1,.5.5A.5.5,0,0,1,27.5,96Zm-6,0h-3a.5.5,0,0,1-.5-.5.5.5,0,0,1,.5-.5h3a.5.5,0,0,1,.5.5A.5.5,0,0,1,21.5,96Zm-6,0h-3a.5.5,0,0,1-.5-.5.5.5,0,0,1,.5-.5h3a.5.5,0,0,1,.5.5A.5.5,0,0,1,15.5,96Zm-6,0h-3a.5.5,0,0,1-.5-.5.5.5,0,0,1,.5-.5h3a.5.5,0,0,1,.5.5A.5.5,0,0,1,9.5,96Zm-6,0H.5a.5.5,0,0,1-.5-.5A.5.5,0,0,1,.5,95h3a.5.5,0,0,1,.5.5A.5.5,0,0,1,3.5,96Zm219,0a.5.5,0,0,1,0-1,2.48,2.48,0,0,0,2.07-1.2.5.5,0,1,1,.85.52,3.47,3.47,0,0,1-2.9,1.68Zm3.11-4.35h-.06a.5.5,0,0,1-.44-.55c.12-1,.21-2,.27-3a.48.48,0,0,1,.53-.47.5.5,0,0,1,.46.53c-.06.94-.15,2-.27,3A.49.49,0,0,1,225.61,91.69Zm.35-6a.51.51,0,0,1-.5-.49,12.88,12.88,0,0,0-.3-2.86.5.5,0,0,1,1-.25,13.8,13.8,0,0,1,.33,3.09.49.49,0,0,1-.49.51ZM4.53,81.37H4.37a.5.5,0,0,1-.48-.52.54.54,0,0,1,.52-.48h.11l2.87,0h0a.5.5,0,1,1,0,1Zm5.87-.06a.51.51,0,0,1-.5-.5.5.5,0,0,1,.5-.5l3,0h0a.5.5,0,0,1,0,1l-3,0Zm6,0a.5.5,0,0,1-.5-.5.49.49,0,0,1,.49-.5l3,0h0a.5.5,0,0,1,0,1l-3,0Zm6-.06a.5.5,0,1,1,0-1l3,0h0a.5.5,0,1,1,0,1l-3,0Zm6,0a.5.5,0,0,1-.5-.49.51.51,0,0,1,.5-.51l3,0a.46.46,0,0,1,.5.49.5.5,0,0,1-.49.51l-3,0Zm195.1,0h0c-.72-.06-1.72-.12-3-.18a.5.5,0,0,1-.48-.52.48.48,0,0,1,.53-.47c1.26.05,2.28.11,3,.18a.5.5,0,0,1-.05,1Zm-189.09,0a.49.49,0,0,1-.5-.49.51.51,0,0,1,.49-.51l3,0h0a.49.49,0,0,1,.5.49.5.5,0,0,1-.5.51l-3,0Zm6,0a.5.5,0,1,1,0-1l3,0h0a.5.5,0,0,1,0,1l-3,0Zm6,0a.5.5,0,0,1,0-1l3,0h0a.51.51,0,0,1,.5.5.5.5,0,0,1-.5.5l-3,0Zm6-.05a.51.51,0,0,1-.5-.5.5.5,0,0,1,.5-.5l3,0a.49.49,0,0,1,.5.49.5.5,0,0,1-.49.51l-3,0Zm6,0a.5.5,0,0,1,0-1l3,0h0a.5.5,0,0,1,.5.5.5.5,0,0,1-.5.5l-3,0Zm6,0a.49.49,0,0,1-.5-.49.5.5,0,0,1,.5-.51l3,0h0a.5.5,0,0,1,.5.5.5.5,0,0,1-.5.5l-3,0Zm153.07,0h0l-3-.08a.5.5,0,0,1-.49-.51.51.51,0,0,1,.51-.49l3,.08a.5.5,0,0,1,0,1Zm-147.07,0a.51.51,0,0,1-.5-.5.5.5,0,0,1,.5-.5l3,0h0a.51.51,0,0,1,.5.5.5.5,0,0,1-.5.5l-3,0Zm6,0a.5.5,0,0,1,0-1l2.92,0,.09.5-.08.5-2.92,0Zm6,0a.5.5,0,0,1,0-1l3,0h0a.5.5,0,0,1,0,1l-3,0Zm6,0a.51.51,0,0,1-.5-.5.5.5,0,0,1,.5-.5l3,0a.54.54,0,0,1,.51.5.5.5,0,0,1-.5.5l-3,0Zm123.06,0h0l-3,0a.5.5,0,0,1,0-1h0l3,0a.5.5,0,0,1,0,1Zm-117,0a.5.5,0,0,1,0-1l3,0a.51.51,0,0,1,.5.5.5.5,0,0,1-.5.5l-3,0Zm6,0a.5.5,0,0,1,0-1h3l0,.5v.5Zm105.05,0h0l-3,0a.5.5,0,0,1,0-1h0l3,0a.5.5,0,0,1,0,1Zm-99,0a.5.5,0,0,1,0-1l3,0h0a.51.51,0,0,1,.5.5.5.5,0,0,1-.5.5l-3,0Zm6,0a.51.51,0,0,1-.5-.5.5.5,0,0,1,.5-.5l3,0h0a.5.5,0,0,1,.5.5.5.5,0,0,1-.5.5l-3,0Zm6,0a.5.5,0,0,1,0-1h3a.5.5,0,0,1,.5.5.5.5,0,0,1-.5.5Zm81,0h0l-3,0a.5.5,0,0,1,0-1h0l3,0a.5.5,0,0,1,.5.5A.51.51,0,0,1,199.53,80.55Zm-75,0A.49.49,0,0,1,124,80a.51.51,0,0,1,.5-.51h3a.48.48,0,0,1,.5.5.5.5,0,0,1-.5.5Zm69,0h0l-3,0a.5.5,0,0,1-.5-.5.51.51,0,0,1,.5-.5h0l3,0a.5.5,0,0,1,0,1Zm-63,0a.5.5,0,0,1-.5-.5.51.51,0,0,1,.5-.5h3a.5.5,0,0,1,0,1h-3Zm6,0a.5.5,0,0,1-.5-.5.5.5,0,0,1,.5-.5h3a.5.5,0,0,1,.5.5.5.5,0,0,1-.5.5Zm51,0h-3a.5.5,0,0,1,0-1h3a.5.5,0,0,1,0,1Zm-45,0a.5.5,0,0,1-.5-.5.5.5,0,0,1,.5-.5h3a.5.5,0,0,1,.5.5.5.5,0,0,1-.5.5Zm6,0a.5.5,0,0,1,0-1h3a.52.52,0,0,1,.51.5.48.48,0,0,1-.48.5Zm33,0h-3a.5.5,0,0,1-.5-.5.5.5,0,0,1,.5-.5h3a.5.5,0,0,1,.5.5A.51.51,0,0,1,181.52,80.45Zm-27,0a.5.5,0,0,1-.5-.5.5.5,0,0,1,.5-.5h3a.51.51,0,0,1,.51.5.49.49,0,0,1-.49.5Zm21,0h-3a.5.5,0,0,1,0-1h3a.52.52,0,0,1,.5.51A.5.5,0,0,1,175.52,80.43Zm-15,0,0-1h3a.5.5,0,0,1,0,1Zm9,0h-3a.51.51,0,0,1-.5-.5.5.5,0,0,1,.5-.5h3a.5.5,0,0,1,0,1ZM1.92,79.89a.49.49,0,0,1-.43-.24A3.48,3.48,0,0,1,1,77.87v-1.4a.5.5,0,0,1,1,0v1.4a2.45,2.45,0,0,0,.35,1.27.49.49,0,0,1-.18.68A.45.45,0,0,1,1.92,79.89ZM1.5,74a.5.5,0,0,1-.5-.5v-3a.5.5,0,0,1,1,0v3A.5.5,0,0,1,1.5,74Zm.05-6H1.46a.49.49,0,0,1-.4-.58,3.44,3.44,0,0,1,2.11-2.6.49.49,0,0,1,.65.27.49.49,0,0,1-.27.65A2.51,2.51,0,0,0,2,67.56.49.49,0,0,1,1.55,68Zm175.91-2.45a.58.58,0,0,1-.19,0,15.32,15.32,0,0,0-2.82-.22.51.51,0,0,1-.48-.52.48.48,0,0,1,.52-.48,13.23,13.23,0,0,1,3.16.29.5.5,0,0,1,.27.66A.51.51,0,0,1,177.46,65.52ZM6.34,65.5a.5.5,0,0,1,0-1l3,0a.46.46,0,0,1,.5.49.5.5,0,0,1-.49.51l-3,0Zm6,0a.5.5,0,0,1-.5-.49.51.51,0,0,1,.5-.51l3,0h0a.5.5,0,0,1,0,1l-3,0Zm6,0a.5.5,0,0,1-.5-.5.5.5,0,0,1,.5-.5l3,0h0a.5.5,0,0,1,.5.5.49.49,0,0,1-.49.5l-3,0Zm6,0a.49.49,0,0,1-.5-.49.51.51,0,0,1,.49-.51l3,0h0a.5.5,0,1,1,0,1l-3,0Zm6,0a.51.51,0,0,1-.5-.5.5.5,0,0,1,.5-.5l3,0h0a.51.51,0,0,1,.5.5.5.5,0,0,1-.5.5l-3,0Zm6,0a.5.5,0,1,1,0-1l3,0h0a.49.49,0,0,1,.5.49.51.51,0,0,1-.49.51l-3,0Zm6,0a.51.51,0,0,1-.5-.5.5.5,0,0,1,.5-.5l3,0h0a.5.5,0,1,1,0,1l-3,0Zm6,0a.5.5,0,0,1,0-1l3,0h0a.5.5,0,0,1,0,1l-3,0Zm6,0a.51.51,0,0,1-.5-.5.5.5,0,0,1,.5-.5l3,0h0a.51.51,0,0,1,.5.5.5.5,0,0,1-.5.5l-3,0Zm117.08,0h0l-3-.07a.49.49,0,0,1-.49-.51.5.5,0,0,1,.5-.49h0l3,.07a.49.49,0,0,1,.49.51A.51.51,0,0,1,171.47,65.16Zm-111.07,0a.5.5,0,0,1-.5-.5.49.49,0,0,1,.49-.5l3,0h0a.5.5,0,1,1,0,1l-3,0Zm6,0a.5.5,0,0,1,0-1l3,0h0a.5.5,0,0,1,.5.5.49.49,0,0,1-.49.5l-3,0Zm6,0a.51.51,0,0,1-.52-.5.48.48,0,0,1,.47-.5l3,0h0a.5.5,0,0,1,.5.5.5.5,0,0,1-.5.5l-3,0Zm93,0h0l-3,0a.5.5,0,1,1,0-1l3,0a.5.5,0,1,1,0,1ZM78.41,65a.5.5,0,0,1,0-1l3,0h0a.5.5,0,0,1,.5.5.49.49,0,0,1-.49.5l-3,0Zm6,0a.5.5,0,0,1,0-1h3a.51.51,0,0,1,.5.49.52.52,0,0,1-.5.51h-3Zm75.06,0h0l-3,0a.5.5,0,0,1,0-1h0l3,0a.5.5,0,0,1,.49.51A.49.49,0,0,1,159.46,65ZM90.41,65a.5.5,0,0,1-.5-.5.5.5,0,0,1,.5-.5h3a.5.5,0,0,1,0,1Zm6,0a.5.5,0,0,1-.5-.5.5.5,0,0,1,.5-.5h3a.5.5,0,0,1,.5.5.5.5,0,0,1-.5.5Zm57,0h0l-3,0a.5.5,0,0,1-.5-.5.5.5,0,0,1,.5-.5h0l3,0a.5.5,0,0,1,.5.5A.5.5,0,0,1,153.46,64.93Zm-51,0a.5.5,0,0,1-.5-.5.49.49,0,0,1,.49-.5h3a.5.5,0,0,1,0,1Zm6,0a.5.5,0,0,1,0-1h3a.5.5,0,1,1,0,1Zm39,0h-3a.5.5,0,0,1,0-1h3a.5.5,0,0,1,0,1Zm-33,0a.5.5,0,0,1-.5-.49.52.52,0,0,1,.5-.51h3a.5.5,0,0,1,0,1Zm27,0h-3a.5.5,0,0,1,0-1h3a.52.52,0,0,1,.5.51A.5.5,0,0,1,141.46,64.88Zm-21,0a.5.5,0,0,1-.5-.5.5.5,0,0,1,.5-.5h3a.5.5,0,0,1,.51.5.49.49,0,0,1-.49.5Zm15,0h-3a.51.51,0,0,1-.5-.5.5.5,0,0,1,.5-.5h3a.49.49,0,0,1,.49.5A.5.5,0,0,1,135.45,64.88Zm-9,0v-1h3a.5.5,0,0,1,.5.5.5.5,0,0,1-.5.5h-3Zm51.71-1.79a.5.5,0,0,1-.5-.5c0-.79,0-1.79-.11-3a.5.5,0,0,1,.47-.52.47.47,0,0,1,.53.47c.07,1.19.11,2.21.11,3A.5.5,0,0,1,178.17,63.09Zm-.83-6.45.5,0-.5,0,0-.28c0-.1,0-.2,0-.3a3.49,3.49,0,0,1,1.09-2.54.5.5,0,0,1,.71,0,.51.51,0,0,1,0,.71,2.49,2.49,0,0,0-.78,1.81,1.7,1.7,0,0,0,0,.22l0,.27ZM236,53.54h-.47a.5.5,0,0,1-.5-.5.5.5,0,0,1,.5-.5H236a2.52,2.52,0,0,0,1.87-.83.5.5,0,1,1,.74.66A3.47,3.47,0,0,1,236,53.54Zm-3.47,0h-3a.5.5,0,0,1-.5-.5.5.5,0,0,1,.5-.5h3a.5.5,0,0,1,.5.5A.5.5,0,0,1,232.53,53.54Zm-6,0h-3a.5.5,0,0,1-.5-.5.5.5,0,0,1,.5-.5h3a.5.5,0,0,1,.5.5A.5.5,0,0,1,226.53,53.54Zm-6,0h-3a.5.5,0,0,1-.5-.5.5.5,0,0,1,.5-.5h3a.5.5,0,0,1,.5.5A.5.5,0,0,1,220.53,53.54Zm-6,0h-3a.5.5,0,0,1-.5-.5.5.5,0,0,1,.5-.5h3a.5.5,0,0,1,.5.5A.5.5,0,0,1,214.53,53.54Zm-6,0h-3a.5.5,0,0,1-.5-.5.5.5,0,0,1,.5-.5h3a.5.5,0,0,1,.5.5A.5.5,0,0,1,208.53,53.54Zm-6,0h-3a.5.5,0,0,1-.5-.5.5.5,0,0,1,.5-.5h3a.5.5,0,0,1,.5.5A.5.5,0,0,1,202.53,53.54Zm-6,0h-3a.5.5,0,0,1-.5-.5.5.5,0,0,1,.5-.5h3a.5.5,0,0,1,.5.5A.5.5,0,0,1,196.53,53.54Zm-6,0h-3a.5.5,0,0,1-.5-.5.5.5,0,0,1,.5-.5h3a.5.5,0,0,1,.5.5A.5.5,0,0,1,190.53,53.54Zm-6,0h-3a.5.5,0,0,1-.5-.5.5.5,0,0,1,.5-.5h3a.5.5,0,0,1,.5.5A.5.5,0,0,1,184.53,53.54ZM239,49.73a.5.5,0,0,1-.5-.5v-3a.5.5,0,0,1,1,0v3A.5.5,0,0,1,239,49.73Zm0-6a.5.5,0,0,1-.5-.5V41a2.52,2.52,0,0,0-.09-.67.5.5,0,0,1,1-.27,3.33,3.33,0,0,1,.13.94v2.19A.5.5,0,0,1,239,43.73Zm-2.11-5.06a.39.39,0,0,1-.15,0,2.65,2.65,0,0,0-.74-.11h-2.1a.5.5,0,0,1-.5-.5.5.5,0,0,1,.5-.5H236a3.26,3.26,0,0,1,1,.16.49.49,0,0,1,.33.62A.48.48,0,0,1,236.89,38.67Zm-6-.13h-3a.5.5,0,0,1-.5-.5.5.5,0,0,1,.5-.5h3a.5.5,0,0,1,.5.5A.5.5,0,0,1,230.9,38.54Zm-6,0h-3a.5.5,0,0,1-.5-.5.5.5,0,0,1,.5-.5h3a.5.5,0,0,1,.5.5A.5.5,0,0,1,224.9,38.54Zm-6,0h-3a.5.5,0,0,1-.5-.5.5.5,0,0,1,.5-.5h3a.5.5,0,0,1,.5.5A.5.5,0,0,1,218.9,38.54Zm-6,0h-3a.5.5,0,0,1-.5-.5.5.5,0,0,1,.5-.5h3a.5.5,0,0,1,.5.5A.5.5,0,0,1,212.9,38.54Zm-6,0h-3a.5.5,0,0,1-.5-.5.5.5,0,0,1,.5-.5h3a.5.5,0,0,1,.5.5A.5.5,0,0,1,206.9,38.54Zm-6,0h-3a.5.5,0,0,1-.5-.5.5.5,0,0,1,.5-.5h3a.5.5,0,0,1,.5.5A.5.5,0,0,1,200.9,38.54Zm-6,0h-3a.5.5,0,0,1-.5-.5.5.5,0,0,1,.5-.5h3a.5.5,0,0,1,.5.5A.5.5,0,0,1,194.9,38.54Zm-6,0h-3a.5.5,0,0,1-.5-.5.5.5,0,0,1,.5-.5h3a.5.5,0,0,1,.5.5A.5.5,0,0,1,188.9,38.54Zm-6,0h-3a.5.5,0,0,1-.5-.5.5.5,0,0,1,.5-.5h3a.5.5,0,0,1,.5.5A.5.5,0,0,1,182.9,38.54Zm-6,0h-3a.5.5,0,0,1-.5-.5.5.5,0,0,1,.5-.5h3a.5.5,0,0,1,.5.5A.5.5,0,0,1,176.9,38.54Zm-6,0h-3a.5.5,0,0,1-.5-.5.5.5,0,0,1,.5-.5h3a.5.5,0,0,1,.5.5A.5.5,0,0,1,170.9,38.54Zm-6,0h-3a.5.5,0,0,1-.5-.5.5.5,0,0,1,.5-.5h3a.5.5,0,0,1,.5.5A.5.5,0,0,1,164.9,38.54Zm-6,0h-3a.5.5,0,0,1-.5-.5.5.5,0,0,1,.5-.5h3a.5.5,0,0,1,.5.5A.5.5,0,0,1,158.9,38.54Zm-6,0h-3a.5.5,0,0,1-.5-.5.5.5,0,0,1,.5-.5h3a.5.5,0,0,1,.5.5A.5.5,0,0,1,152.9,38.54Zm-6,0h-3a.5.5,0,0,1-.5-.5.5.5,0,0,1,.5-.5h3a.5.5,0,0,1,.5.5A.5.5,0,0,1,146.9,38.54Zm-6,0h-3a.5.5,0,0,1-.5-.5.5.5,0,0,1,.5-.5h3a.5.5,0,0,1,.5.5A.5.5,0,0,1,140.9,38.54Zm-6,0h-3a.5.5,0,0,1-.5-.5.5.5,0,0,1,.5-.5h3a.5.5,0,0,1,.5.5A.5.5,0,0,1,134.9,38.54Zm-6,0h-3a.5.5,0,0,1-.5-.5.5.5,0,0,1,.5-.5h3a.5.5,0,0,1,.5.5A.5.5,0,0,1,128.9,38.54Zm-6,0h-3a.5.5,0,0,1-.5-.5.5.5,0,0,1,.5-.5h3a.5.5,0,0,1,.5.5A.5.5,0,0,1,122.9,38.54Zm-6,0h-3a.5.5,0,0,1-.5-.5.5.5,0,0,1,.5-.5h3a.5.5,0,0,1,.5.5A.5.5,0,0,1,116.9,38.54Zm-6,0h-3a.5.5,0,0,1-.5-.5.5.5,0,0,1,.5-.5h3a.5.5,0,0,1,.5.5A.5.5,0,0,1,110.9,38.54Zm-6,0h-3a.5.5,0,0,1-.5-.5.5.5,0,0,1,.5-.5h3a.5.5,0,0,1,.5.5A.5.5,0,0,1,104.9,38.54Zm-6,0h-3a.5.5,0,0,1-.5-.5.5.5,0,0,1,.5-.5h3a.5.5,0,0,1,.5.5A.5.5,0,0,1,98.9,38.54Zm-6,0h-3a.5.5,0,0,1-.5-.5.5.5,0,0,1,.5-.5h3a.5.5,0,0,1,.5.5A.5.5,0,0,1,92.9,38.54Zm-6,0h-3a.5.5,0,0,1-.5-.5.5.5,0,0,1,.5-.5h3a.5.5,0,0,1,.5.5A.5.5,0,0,1,86.9,38.54Zm-6,0h-3a.5.5,0,0,1-.5-.5.5.5,0,0,1,.5-.5h3a.5.5,0,0,1,.5.5A.5.5,0,0,1,80.9,38.54Zm-6,0h-3a.5.5,0,0,1-.5-.5.5.5,0,0,1,.5-.5h3a.5.5,0,0,1,.5.5A.5.5,0,0,1,74.9,38.54Zm-6,0h-3a.5.5,0,0,1-.5-.5.5.5,0,0,1,.5-.5h3a.5.5,0,0,1,.5.5A.5.5,0,0,1,68.9,38.54Zm-6,0h-3a.5.5,0,0,1-.5-.5.5.5,0,0,1,.5-.5h3a.5.5,0,0,1,.5.5A.5.5,0,0,1,62.9,38.54Zm-6,0h-3a.5.5,0,0,1-.5-.5.5.5,0,0,1,.5-.5h3a.5.5,0,0,1,.5.5A.5.5,0,0,1,56.9,38.54Zm-6,0h-3a.5.5,0,0,1-.5-.5.5.5,0,0,1,.5-.5h3a.5.5,0,0,1,.5.5A.5.5,0,0,1,50.9,38.54Zm-6,0h-3a.5.5,0,0,1-.5-.5.5.5,0,0,1,.5-.5h3a.5.5,0,0,1,.5.5A.5.5,0,0,1,44.9,38.54Zm-6,0h-3a.5.5,0,0,1-.5-.5.5.5,0,0,1,.5-.5h3a.5.5,0,0,1,.5.5A.5.5,0,0,1,38.9,38.54Zm-6,0h-3a.5.5,0,0,1-.5-.5.5.5,0,0,1,.5-.5h3a.5.5,0,0,1,.5.5A.5.5,0,0,1,32.9,38.54Zm-6,0h-3a.5.5,0,0,1-.5-.5.5.5,0,0,1,.5-.5h3a.5.5,0,0,1,.5.5A.5.5,0,0,1,26.9,38.54Zm-6,0h-3a.5.5,0,0,1-.5-.5.5.5,0,0,1,.5-.5h3a.5.5,0,0,1,.5.5A.5.5,0,0,1,20.9,38.54Zm-6,0h-3a.5.5,0,0,1-.5-.5.5.5,0,0,1,.5-.5h3a.5.5,0,0,1,.5.5A.5.5,0,0,1,14.9,38.54Zm-6,0h-3a.5.5,0,0,1-.5-.5.5.5,0,0,1,.5-.5h3a.5.5,0,0,1,.5.5A.5.5,0,0,1,8.9,38.54Zm-6-.06H2.81A3.45,3.45,0,0,1,.24,36.31a.49.49,0,0,1,.28-.64.5.5,0,0,1,.65.28A2.5,2.5,0,0,0,3,37.49a.5.5,0,0,1,.39.59A.49.49,0,0,1,2.9,38.48ZM.5,33.66a.5.5,0,0,1-.5-.5v-3a.5.5,0,0,1,.5-.5.5.5,0,0,1,.5.5v3A.5.5,0,0,1,.5,33.66Zm0-6H.46A.49.49,0,0,1,0,27.09a3.48,3.48,0,0,1,2-2.71.5.5,0,1,1,.43.9A2.52,2.52,0,0,0,1,27.22.51.51,0,0,1,.52,27.66ZM151.5,25h-2.33a.5.5,0,0,1-.5-.5.5.5,0,0,1,.5-.5h2.33a2.67,2.67,0,0,0,.56-.06.49.49,0,0,1,.59.38.5.5,0,0,1-.37.6A4.13,4.13,0,0,1,151.5,25Zm-5.33,0h-3a.5.5,0,0,1-.5-.5.5.5,0,0,1,.5-.5h3a.5.5,0,0,1,.5.5A.5.5,0,0,1,146.17,25Zm-6,0h-3a.5.5,0,0,1-.5-.5.5.5,0,0,1,.5-.5h3a.5.5,0,0,1,.5.5A.5.5,0,0,1,140.17,25Zm-6,0h-3a.5.5,0,0,1-.5-.5.5.5,0,0,1,.5-.5h3a.5.5,0,0,1,.5.5A.5.5,0,0,1,134.17,25Zm-6,0h-3a.5.5,0,0,1-.5-.5.5.5,0,0,1,.5-.5h3a.5.5,0,0,1,.5.5A.5.5,0,0,1,128.17,25Zm-6,0h-3a.5.5,0,0,1-.5-.5.5.5,0,0,1,.5-.5h3a.5.5,0,0,1,.5.5A.5.5,0,0,1,122.17,25Zm-6,0h-3a.5.5,0,0,1-.5-.5.5.5,0,0,1,.5-.5h3a.5.5,0,0,1,.5.5A.5.5,0,0,1,116.17,25Zm-6,0h-3a.5.5,0,0,1-.5-.5.5.5,0,0,1,.5-.5h3a.5.5,0,0,1,.5.5A.5.5,0,0,1,110.17,25Zm-6,0h-3a.5.5,0,0,1-.5-.5.5.5,0,0,1,.5-.5h3a.5.5,0,0,1,.5.5A.5.5,0,0,1,104.17,25Zm-6,0h-3a.5.5,0,0,1-.5-.5.5.5,0,0,1,.5-.5h3a.5.5,0,0,1,.5.5A.5.5,0,0,1,98.17,25Zm-6,0h-3a.5.5,0,0,1-.5-.5.5.5,0,0,1,.5-.5h3a.5.5,0,0,1,.5.5A.5.5,0,0,1,92.17,25Zm-6,0h-3a.5.5,0,0,1-.5-.5.5.5,0,0,1,.5-.5h3a.5.5,0,0,1,.5.5A.5.5,0,0,1,86.17,25Zm-6,0h-3a.5.5,0,0,1-.5-.5.5.5,0,0,1,.5-.5h3a.5.5,0,0,1,.5.5A.5.5,0,0,1,80.17,25Zm-6,0h-3a.5.5,0,0,1-.5-.5.5.5,0,0,1,.5-.5h3a.5.5,0,0,1,.5.5A.5.5,0,0,1,74.17,25Zm-6,0h-3a.5.5,0,0,1-.5-.5.5.5,0,0,1,.5-.5h3a.5.5,0,0,1,.5.5A.5.5,0,0,1,68.17,25Zm-6,0h-3a.5.5,0,0,1-.5-.5.5.5,0,0,1,.5-.5h3a.5.5,0,0,1,.5.5A.5.5,0,0,1,62.17,25Zm-6,0h-3a.5.5,0,0,1-.5-.5.5.5,0,0,1,.5-.5h3a.5.5,0,0,1,.5.5A.5.5,0,0,1,56.17,25Zm-6,0h-3a.5.5,0,0,1-.5-.5.5.5,0,0,1,.5-.5h3a.5.5,0,0,1,.5.5A.5.5,0,0,1,50.17,25Zm-6,0h-3a.5.5,0,0,1-.5-.5.5.5,0,0,1,.5-.5h3a.5.5,0,0,1,.5.5A.5.5,0,0,1,44.17,25Zm-6,0h-3a.5.5,0,0,1-.5-.5.5.5,0,0,1,.5-.5h3a.5.5,0,0,1,.5.5A.5.5,0,0,1,38.17,25Zm-6,0h-3a.5.5,0,0,1-.5-.5.5.5,0,0,1,.5-.5h3a.5.5,0,0,1,.5.5A.5.5,0,0,1,32.17,25Zm-6,0h-3a.5.5,0,0,1-.5-.5.5.5,0,0,1,.5-.5h3a.5.5,0,0,1,.5.5A.5.5,0,0,1,26.17,25Zm-6,0h-3a.5.5,0,0,1-.5-.5.5.5,0,0,1,.5-.5h3a.5.5,0,0,1,.5.5A.5.5,0,0,1,20.17,25Zm-6,0h-3a.5.5,0,0,1-.5-.5.5.5,0,0,1,.5-.5h3a.5.5,0,0,1,.5.5A.5.5,0,0,1,14.17,25Zm-6,0h-3a.5.5,0,0,1-.5-.5.5.5,0,0,1,.5-.5h3a.5.5,0,0,1,.5.5A.5.5,0,0,1,8.17,25Zm146.15-2a.51.51,0,0,1-.17,0,.5.5,0,0,1-.3-.64,2.41,2.41,0,0,0,.15-.85V19.59a.5.5,0,0,1,1,0v1.95a3.43,3.43,0,0,1-.21,1.19A.48.48,0,0,1,154.32,23.06Zm-51.71-5.52h-3a.5.5,0,0,1-.5-.5.51.51,0,0,1,.5-.5h3a.5.5,0,0,1,.5.5A.5.5,0,0,1,102.61,17.54Zm-6,0h-3a.5.5,0,0,1-.5-.5.51.51,0,0,1,.5-.5h3a.5.5,0,0,1,.5.5A.5.5,0,0,1,96.61,17.54Zm-6,0h-3a.5.5,0,0,1-.5-.5.51.51,0,0,1,.5-.5h3a.5.5,0,0,1,.5.5A.5.5,0,0,1,90.61,17.54Zm-6,0h-3a.5.5,0,0,1-.5-.5.51.51,0,0,1,.5-.5h3a.5.5,0,0,1,.5.5A.5.5,0,0,1,84.61,17.54Zm-6,0h-3a.5.5,0,0,1-.5-.5.51.51,0,0,1,.5-.5h3a.5.5,0,0,1,.5.5A.5.5,0,0,1,78.61,17.54Zm-6,0h-3a.5.5,0,0,1-.5-.5.51.51,0,0,1,.5-.5h3a.5.5,0,0,1,.5.5A.5.5,0,0,1,72.61,17.54Zm-6,0h-3a.5.5,0,0,1-.5-.5.51.51,0,0,1,.5-.5h3a.5.5,0,0,1,.5.5A.5.5,0,0,1,66.61,17.54Zm-6,0h-3a.5.5,0,0,1-.5-.5.51.51,0,0,1,.5-.5h3a.5.5,0,0,1,.5.5A.5.5,0,0,1,60.61,17.54Zm-6,0h-3a.5.5,0,0,1-.5-.5.51.51,0,0,1,.5-.5h3a.5.5,0,0,1,.5.5A.5.5,0,0,1,54.61,17.54Zm-6,0h-3a.5.5,0,0,1-.5-.5.51.51,0,0,1,.5-.5h3a.5.5,0,0,1,.5.5A.5.5,0,0,1,48.61,17.54Zm-6,0h-3a.5.5,0,0,1-.5-.5.51.51,0,0,1,.5-.5h3a.5.5,0,0,1,.5.5A.5.5,0,0,1,42.61,17.54Zm-6,0h-3a.5.5,0,0,1-.5-.5.51.51,0,0,1,.5-.5h3a.5.5,0,0,1,.5.5A.5.5,0,0,1,36.61,17.54Zm-6,0H28.5A.5.5,0,0,1,28,17a.5.5,0,0,1,.5-.5h2.11a.5.5,0,0,1,.5.5A.5.5,0,0,1,30.61,17.54Zm75-.06a.5.5,0,0,1-.49-.4.49.49,0,0,1,.39-.59,2.53,2.53,0,0,0,1.82-1.55.5.5,0,0,1,.65-.29.5.5,0,0,1,.29.64,3.49,3.49,0,0,1-2.56,2.18Zm48.89-.39a.5.5,0,0,1-.5-.5v-1a3.55,3.55,0,0,1,.76-2.19.51.51,0,1,1,.79.63,2.43,2.43,0,0,0-.55,1.56v1A.5.5,0,0,1,154.5,17.09Zm78.31-4h-3a.5.5,0,0,1-.5-.5.5.5,0,0,1,.5-.5h3a.5.5,0,0,1,.5.5A.51.51,0,0,1,232.81,13.11Zm-6,0h-3a.5.5,0,0,1-.5-.5.5.5,0,0,1,.5-.5h3a.5.5,0,0,1,.5.5A.51.51,0,0,1,226.81,13.11Zm-6,0h-3a.5.5,0,0,1-.5-.5.5.5,0,0,1,.5-.5h3a.5.5,0,0,1,.5.5A.51.51,0,0,1,220.81,13.11Zm-6,0h-3a.5.5,0,0,1-.5-.5.5.5,0,0,1,.5-.5h3a.5.5,0,0,1,.5.5A.51.51,0,0,1,214.81,13.11Zm-6,0h-3a.5.5,0,0,1-.5-.5.5.5,0,0,1,.5-.5h3a.5.5,0,0,1,.5.5A.51.51,0,0,1,208.81,13.11Zm-6,0h-3a.5.5,0,0,1-.5-.5.5.5,0,0,1,.5-.5h3a.5.5,0,0,1,.5.5A.51.51,0,0,1,202.81,13.11Zm-6,0h-3a.5.5,0,0,1-.5-.5.5.5,0,0,1,.5-.5h3a.5.5,0,0,1,.5.5A.51.51,0,0,1,196.81,13.11Zm-6,0h-3a.5.5,0,0,1-.5-.5.5.5,0,0,1,.5-.5h3a.5.5,0,0,1,.5.5A.51.51,0,0,1,190.81,13.11Zm-6,0h-3a.5.5,0,0,1-.5-.5.5.5,0,0,1,.5-.5h3a.5.5,0,0,1,.5.5A.51.51,0,0,1,184.81,13.11Zm-6,0h-3a.5.5,0,0,1-.5-.5.5.5,0,0,1,.5-.5h3a.5.5,0,0,1,.5.5A.51.51,0,0,1,178.81,13.11Zm-6,0h-3a.5.5,0,0,1-.5-.5.5.5,0,0,1,.5-.5h3a.5.5,0,0,1,.5.5A.51.51,0,0,1,172.81,13.11Zm-6,0h-3a.5.5,0,0,1-.5-.5.5.5,0,0,1,.5-.5h3a.5.5,0,0,1,.5.5A.51.51,0,0,1,166.81,13.11Zm-6,0h-3a.5.5,0,0,1-.5-.5.5.5,0,0,1,.5-.5h3a.5.5,0,0,1,.5.5A.51.51,0,0,1,160.81,13.11ZM108,12.64a.5.5,0,0,1-.5-.5v-3a.5.5,0,0,1,1,0v3A.5.5,0,0,1,108,12.64Zm127.41-.75a.53.53,0,0,1-.29-.1.5.5,0,0,1-.11-.7,2.48,2.48,0,0,0,.49-1.48V8.51a.5.5,0,1,1,1,0v1.1a3.49,3.49,0,0,1-.68,2.07A.49.49,0,0,1,235.41,11.89ZM108.13,6.65a.32.32,0,0,1-.14,0,.48.48,0,0,1-.33-.62,3.5,3.5,0,0,1,2.4-2.34.5.5,0,1,1,.27,1,2.55,2.55,0,0,0-1.72,1.67A.49.49,0,0,1,108.13,6.65Zm127.49-.57a.51.51,0,0,1-.44-.26,2.47,2.47,0,0,0-2-1.27.5.5,0,0,1-.47-.53.49.49,0,0,1,.53-.47,3.48,3.48,0,0,1,2.84,1.79.5.5,0,0,1-.44.74Zm-5.43-1.54h-3a.5.5,0,0,1-.5-.5.5.5,0,0,1,.5-.5h3a.51.51,0,0,1,.5.5A.5.5,0,0,1,230.19,4.54Zm-6,0h-3a.5.5,0,0,1-.5-.5.5.5,0,0,1,.5-.5h3a.51.51,0,0,1,.5.5A.5.5,0,0,1,224.19,4.54Zm-6,0h-3a.5.5,0,0,1-.5-.5.5.5,0,0,1,.5-.5h3a.51.51,0,0,1,.5.5A.5.5,0,0,1,218.19,4.54Zm-6,0h-3a.5.5,0,0,1-.5-.5.5.5,0,0,1,.5-.5h3a.51.51,0,0,1,.5.5A.5.5,0,0,1,212.19,4.54Zm-6,0h-3a.5.5,0,0,1-.5-.5.5.5,0,0,1,.5-.5h3a.51.51,0,0,1,.5.5A.5.5,0,0,1,206.19,4.54Zm-6,0h-3a.5.5,0,0,1-.5-.5.5.5,0,0,1,.5-.5h3a.51.51,0,0,1,.5.5A.5.5,0,0,1,200.19,4.54Zm-6,0h-3a.5.5,0,0,1-.5-.5.5.5,0,0,1,.5-.5h3a.51.51,0,0,1,.5.5A.5.5,0,0,1,194.19,4.54Zm-6,0h-3a.5.5,0,0,1-.5-.5.5.5,0,0,1,.5-.5h3a.51.51,0,0,1,.5.5A.5.5,0,0,1,188.19,4.54Zm-6,0h-3a.5.5,0,0,1-.5-.5.5.5,0,0,1,.5-.5h3a.51.51,0,0,1,.5.5A.5.5,0,0,1,182.19,4.54Zm-6,0h-3a.5.5,0,0,1-.5-.5.5.5,0,0,1,.5-.5h3a.51.51,0,0,1,.5.5A.5.5,0,0,1,176.19,4.54Zm-6,0h-3a.5.5,0,0,1-.5-.5.5.5,0,0,1,.5-.5h3a.51.51,0,0,1,.5.5A.5.5,0,0,1,170.19,4.54Zm-6,0h-3a.5.5,0,0,1-.5-.5.5.5,0,0,1,.5-.5h3a.51.51,0,0,1,.5.5A.5.5,0,0,1,164.19,4.54Zm-6,0h-3a.5.5,0,0,1-.5-.5.5.5,0,0,1,.5-.5h3a.51.51,0,0,1,.5.5A.5.5,0,0,1,158.19,4.54Zm-6,0h-3a.5.5,0,0,1-.5-.5.5.5,0,0,1,.5-.5h3a.51.51,0,0,1,.5.5A.5.5,0,0,1,152.19,4.54Zm-6,0h-3a.5.5,0,0,1-.5-.5.5.5,0,0,1,.5-.5h3a.51.51,0,0,1,.5.5A.5.5,0,0,1,146.19,4.54Zm-6,0h-3a.5.5,0,0,1-.5-.5.5.5,0,0,1,.5-.5h3a.51.51,0,0,1,.5.5A.5.5,0,0,1,140.19,4.54Zm-6,0h-3a.5.5,0,0,1-.5-.5.5.5,0,0,1,.5-.5h3a.51.51,0,0,1,.5.5A.5.5,0,0,1,134.19,4.54Zm-6,0h-3a.5.5,0,0,1-.5-.5.5.5,0,0,1,.5-.5h3a.51.51,0,0,1,.5.5A.5.5,0,0,1,128.19,4.54Zm-6,0h-3a.5.5,0,0,1-.5-.5.5.5,0,0,1,.5-.5h3a.51.51,0,0,1,.5.5A.5.5,0,0,1,122.19,4.54Zm-6,0h-3a.5.5,0,0,1-.5-.5.5.5,0,0,1,.5-.5h3a.51.51,0,0,1,.5.5A.5.5,0,0,1,116.19,4.54Z"/></g><g id="_2-2" data-name="2"><path class="cls-3" d="M240.79,91.38c0,1.4-9.45,2.54-21.12,2.54s-21.12-1.14-21.12-2.54,9.46-2.54,21.12-2.54S240.79,90,240.79,91.38Z"/><rect class="cls-4" x="208.09" y="60.01" width="26.83" height="36.05" rx="3.42" ry="3.42" transform="translate(143.02 299.37) rotate(-89.88)"/><polygon class="cls-5" points="214.84 88.92 228.15 88.95 235.73 88.97 235.78 67.99 214.84 88.92"/><polygon class="cls-6" points="235.78 67.15 206.38 67.09 206.16 67.09 206.12 88.9 214.84 88.92 235.78 67.99 235.78 67.15"/><path class="cls-7" d="M238.89,78.07a1.28,1.28,0,1,1-2.55,0,1.28,1.28,0,1,1,2.55,0Z"/><path class="cls-8" d="M206,78a1,1,0,0,1-1,1,1,1,0,0,1-1-1,1,1,0,0,1,1-1A1,1,0,0,1,206,78Z"/></g><g id="_3-2" data-name="3"><path class="cls-9" d="M198.67,93.18c0,1.44-4.66,2.6-10.41,2.6s-10.41-1.16-10.41-2.6,4.66-2.6,10.41-2.6S198.67,91.75,198.67,93.18Z"/><g id="_2-3" data-name="2"><path class="cls-10" d="M187,74.36h0a5.92,5.92,0,0,0-5.77,6.23q.09,3.61,0,7.24A5.92,5.92,0,0,0,187,94.05h0a5.92,5.92,0,0,0,5.77-6.22q-.1-3.63,0-7.24A5.92,5.92,0,0,0,187,74.36Z"/><path class="cls-11" d="M188.35,89.21A1.33,1.33,0,1,1,187,87.88,1.34,1.34,0,0,1,188.35,89.21Z"/><path class="cls-12" d="M187,75.94c-.76,0-1.37.39-1.37.86v2.64c0,.48.61.86,1.37.86s1.36-.38,1.36-.86V76.8C188.38,76.33,187.77,75.94,187,75.94Z"/><path class="cls-12" d="M187,81.12c-.36,0-.65.22-.65.49v1.48c0,.27.29.49.65.49a.58.58,0,0,0,.64-.49V81.61A.58.58,0,0,0,187,81.12Z"/><path class="cls-4" d="M187,75.94a.86.86,0,0,0-.86.86v2.64a.86.86,0,1,0,1.72,0V76.8A.87.87,0,0,0,187,75.94Z"/><path class="cls-4" d="M187,81.12a.45.45,0,0,0-.41.49v1.48a.41.41,0,1,0,.81,0V81.61A.45.45,0,0,0,187,81.12Z"/></g></g><g id="_4" data-name="4"><path class="cls-13" d="M191.92,46.34c0,1.43-4,2.59-9,2.59s-9.05-1.16-9.05-2.59,4.05-2.6,9.05-2.6S191.92,44.9,191.92,46.34Z"/><g id="_2-4" data-name="2"><rect class="cls-6" x="185.16" y="36.48" width="6.02" height="2.31"/><rect class="cls-6" x="185.16" y="40.18" width="6.02" height="2.31"/><rect class="cls-14" x="176.46" y="15.65" width="12.5" height="31.47" rx="1.62" ry="1.62"/><path class="cls-6" d="M189,43V45.5a1.62,1.62,0,0,1-1.62,1.62h-9.26a1.61,1.61,0,0,1-1.62-1.62V43Z"/><path class="cls-6" d="M187.43,29.88c0,4.79-2.13,8.68-4.74,8.68s-4.75-3.89-4.75-8.68,2.13-8.68,4.75-8.68S187.43,25.09,187.43,29.88Z"/><path class="cls-5" d="M184,29.88c0,1.29-.57,2.33-1.27,2.33s-1.28-1-1.28-2.33.57-2.33,1.28-2.33S184,28.6,184,29.88Z"/></g></g><g id="_5" data-name="5"><path class="cls-15" d="M30.05,79.71c0,1.12-4.74,2-10.59,2s-10.58-.9-10.58-2,4.74-2,10.58-2S30.05,78.6,30.05,79.71Z"/><g id="_16" data-name="16"><path class="cls-4" d="M6,58l6.34,19.89a2.29,2.29,0,0,0,2.73,1.7l11.58-3.69a2.29,2.29,0,0,0,1.24-3L21.56,53.09a2.3,2.3,0,0,0-2.73-1.7L7.25,55.08A2.3,2.3,0,0,0,6,58Z"/><polygon class="cls-5" points="19.81 54.05 8 57.82 13.34 74.57 21.18 58.38 19.81 54.05"/><polygon class="cls-6" points="25.19 70.93 21.18 58.38 13.34 74.57 13.38 74.69 25.19 70.93"/><path class="cls-16" d="M19.87,74.78a1.14,1.14,0,1,1,.7,2.18,1.14,1.14,0,1,1-.7-2.18Z"/><path class="cls-8" d="M12.85,54.78a.23.23,0,0,1-.28-.15.22.22,0,0,1,.15-.28l2-.64h0a.23.23,0,0,1,.28.15.23.23,0,0,1-.15.28l-2,.64Z"/><path class="cls-8" d="M12.09,55.77a.22.22,0,0,1-.28-.14.23.23,0,0,1,.15-.29l3.61-1.13h0a.22.22,0,0,1,.28.15.22.22,0,0,1-.14.28l-3.62,1.13Z"/><path class="cls-8" d="M10.16,55.3a.54.54,0,0,1,.69.35.55.55,0,1,1-1,.33A.54.54,0,0,1,10.16,55.3Z"/></g></g><g id="_6" data-name="6"><path class="cls-17" d="M82.72,45.87c0,1.44-4.66,2.6-10.42,2.6s-10.41-1.16-10.41-2.6,4.66-2.6,10.41-2.6S82.72,44.44,82.72,45.87Z"/><g id="_5-2" data-name="5"><polygon class="cls-18" points="75.57 26.81 72.66 30.43 71.15 29.77 73.16 25.24 75.57 26.81"/><rect class="cls-19" x="71.23" y="35" width="3.58" height="6.19" transform="translate(146.04 76.19) rotate(180)"/><polygon class="cls-20" points="74.82 28.39 76.19 31.97 69.58 31.97 70.94 28.39 74.82 28.39"/><rect class="cls-20" x="71.23" y="35" width="3.58" height="6.19" transform="translate(146.04 76.19) rotate(180)"/><rect class="cls-21" x="69.58" y="31.97" width="6.61" height="4.4"/><polygon class="cls-21" points="71.14 41.02 74.9 41.02 77.53 44.08 68.51 44.08 71.14 41.02"/><path class="cls-20" d="M66.55,45.87H79.76A1.79,1.79,0,0,0,78,44.08H68.35a1.8,1.8,0,0,0-1.8,1.79Z"/><path class="cls-22" d="M73.09,28.39h1.73L76.19,32v4.41H74.81V41h.09l2.63,3.06H78a1.79,1.79,0,0,1,1.79,1.79H73.09Z"/><rect class="cls-18" x="58.02" y="9.09" width="10.6" height="9.18" transform="translate(25.46 66.24) rotate(-66.42)"/><polygon class="cls-18" points="88.36 18.17 83.64 28.98 82.55 28.5 87.42 17.76 88.36 18.17"/><polygon class="cls-21" points="69.89 10.11 87.42 17.76 82.55 28.5 65.17 20.92 69.89 10.11"/><rect class="cls-18" x="54.85" y="10.42" width="7.98" height="2.6" transform="translate(24.56 60.96) rotate(-66.42)"/><rect class="cls-18" x="54.07" y="9.39" width="4.79" height="2.59" transform="translate(24.08 58.15) rotate(-66.42)"/><path class="cls-18" d="M85.54,24.62l1.47.64,3.83-8.78a.8.8,0,0,0-.41-1.05h0a.79.79,0,0,0-1.05.41Z"/><path class="cls-18" d="M70.27,25.14l5,2.17a2,2,0,0,0,2.6-1h0l-8.6-3.75h0A2,2,0,0,0,70.27,25.14Z"/><rect class="cls-22" x="71.25" y="1.87" width="3.79" height="29.24" transform="translate(28.77 76.93) rotate(-66.42)"/></g></g><g id="_7" data-name="7"><polygon class="cls-23" points="147.62 40.21 141.73 39.44 135.84 40.21 135.43 42.52 148.02 42.52 147.62 40.21"/><polygon class="cls-24" points="148.02 42.52 135.43 42.52 134.22 49.39 149.23 49.39 148.02 42.52"/><path class="cls-4" d="M155.7,51.68,155,50.59c-.85-.56-5.67-.87-5.67-.87h0l-.06-.33h-15l-.06.33h0s-4.83.31-5.67.87l-.72,1.09c-.29.2,0,.52.48.52h27C155.7,52.2,156,51.88,155.7,51.68Z"/><rect class="cls-4" x="109.86" width="63.74" height="40.42" rx="0.25" ry="0.25"/><rect class="cls-25" x="113.28" y="2.8" width="56.9" height="34.83"/><path class="cls-5" d="M114.11,3.48V31L141.65,3.48Z"/><path class="cls-26" d="M141.65,3.48,114.11,31v5.74h2.2L149.58,3.48Z"/><path class="cls-5" d="M164.93,3.48H149.58L116.31,36.76h15.34Z"/><path class="cls-26" d="M169.17,3.48h-4.24L131.65,36.76h7.94L169.17,7.17Z"/><path class="cls-5" d="M169.17,7.17,139.59,36.76h29.58Z"/><ellipse class="cls-27" cx="143.69" cy="52.34" rx="36.4" ry="2.12"/></g><g id="_8" data-name="8"><path class="cls-28" d="M126.21,98.64c0,1.44-4.86,2.6-10.85,2.6s-10.84-1.16-10.84-2.6,4.85-2.6,10.84-2.6S126.21,97.21,126.21,98.64Z"/><path class="cls-29" d="M47.42,98.54c0,1.44-4.85,2.6-10.84,2.6S25.74,100,25.74,98.54s4.85-2.6,10.84-2.6S47.42,97.11,47.42,98.54Z"/><g id="_11" data-name="11"><path class="cls-6" d="M43.88,55.07h62.8a2,2,0,0,1,2,2V90.15a2,2,0,0,1-2,2H43.88a2,2,0,0,1-2-2V57A2,2,0,0,1,43.88,55.07Z"/><polygon class="cls-5" points="69.59 57.37 44.45 57.37 44.45 57.52 44.45 88.43 48.45 88.43 79.5 57.37 69.59 57.37"/><polygon class="cls-5" points="87.45 88.43 106.11 88.43 106.11 87.98 106.11 69.77 87.45 88.43"/><polygon class="cls-26" points="106.11 57.37 105 57.37 73.95 88.43 82.36 88.43 87.45 88.43 106.11 69.77 106.11 57.37"/><polygon class="cls-5" points="89.5 57.37 58.45 88.43 73.95 88.43 105 57.37 89.5 57.37"/><polygon class="cls-26" points="79.5 57.37 48.45 88.43 58.45 88.43 89.5 57.37 79.5 57.37"/><rect class="cls-30" x="71.37" y="92" width="7.59" height="4.83"/><path class="cls-6" d="M90.68,99.93a4.72,4.72,0,0,0-4.47-3.22H64.58a4.72,4.72,0,0,0-4.47,3.22Z"/><rect class="cls-31" x="67.23" y="89.12" width="15.41" height="1.84"/><path class="cls-31" d="M97.71,89.12H97A.92.92,0,1,0,97,91h.69a.92.92,0,0,0,0-1.84Z"/><path class="cls-31" d="M101.27,89.12h-.69a.92.92,0,1,0,0,1.84h.69a.92.92,0,0,0,0-1.84Z"/><path class="cls-32" d="M104.84,89.12h-.69a.92.92,0,1,0,0,1.84h.69a.92.92,0,0,0,0-1.84Z"/><rect class="cls-6" x="110.88" y="55.53" width="8.95" height="44.4" rx="1.72" ry="1.72"/><path class="cls-33" d="M117.66,62.43a2.28,2.28,0,0,1-2.76,2.26h0a2.3,2.3,0,0,1,0-4.51h0a2.28,2.28,0,0,1,2.76,2.25Z"/><path class="cls-30" d="M116.74,62.43a2.31,2.31,0,0,1-1.84,2.26h0a2.3,2.3,0,0,1,0-4.51h0A2.3,2.3,0,0,1,116.74,62.43Z"/><path class="cls-33" d="M117.66,88a2.28,2.28,0,0,1-2.76,2.25h0a2.3,2.3,0,0,1,0-4.51h0A2.33,2.33,0,0,1,117.66,88Z"/><path class="cls-30" d="M116.74,88a2.3,2.3,0,0,1-1.84,2.25h0a2.3,2.3,0,0,1,0-4.51h0A2.32,2.32,0,0,1,116.74,88Z"/><path class="cls-33" d="M119,71a3.68,3.68,0,0,1-3.68,3.68,3.44,3.44,0,0,1-.46,0,3.68,3.68,0,0,1,0-7.3,3.44,3.44,0,0,1,.46,0A3.68,3.68,0,0,1,119,71Z"/><path class="cls-30" d="M118.12,71a3.25,3.25,0,1,1-3.22-3.65A3.68,3.68,0,0,1,118.12,71Z"/><path class="cls-33" d="M119,79.46a3.69,3.69,0,0,1-3.68,3.69,3.44,3.44,0,0,1-.46,0,3.68,3.68,0,0,1,0-7.31,3.44,3.44,0,0,1,.46,0A3.68,3.68,0,0,1,119,79.46Z"/><path class="cls-30" d="M118.12,79.46a3.25,3.25,0,1,1-3.22-3.65A3.69,3.69,0,0,1,118.12,79.46Z"/><rect class="cls-31" x="112.09" y="95.33" width="6.55" height="1.5"/><path class="cls-6" d="M116.5,62.43a1.14,1.14,0,1,1-1.14-1.14A1.14,1.14,0,0,1,116.5,62.43Z"/><path class="cls-6" d="M116.5,88a1.14,1.14,0,1,1-1.14-1.15A1.14,1.14,0,0,1,116.5,88Z"/><path class="cls-6" d="M117.46,71a2.1,2.1,0,1,1-2.1-2.09A2.09,2.09,0,0,1,117.46,71Z"/><path class="cls-6" d="M117.46,79.46a2.1,2.1,0,1,1-2.1-2.09A2.1,2.1,0,0,1,117.46,79.46Z"/><rect class="cls-6" x="30.72" y="55.53" width="8.95" height="44.4" rx="1.72" ry="1.72"/><path class="cls-33" d="M37.5,62.43a2.28,2.28,0,0,1-2.76,2.26h0a2.3,2.3,0,0,1,0-4.51h0a2.28,2.28,0,0,1,2.76,2.25Z"/><path class="cls-30" d="M36.58,62.43a2.31,2.31,0,0,1-1.84,2.26h0a2.3,2.3,0,0,1,0-4.51h0A2.3,2.3,0,0,1,36.58,62.43Z"/><path class="cls-33" d="M37.5,88a2.28,2.28,0,0,1-2.76,2.25h0a2.3,2.3,0,0,1,0-4.51h0A2.33,2.33,0,0,1,37.5,88Z"/><path class="cls-30" d="M36.58,88a2.3,2.3,0,0,1-1.84,2.25h0a2.3,2.3,0,0,1,0-4.51h0A2.32,2.32,0,0,1,36.58,88Z"/><path class="cls-33" d="M38.88,71a3.68,3.68,0,0,1-3.68,3.68,3.44,3.44,0,0,1-.46,0,3.68,3.68,0,0,1,0-7.3,3.44,3.44,0,0,1,.46,0A3.68,3.68,0,0,1,38.88,71Z"/><path class="cls-30" d="M38,71a3.68,3.68,0,0,1-3.22,3.65,3.68,3.68,0,0,1,0-7.3A3.67,3.67,0,0,1,38,71Z"/><path class="cls-33" d="M38.88,79.46a3.69,3.69,0,0,1-3.68,3.69,3.44,3.44,0,0,1-.46,0,3.68,3.68,0,0,1,0-7.31,3.44,3.44,0,0,1,.46,0A3.68,3.68,0,0,1,38.88,79.46Z"/><path class="cls-30" d="M38,79.46a3.69,3.69,0,0,1-3.22,3.66,3.68,3.68,0,0,1,0-7.31A3.68,3.68,0,0,1,38,79.46Z"/><rect class="cls-31" x="31.93" y="95.33" width="6.55" height="1.5"/><path class="cls-6" d="M36.34,62.43a1.14,1.14,0,1,1-1.14-1.14A1.14,1.14,0,0,1,36.34,62.43Z"/><path class="cls-6" d="M36.34,88a1.14,1.14,0,1,1-1.14-1.15A1.14,1.14,0,0,1,36.34,88Z"/><path class="cls-6" d="M37.29,71a2.09,2.09,0,1,1-2.09-2.09A2.08,2.08,0,0,1,37.29,71Z"/><path class="cls-6" d="M37.29,79.46a2.09,2.09,0,1,1-2.09-2.09A2.09,2.09,0,0,1,37.29,79.46Z"/></g><path class="cls-34" d="M115.5,100.06c0,1.78-17.19,3.22-38.39,3.22s-38.39-1.44-38.39-3.22,17.19-3.22,38.39-3.22S115.5,98.28,115.5,100.06Z"/></g><g id="_9" data-name="9"><g id="_3-3" data-name="3"><path class="cls-35" d="M174.66,61.25l4.16,20.41a1.66,1.66,0,0,1-1.35,1.93l-49.24,10a1.68,1.68,0,0,1-2-1.26L122.07,72a.83.83,0,0,1,.66-.95l51-10.38A.82.82,0,0,1,174.66,61.25Z"/><path class="cls-10" d="M129.75,89.05l-2.29.45a.5.5,0,0,0-.39.56l.46,2.29a.48.48,0,0,0,.57.37l2.29-.46a.49.49,0,0,0,.39-.56l-.46-2.29A.47.47,0,0,0,129.75,89.05Z"/><path class="cls-10" d="M133.4,88.31l-2.29.46a.49.49,0,0,0-.39.56l.46,2.29a.49.49,0,0,0,.21.3.5.5,0,0,0,.36.06l2.29-.46a.47.47,0,0,0,.39-.55L134,88.68A.48.48,0,0,0,133.4,88.31Z"/><path class="cls-10" d="M137.05,87.58l-2.29.46a.47.47,0,0,0-.31.2.46.46,0,0,0-.08.36l.46,2.29a.48.48,0,0,0,.57.36l2.29-.46a.57.57,0,0,0,.32-.2.47.47,0,0,0,.07-.36l-.46-2.29A.48.48,0,0,0,137.05,87.58Z"/><path class="cls-10" d="M140.7,86.85l-2.29.46a.47.47,0,0,0-.39.55l.46,2.29a.48.48,0,0,0,.57.37l2.29-.46a.49.49,0,0,0,.39-.56l-.46-2.29a.46.46,0,0,0-.57-.36Z"/><path class="cls-10" d="M158.4,83.29l-16.08,3.23a.5.5,0,0,0-.41.58l.46,2.26a.46.46,0,0,0,.21.3.51.51,0,0,0,.38.07L159,86.5a.49.49,0,0,0,.4-.57L159,83.67a.49.49,0,0,0-.21-.31A.57.57,0,0,0,158.4,83.29Z"/><path class="cls-10" d="M125.87,82.53l3.91-.79a.42.42,0,0,0,.34-.48l-.38-1.88a.41.41,0,0,0-.49-.31l-3.92.78a.41.41,0,0,0-.33.48l.37,1.88A.43.43,0,0,0,125.87,82.53Z"/><path class="cls-10" d="M133.16,81.06a.41.41,0,0,0,.26-.17.37.37,0,0,0,.06-.29l-.38-1.91a.39.39,0,0,0-.17-.25.47.47,0,0,0-.31,0l-1.91.38a.4.4,0,0,0-.32.46l.38,1.91a.41.41,0,0,0,.48.31Z"/><path class="cls-10" d="M134.77,80.74l1.91-.38a.48.48,0,0,0,.26-.17.4.4,0,0,0,.06-.3L136.62,78a.35.35,0,0,0-.17-.24.42.42,0,0,0-.31-.06l-1.9.38a.41.41,0,0,0-.33.47l.38,1.9A.41.41,0,0,0,134.77,80.74Z"/><path class="cls-10" d="M138.3,80l1.9-.38a.39.39,0,0,0,.26-.17.36.36,0,0,0,.07-.3l-.39-1.9A.35.35,0,0,0,140,77a.4.4,0,0,0-.3-.06l-1.91.39a.4.4,0,0,0-.33.46l.39,1.91A.39.39,0,0,0,138.3,80Z"/><path class="cls-10" d="M141.82,79.32l1.91-.38a.4.4,0,0,0,.32-.46l-.38-1.91a.39.39,0,0,0-.17-.25.42.42,0,0,0-.31-.06l-1.91.39a.39.39,0,0,0-.32.46l.38,1.91a.39.39,0,0,0,.17.25A.47.47,0,0,0,141.82,79.32Z"/><path class="cls-10" d="M145.34,78.62l1.91-.39a.39.39,0,0,0,.32-.46l-.38-1.91a.39.39,0,0,0-.17-.25.47.47,0,0,0-.31,0l-1.9.38a.4.4,0,0,0-.33.46l.38,1.91a.41.41,0,0,0,.18.25A.39.39,0,0,0,145.34,78.62Z"/><path class="cls-10" d="M148.07,75.4a.4.4,0,0,0-.07.3l.39,1.9a.35.35,0,0,0,.17.25.42.42,0,0,0,.31.06l1.9-.39a.4.4,0,0,0,.33-.46l-.39-1.91a.39.39,0,0,0-.47-.3l-1.91.38A.39.39,0,0,0,148.07,75.4Z"/><path class="cls-10" d="M151.59,74.69a.4.4,0,0,0-.06.3l.38,1.91a.35.35,0,0,0,.17.24.42.42,0,0,0,.31.06l1.91-.38a.41.41,0,0,0,.32-.47l-.38-1.9a.4.4,0,0,0-.48-.31l-1.91.38A.52.52,0,0,0,151.59,74.69Z"/><path class="cls-10" d="M155.11,74a.37.37,0,0,0-.06.29l.38,1.91a.41.41,0,0,0,.18.25.45.45,0,0,0,.3,0l1.91-.38a.39.39,0,0,0,.32-.46l-.38-1.91a.41.41,0,0,0-.48-.31l-1.91.39A.41.41,0,0,0,155.11,74Z"/><path class="cls-10" d="M158.64,73.28a.39.39,0,0,0-.07.29l.39,1.91a.39.39,0,0,0,.17.25.4.4,0,0,0,.3.06l1.91-.39a.4.4,0,0,0,.33-.46L161.28,73a.39.39,0,0,0-.47-.3l-1.91.38A.39.39,0,0,0,158.64,73.28Z"/><path class="cls-10" d="M163,75.08l1.91-.39a.44.44,0,0,0,.26-.16.4.4,0,0,0,.06-.3l-.38-1.91a.4.4,0,0,0-.48-.3l-1.91.38a.4.4,0,0,0-.32.47l.38,1.9A.4.4,0,0,0,163,75.08Z"/><path class="cls-10" d="M168.39,74a.43.43,0,0,0,.26-.17.4.4,0,0,0,.06-.3l-.38-1.91a.4.4,0,0,0-.48-.3l-1.91.38a.52.52,0,0,0-.26.17.4.4,0,0,0-.06.3l.38,1.91a.4.4,0,0,0,.48.3Z"/><path class="cls-10" d="M171.91,73.28a.39.39,0,0,0,.26-.17.39.39,0,0,0,.07-.29l-.39-1.91a.39.39,0,0,0-.17-.25.42.42,0,0,0-.31-.06l-1.9.39a.4.4,0,0,0-.33.46l.39,1.91a.39.39,0,0,0,.47.3Z"/><path class="cls-10" d="M174.83,69.91l-1.85.37a.37.37,0,0,0-.25.17.35.35,0,0,0-.07.28l.39,1.93a.39.39,0,0,0,.47.3l1.84-.37a.39.39,0,0,0,.26-.17.36.36,0,0,0,.06-.28l-.39-1.94A.39.39,0,0,0,174.83,69.91Z"/><path class="cls-10" d="M126.11,83.11a.42.42,0,0,0-.34.48l.38,1.88a.41.41,0,0,0,.49.31l4.75-1a.41.41,0,0,0,.33-.48l-.38-1.88a.42.42,0,0,0-.49-.32Z"/><path class="cls-10" d="M132.75,84.56l1.9-.39a.39.39,0,0,0,.26-.17.38.38,0,0,0,.07-.29l-.39-1.91a.39.39,0,0,0-.47-.3l-1.91.38a.39.39,0,0,0-.26.17.4.4,0,0,0-.07.3l.39,1.9A.4.4,0,0,0,132.75,84.56Z"/><path class="cls-10" d="M136.27,83.85l1.91-.38a.52.52,0,0,0,.26-.17.4.4,0,0,0,.06-.3l-.38-1.91a.4.4,0,0,0-.48-.3l-1.91.38a.52.52,0,0,0-.26.17.4.4,0,0,0-.06.3l.38,1.91A.4.4,0,0,0,136.27,83.85Z"/><path class="cls-10" d="M142,82.59a.39.39,0,0,0,.06-.3l-.38-1.9a.37.37,0,0,0-.17-.25.42.42,0,0,0-.31-.06l-1.91.39a.4.4,0,0,0-.32.46l.38,1.91a.4.4,0,0,0,.48.3l1.91-.38A.39.39,0,0,0,142,82.59Z"/><path class="cls-10" d="M145.48,81.88a.39.39,0,0,0,.07-.29l-.39-1.91a.39.39,0,0,0-.17-.25.36.36,0,0,0-.3-.05l-1.91.38a.4.4,0,0,0-.33.46l.39,1.91a.39.39,0,0,0,.47.3l1.91-.38A.39.39,0,0,0,145.48,81.88Z"/><path class="cls-10" d="M149,81.17a.37.37,0,0,0,.06-.29L148.69,79a.41.41,0,0,0-.18-.25.43.43,0,0,0-.3,0l-1.91.38a.4.4,0,0,0-.32.47l.38,1.9a.41.41,0,0,0,.48.31l1.91-.39A.41.41,0,0,0,149,81.17Z"/><path class="cls-10" d="M152.59,80.17l-.38-1.91A.35.35,0,0,0,152,78a.42.42,0,0,0-.31-.06l-1.9.38a.41.41,0,0,0-.33.47l.38,1.91a.35.35,0,0,0,.17.24.42.42,0,0,0,.31.06l1.91-.38A.4.4,0,0,0,152.59,80.17Z"/><path class="cls-10" d="M156.12,79.46l-.39-1.9a.37.37,0,0,0-.17-.25.42.42,0,0,0-.31-.06l-1.9.39a.4.4,0,0,0-.33.46l.39,1.91a.39.39,0,0,0,.17.25.45.45,0,0,0,.3,0l1.91-.38A.41.41,0,0,0,156.12,79.46Z"/><path class="cls-10" d="M159.64,78.76l-.38-1.91a.41.41,0,0,0-.18-.25.39.39,0,0,0-.3-.06l-1.91.39a.39.39,0,0,0-.32.46l.38,1.91a.39.39,0,0,0,.17.25.37.37,0,0,0,.31,0l1.9-.38A.4.4,0,0,0,159.64,78.76Z"/><path class="cls-10" d="M163.16,78.05l-.38-1.91a.4.4,0,0,0-.48-.3l-1.91.38a.41.41,0,0,0-.26.17.38.38,0,0,0-.06.29l.38,1.91a.44.44,0,0,0,.17.25.42.42,0,0,0,.31.06l1.91-.39A.39.39,0,0,0,163.16,78.05Z"/><path class="cls-10" d="M164.62,78.16l1.9-.39a.44.44,0,0,0,.27-.17.37.37,0,0,0,.06-.29l-.38-1.91a.41.41,0,0,0-.18-.25.45.45,0,0,0-.3-.05l-1.91.38a.39.39,0,0,0-.32.46l.38,1.91A.41.41,0,0,0,164.62,78.16Z"/><path class="cls-10" d="M168.14,77.45l1.91-.38a.52.52,0,0,0,.26-.17.4.4,0,0,0,.06-.3L170,74.69a.35.35,0,0,0-.17-.24.42.42,0,0,0-.31-.06l-1.91.38a.41.41,0,0,0-.32.47l.38,1.91A.4.4,0,0,0,168.14,77.45Z"/><path class="cls-10" d="M175.46,73.2l-4.49.9a.41.41,0,0,0-.27.17.4.4,0,0,0-.07.31l.41,1.88a.41.41,0,0,0,.49.31l4.47-.9a.42.42,0,0,0,.33-.48L176,73.51a.39.39,0,0,0-.17-.26A.4.4,0,0,0,175.46,73.2Z"/><path class="cls-10" d="M136.44,84.37l-1.91.38a.52.52,0,0,0-.26.17.4.4,0,0,0-.06.3l.38,1.91a.35.35,0,0,0,.17.24.42.42,0,0,0,.31.06l1.91-.38a.41.41,0,0,0,.32-.47l-.38-1.91A.4.4,0,0,0,136.44,84.37Z"/><path class="cls-10" d="M133.09,85l-6.34,1.28a.4.4,0,0,0-.33.48l.37,1.88a.42.42,0,0,0,.18.25.44.44,0,0,0,.32.06l6.34-1.27a.42.42,0,0,0,.34-.48l-.38-1.88A.43.43,0,0,0,133.09,85Z"/><path class="cls-10" d="M138.59,86.72l1.91-.38a.4.4,0,0,0,.32-.47l-.38-1.9a.4.4,0,0,0-.48-.31l-1.9.39a.44.44,0,0,0-.27.17.37.37,0,0,0-.06.29l.38,1.91a.41.41,0,0,0,.18.25A.45.45,0,0,0,138.59,86.72Z"/><path class="cls-10" d="M142.12,86l1.9-.38a.39.39,0,0,0,.26-.17.34.34,0,0,0,.07-.29L144,83.26a.39.39,0,0,0-.47-.3l-1.91.38a.39.39,0,0,0-.26.17.39.39,0,0,0-.07.29l.39,1.91A.39.39,0,0,0,142.12,86Z"/><path class="cls-10" d="M145.64,85.31l1.91-.39a.41.41,0,0,0,.26-.17.37.37,0,0,0,.06-.29l-.38-1.91a.4.4,0,0,0-.48-.3l-1.91.38a.41.41,0,0,0-.26.17.39.39,0,0,0-.06.3l.38,1.9A.4.4,0,0,0,145.64,85.31Z"/><path class="cls-10" d="M149.16,84.6l1.91-.38a.48.48,0,0,0,.26-.17.4.4,0,0,0,.06-.3L151,81.84a.35.35,0,0,0-.17-.24.42.42,0,0,0-.31-.06l-1.9.38a.41.41,0,0,0-.33.47l.38,1.91A.41.41,0,0,0,149.16,84.6Z"/><path class="cls-10" d="M152.69,83.89l1.9-.38a.39.39,0,0,0,.26-.17.4.4,0,0,0,.07-.3l-.39-1.9a.37.37,0,0,0-.17-.25.4.4,0,0,0-.3-.06l-1.91.39a.4.4,0,0,0-.33.46l.39,1.91A.39.39,0,0,0,152.69,83.89Z"/><path class="cls-10" d="M156.21,83.18l1.91-.38a.41.41,0,0,0,.26-.17.38.38,0,0,0,.06-.29l-.38-1.91a.39.39,0,0,0-.17-.25.37.37,0,0,0-.31-.05l-1.91.38a.39.39,0,0,0-.32.46l.38,1.91A.4.4,0,0,0,156.21,83.18Z"/><path class="cls-10" d="M159.73,82.48l1.91-.39a.39.39,0,0,0,.26-.17.37.37,0,0,0,.06-.29l-.38-1.91a.39.39,0,0,0-.17-.25.47.47,0,0,0-.31,0l-1.9.38a.4.4,0,0,0-.33.47l.38,1.9A.41.41,0,0,0,159.73,82.48Z"/><path class="cls-10" d="M165.16,81.39a.42.42,0,0,0,.33-.47L165.1,79a.35.35,0,0,0-.17-.24.4.4,0,0,0-.3-.06l-1.91.38a.42.42,0,0,0-.33.47l.39,1.91a.35.35,0,0,0,.17.24.4.4,0,0,0,.3.06Z"/><path class="cls-10" d="M169.25,80.17l-.38-1.91a.4.4,0,0,0-.48-.31l-1.9.39a.44.44,0,0,0-.27.17.37.37,0,0,0-.06.29l.38,1.91a.41.41,0,0,0,.18.25.45.45,0,0,0,.3.05l1.91-.38A.39.39,0,0,0,169.25,80.17Z"/><path class="cls-10" d="M176.1,76.41l-5.89,1.18a.39.39,0,0,0-.27.18.36.36,0,0,0-.06.3l.4,1.88a.42.42,0,0,0,.5.31l5.86-1.18a.42.42,0,0,0,.34-.48l-.38-1.88A.42.42,0,0,0,176.1,76.41Z"/><rect class="cls-10" x="124.5" y="76.35" width="2.46" height="2.73" rx="0.35" ry="0.35" transform="translate(-12.86 26.32) rotate(-11.37)"/><path class="cls-10" d="M127.56,76.36l.38,1.9a.35.35,0,0,0,.17.25.42.42,0,0,0,.31.06l1.9-.39a.4.4,0,0,0,.33-.46l-.38-1.91a.41.41,0,0,0-.18-.25.45.45,0,0,0-.3,0l-1.91.38A.4.4,0,0,0,127.56,76.36Z"/><path class="cls-10" d="M133.85,77.48a.41.41,0,0,0,.32-.47l-.38-1.91a.35.35,0,0,0-.17-.24.42.42,0,0,0-.31-.06l-1.91.38a.41.41,0,0,0-.32.47l.38,1.91a.35.35,0,0,0,.17.24.42.42,0,0,0,.31.06Z"/><path class="cls-10" d="M134.66,74.65a.37.37,0,0,0-.06.29l.38,1.91a.41.41,0,0,0,.18.25.45.45,0,0,0,.3.05l1.91-.38a.4.4,0,0,0,.32-.47l-.38-1.9a.4.4,0,0,0-.48-.31l-1.9.39A.44.44,0,0,0,134.66,74.65Z"/><path class="cls-10" d="M138.45,73.77a.39.39,0,0,0-.26.17.39.39,0,0,0-.07.29l.39,1.91a.39.39,0,0,0,.17.25.37.37,0,0,0,.31,0l1.9-.38a.4.4,0,0,0,.33-.46l-.39-1.91a.39.39,0,0,0-.47-.3Z"/><path class="cls-10" d="M142.51,75.74l1.91-.39a.4.4,0,0,0,.32-.46L144.36,73a.4.4,0,0,0-.48-.3l-1.91.38a.41.41,0,0,0-.26.17.39.39,0,0,0-.06.3l.38,1.9a.35.35,0,0,0,.17.25A.42.42,0,0,0,142.51,75.74Z"/><path class="cls-10" d="M146,75l1.91-.38a.43.43,0,0,0,.26-.17.4.4,0,0,0,.06-.3l-.38-1.91a.4.4,0,0,0-.48-.3l-1.9.38a.5.5,0,0,0-.27.17.4.4,0,0,0-.06.3l.38,1.91A.41.41,0,0,0,146,75Z"/><path class="cls-10" d="M150.93,71.26l-1.91.39a.39.39,0,0,0-.26.17.38.38,0,0,0-.07.29l.39,1.91a.39.39,0,0,0,.48.3l1.9-.38a.39.39,0,0,0,.26-.17.36.36,0,0,0,.07-.3l-.39-1.9A.39.39,0,0,0,150.93,71.26Z"/><path class="cls-10" d="M154.45,70.56l-1.91.38a.4.4,0,0,0-.32.46l.38,1.91a.4.4,0,0,0,.48.3l1.91-.38a.41.41,0,0,0,.26-.17.38.38,0,0,0,.06-.29l-.38-1.91a.39.39,0,0,0-.17-.25A.37.37,0,0,0,154.45,70.56Z"/><path class="cls-10" d="M155.79,70.68l.39,1.91a.37.37,0,0,0,.17.25.4.4,0,0,0,.3.06l1.91-.39a.4.4,0,0,0,.33-.46l-.39-1.91a.39.39,0,0,0-.17-.25.45.45,0,0,0-.3,0l-1.91.38A.41.41,0,0,0,155.79,70.68Z"/><path class="cls-10" d="M162.08,71.81a.41.41,0,0,0,.33-.47L162,69.43a.36.36,0,0,0-.18-.24.4.4,0,0,0-.3-.06l-1.91.38a.4.4,0,0,0-.32.47l.38,1.91a.35.35,0,0,0,.17.24.42.42,0,0,0,.31.06Z"/><path class="cls-10" d="M163.7,71.48l1.91-.38a.41.41,0,0,0,.32-.47l-.38-1.9a.37.37,0,0,0-.17-.25.42.42,0,0,0-.31-.06l-1.91.39a.4.4,0,0,0-.32.46l.38,1.91a.39.39,0,0,0,.17.25A.47.47,0,0,0,163.7,71.48Z"/><path class="cls-10" d="M166.92,70.72a.45.45,0,0,0,.3,0l1.91-.38a.4.4,0,0,0,.33-.46L169.07,68a.41.41,0,0,0-.48-.31l-1.9.39a.39.39,0,0,0-.26.17.38.38,0,0,0-.07.29l.39,1.91A.39.39,0,0,0,166.92,70.72Z"/><path class="cls-10" d="M174.14,66.6l-4,.8a.4.4,0,0,0-.33.48l.37,1.88a.44.44,0,0,0,.18.26.4.4,0,0,0,.32,0l4-.79a.42.42,0,0,0,.34-.48l-.38-1.88A.42.42,0,0,0,174.14,66.6Z"/><path class="cls-10" d="M162.1,82.55l-2.29.46a.48.48,0,0,0-.39.56l.46,2.29a.46.46,0,0,0,.2.29.54.54,0,0,0,.37.07l2.29-.46a.48.48,0,0,0,.39-.56l-.46-2.29A.48.48,0,0,0,162.1,82.55Z"/><path class="cls-10" d="M166.11,81.74l-2.29.46a.49.49,0,0,0-.31.21.44.44,0,0,0-.08.35l.46,2.29a.47.47,0,0,0,.57.36l2.29-.46a.47.47,0,0,0,.39-.55l-.46-2.29A.48.48,0,0,0,166.11,81.74Z"/><path class="cls-10" d="M170.72,82.86l-2.86.58a.2.2,0,0,0-.13.08.17.17,0,0,0,0,.14l.17.88a.2.2,0,0,0,.23.14l2.87-.57a.22.22,0,0,0,.13-.08.21.21,0,0,0,0-.15L171,83A.2.2,0,0,0,170.72,82.86Z"/><path class="cls-10" d="M124.43,75.89l2.87-.57a.2.2,0,0,0,.15-.23l-.17-.87a.19.19,0,0,0-.23-.14l-2.87.57a.18.18,0,0,0-.15.22l.17.88a.2.2,0,0,0,.08.12A.26.26,0,0,0,124.43,75.89Z"/><path class="cls-10" d="M128.72,75l2.86-.57a.19.19,0,0,0,.16-.23l-.17-.87a.19.19,0,0,0-.23-.14l-2.87.57a.22.22,0,0,0-.13.08.18.18,0,0,0,0,.14l.18.88A.19.19,0,0,0,128.72,75Z"/><path class="cls-10" d="M133,74.15l2.86-.57a.22.22,0,0,0,.13-.08.18.18,0,0,0,0-.14l-.18-.88a.18.18,0,0,0-.23-.14l-2.86.57a.19.19,0,0,0-.16.22l.18.88A.19.19,0,0,0,133,74.15Z"/><path class="cls-10" d="M137.29,73.28l2.87-.57a.19.19,0,0,0,.16-.22l-.18-.88a.2.2,0,0,0-.08-.12.19.19,0,0,0-.15,0L137,72a.2.2,0,0,0-.12.08.17.17,0,0,0,0,.14l.17.88A.19.19,0,0,0,137.29,73.28Z"/><path class="cls-10" d="M141.58,72.41l2.87-.57a.2.2,0,0,0,.12-.08.19.19,0,0,0,0-.14l-.17-.88a.18.18,0,0,0-.23-.14l-2.87.57a.2.2,0,0,0-.12.08.17.17,0,0,0,0,.14l.17.88A.19.19,0,0,0,141.58,72.41Z"/><path class="cls-10" d="M145.87,71.54l2.87-.57a.19.19,0,0,0,.15-.22l-.17-.88a.19.19,0,0,0-.23-.14l-2.87.57a.19.19,0,0,0-.16.22l.18.88A.18.18,0,0,0,145.87,71.54Z"/><path class="cls-10" d="M150.16,70.67,153,70.1a.2.2,0,0,0,.13-.08.19.19,0,0,0,0-.14L153,69a.18.18,0,0,0-.22-.14l-2.87.57a.22.22,0,0,0-.13.08.18.18,0,0,0,0,.14l.18.88A.18.18,0,0,0,150.16,70.67Z"/><path class="cls-10" d="M154.46,69.85l2.86-.57a.2.2,0,0,0,.16-.23l-.18-.87a.2.2,0,0,0-.23-.15l-2.86.58a.19.19,0,0,0-.16.22l.18.88A.19.19,0,0,0,154.46,69.85Z"/><path class="cls-10" d="M158.74,69l2.87-.57a.22.22,0,0,0,.13-.08.21.21,0,0,0,0-.15l-.18-.87a.2.2,0,0,0-.23-.15l-2.86.58a.2.2,0,0,0-.13.08.17.17,0,0,0,0,.14l.17.88A.2.2,0,0,0,158.74,69Z"/><path class="cls-10" d="M163,68.11l2.87-.57a.19.19,0,0,0,.15-.23l-.17-.87a.2.2,0,0,0-.08-.12.21.21,0,0,0-.15,0l-2.87.58a.19.19,0,0,0-.15.22l.17.88A.19.19,0,0,0,163,68.11Z"/><path class="cls-10" d="M167.32,67.24l2.87-.57a.2.2,0,0,0,.12-.08.21.21,0,0,0,0-.15l-.17-.87a.2.2,0,0,0-.23-.15l-2.87.58a.19.19,0,0,0-.16.22l.18.88a.2.2,0,0,0,.08.12A.26.26,0,0,0,167.32,67.24Z"/><path class="cls-10" d="M174,64.65l-2.35.47a.19.19,0,0,0-.16.22l.18.88a.2.2,0,0,0,.23.15l2.35-.48a.19.19,0,0,0,.15-.22l-.17-.87A.19.19,0,0,0,174,64.65Z"/><path class="cls-10" d="M174.22,82.16l-2.87.58a.19.19,0,0,0-.15.22l.17.87a.19.19,0,0,0,.23.15l2.87-.58a.18.18,0,0,0,.15-.22l-.17-.87A.2.2,0,0,0,174.22,82.16Z"/><path class="cls-10" d="M177.36,81.53l-2.51.5a.21.21,0,0,0-.16.23l.18.87a.2.2,0,0,0,.08.12.21.21,0,0,0,.15,0l2.51-.51a.22.22,0,0,0,.13-.08.17.17,0,0,0,0-.14l-.18-.87A.19.19,0,0,0,177.36,81.53Z"/><path class="cls-10" d="M173.82,80.19l-2.86.58a.19.19,0,0,0-.16.22l.18.88a.19.19,0,0,0,.23.14l2.86-.57a.22.22,0,0,0,.13-.08.21.21,0,0,0,0-.15l-.18-.87A.2.2,0,0,0,173.82,80.19Z"/><rect class="cls-11" x="121.72" y="66.41" width="53.67" height="2.2" transform="translate(-10.48 30.97) rotate(-11.5)"/></g><path class="cls-36" d="M169.91,92.73c0,1.48-11.91,2.68-26.59,2.68s-26.6-1.2-26.6-2.68S128.63,90,143.32,90,169.91,91.24,169.91,92.73Z"/></g><g id="_10" data-name="10"><path class="cls-37" d="M108.64,45.82c0,1.43-4,2.6-9,2.6s-9-1.17-9-2.6,4-2.6,9-2.6S108.64,44.38,108.64,45.82Z"/><g id="_3-4" data-name="3"><rect class="cls-14" x="93.96" y="14.97" width="12.5" height="31.47" rx="1.62" ry="1.62"/><path class="cls-6" d="M106.46,42.28v2.54a1.62,1.62,0,0,1-1.62,1.62H95.58A1.61,1.61,0,0,1,94,44.82V42.28Z"/><path class="cls-6" d="M104.93,29.2c0,4.8-2.13,8.68-4.74,8.68S95.44,34,95.44,29.2s2.13-8.67,4.75-8.67S104.93,24.41,104.93,29.2Z"/><path class="cls-5" d="M101.46,29.2c0,1.29-.57,2.33-1.27,2.33s-1.28-1-1.28-2.33.57-2.32,1.28-2.32S101.46,27.92,101.46,29.2Z"/></g></g><g id="_11-2" data-name="11"><path class="cls-38" d="M62,42.54c0,1.32-10.91,2.4-24.36,2.4s-24.35-1.08-24.35-2.4,10.9-2.4,24.35-2.4S62,41.21,62,42.54Z"/><g id="_6-2" data-name="6"><path class="cls-39" d="M61.27,25.64H46.9a3.12,3.12,0,0,0-2.77,1.68,2.76,2.76,0,0,1-2.46,1.45H40.29a2.78,2.78,0,0,1-2.47-1.45,3.11,3.11,0,0,0-2.77-1.68H20.69a3.58,3.58,0,0,0-3.58,3.58v6.25a3.74,3.74,0,0,0,1.7,3.16,6.25,6.25,0,0,0,3.4,1h9.48c1.72,0,3.66-.14,4.75-1.46.52-.63,1.59-2.53,2.47-3.06s.77-.14,1.38-.3h1.38c.61.16.61-.16,1.37.3s2,2.43,2.48,3.06c1.09,1.32,3,1.46,4.75,1.46h9.48a6.28,6.28,0,0,0,3.4-1,3.74,3.74,0,0,0,1.7-3.16V29.22A3.58,3.58,0,0,0,61.27,25.64Z"/><g id="_6-3" data-name="6"><path class="cls-40" d="M63.09,30.49v4.3a2.86,2.86,0,0,1-2.71,3H48.78a2.86,2.86,0,0,1-2.71-3v-4.3a2.87,2.87,0,0,1,2.71-3h11.6A2.87,2.87,0,0,1,63.09,30.49Z"/><path class="cls-41" d="M63.09,31v3.82a2.86,2.86,0,0,1-2.71,3H48.78a2.86,2.86,0,0,1-2.71-3V31a2.87,2.87,0,0,1,2.71-3h11.6A2.87,2.87,0,0,1,63.09,31Z"/></g><path class="cls-40" d="M18.87,30.49v4.3a2.86,2.86,0,0,0,2.7,3H33.18a2.87,2.87,0,0,0,2.71-3v-4.3a2.88,2.88,0,0,0-2.71-3H21.57A2.87,2.87,0,0,0,18.87,30.49Z"/><path class="cls-41" d="M18.87,31v3.82a2.86,2.86,0,0,0,2.7,3H33.18a2.87,2.87,0,0,0,2.71-3V31a2.88,2.88,0,0,0-2.71-3H21.57A2.87,2.87,0,0,0,18.87,31Z"/></g><path class="cls-42" d="M46.19,29.88a.8.8,0,0,1-.79-.65A12.62,12.62,0,0,0,35.07,19.4a12.36,12.36,0,0,0-4.29.06.8.8,0,0,1-1-.64.82.82,0,0,1,.64-.95A14.18,14.18,0,0,1,47,28.9a.81.81,0,0,1-.63,1Z"/><path class="cls-42" d="M19.92,30.52h-.13a.81.81,0,0,1-.67-.93A14.19,14.19,0,0,1,26.9,19.06a.81.81,0,0,1,1.08.37.8.8,0,0,1-.37,1.08,12.58,12.58,0,0,0-6.89,9.33A.82.82,0,0,1,19.92,30.52Z"/><path class="cls-42" d="M27.52,44.73a.8.8,0,0,1-.34-.07,14.24,14.24,0,0,1-6.77-6.59.81.81,0,1,1,1.45-.72,12.62,12.62,0,0,0,6,5.84.81.81,0,0,1-.33,1.54Z"/><path class="cls-42" d="M36.12,45.61A.8.8,0,0,1,35.94,44a12.63,12.63,0,0,0,7.14-4.61.81.81,0,0,1,1.13-.15.82.82,0,0,1,.15,1.14,14.2,14.2,0,0,1-8.06,5.19A.55.55,0,0,1,36.12,45.61Z"/><path class="cls-42" d="M39.67,26.83a.81.81,0,0,1-.61-.28,8,8,0,0,0-3.6-2.34.81.81,0,0,1,.48-1.54,9.46,9.46,0,0,1,4.34,2.82.81.81,0,0,1-.61,1.34Z"/><path class="cls-42" d="M26.62,26.75a.77.77,0,0,1-.54-.2A.8.8,0,0,1,26,25.41a9.48,9.48,0,0,1,6.13-3.12A.8.8,0,0,1,33,23a.82.82,0,0,1-.72.89,7.82,7.82,0,0,0-5.1,2.59A.79.79,0,0,1,26.62,26.75Z"/><path class="cls-42" d="M29.61,40.59a.77.77,0,0,1-.32-.07,9.54,9.54,0,0,1-5.6-10.23.81.81,0,0,1,.93-.67.8.8,0,0,1,.67.92A7.92,7.92,0,0,0,29.94,39a.8.8,0,0,1,.42,1.06A.81.81,0,0,1,29.61,40.59Z"/><path class="cls-42" d="M35.54,41a.81.81,0,0,1-.23-1.58A7.92,7.92,0,0,0,40.83,30a.81.81,0,1,1,1.57-.37,9.39,9.39,0,0,1,.13,3.66,9.57,9.57,0,0,1-6.76,7.67Z"/><path class="cls-42" d="M32.79,36.78h-.06l-.4,0A5,5,0,0,1,28.17,31a4.7,4.7,0,0,1,.18-.74.81.81,0,0,1,1-.52.8.8,0,0,1,.52,1,4.05,4.05,0,0,0-.12.5,3.39,3.39,0,0,0,2.81,3.87l.27,0a.81.81,0,0,1-.06,1.62Z"/><path class="cls-42" d="M36.69,34.77a.78.78,0,0,1-.41-.12A.8.8,0,0,1,36,33.54a3.33,3.33,0,0,0,.45-1.22,2.92,2.92,0,0,0,0-.51A.81.81,0,0,1,37.3,31h0a.82.82,0,0,1,.81.82,6.15,6.15,0,0,1-.07.75,5,5,0,0,1-.65,1.81A.82.82,0,0,1,36.69,34.77Z"/><path class="cls-42" d="M36.35,29.94a.82.82,0,0,1-.63-.29,3.39,3.39,0,0,0-2.08-1.2,3.51,3.51,0,0,0-1.61.14.81.81,0,1,1-.52-1.53A5,5,0,0,1,37,28.62a.8.8,0,0,1-.62,1.32Z"/><path class="cls-5" d="M4.13,27.64h0a1.7,1.7,0,0,0,1.66,1.7l7.42.18.08-3.4-7.42-.18A1.7,1.7,0,0,0,4.13,27.64Z"/><path class="cls-43" d="M26.38,26.44a1.83,1.83,0,0,0-1.78-1.87L13.49,24.3a1.82,1.82,0,0,0-1.86,1.78l0,1.65,14.75.36Z"/><path class="cls-44" d="M11.59,27.73l-.05,1.75a1.83,1.83,0,0,0,1.78,1.87l11.11.27a1.82,1.82,0,0,0,1.86-1.78l.05-1.75Z"/><path class="cls-5" d="M21,28A2,2,0,1,1,19,26,2,2,0,0,1,21,28Z"/></g><g id="_12" data-name="12"><path class="cls-45" d="M246.18,37.4c0,2.67-11.31,4.88-25.3,4.94s-25.32-2-25.33-4.71,11.31-4.87,25.29-4.93S246.16,34.74,246.18,37.4Z"/><g id="_19" data-name="19"><path class="cls-30" d="M238.73,26a1.64,1.64,0,0,0-1.11-2l-25.25-8.4a1.66,1.66,0,0,0-2.12,1l-2.37,7.13,28.48,9.47Z"/><path class="cls-30" d="M209.14,21.21a52.5,52.5,0,0,0-2.54,6.26c-1,3.3-2,6.63-3,9.94a29.28,29.28,0,0,0-1.54,5.77,3.44,3.44,0,0,0,.32,1.85c-.12-.23,1.14-.81,1.29-.86a4.63,4.63,0,0,1,1.43-.21,10.4,10.4,0,0,1,.34-1.66c1.63-5.84,3.42-10.58,4.61-13.91.61-1.67,1.13-2.94,1.48-3.83l.55-1.36Z"/><path class="cls-30" d="M234.5,40.86c.32-1,.64-1.93.95-2.89.37-1.12.61-2.27.92-3.41s.57-2.08.85-3.12l-2.79-.7-.23,0a1.26,1.26,0,0,0-.44.17c-.27.19-.23.57-.38,1-.24.92-.58,2.27-1,4s-1.2,6.37-2.06,7.9L232.92,45s1.23-3,1.33-3.33S234.42,41.13,234.5,40.86Z"/><path class="cls-5" d="M207.88,23.61l-2.52,7.58c-.21.65.33,1.43,1.22,1.72l25.25,8.4a1.54,1.54,0,0,0,2-.65l2.52-7.58Z"/><rect class="cls-46" x="212.78" y="15.69" width="1.64" height="4.64" transform="translate(129.19 215.04) rotate(-71.63)"/><path class="cls-30" d="M237.51,24.6h0l.23-.67a.74.74,0,0,0-.47-.94l-3.73-1.24a.74.74,0,0,0-.94.47l-.23.67h0Z"/><path class="cls-5" d="M238.34,27.1l-.11,0-1.44,4.35.1,0a.7.7,0,0,0,.91-.36l1-3.15A.69.69,0,0,0,238.34,27.1Z"/><path class="cls-5" d="M208.15,22.44l.11,0,1.44-4.35-.1,0a.71.71,0,0,0-.91.37l-1.05,3.15A.69.69,0,0,0,208.15,22.44Z"/><path class="cls-5" d="M230.76,17.81l-7.28-2.42c-.46-.15-1.35.47-2.25,1.57l10.38,3.46C231.56,19,231.22,18,230.76,17.81Z"/><path class="cls-33" d="M231.61,20.42,221.23,17c-.17.22-.34.44-.51.68-1.27,1.86-1.88,3.9-1.1,4.17L230,25.26c.78.26,1.51-1.74,1.61-4C231.63,21,231.62,20.69,231.61,20.42Z"/><path class="cls-26" d="M233.09,34a11.52,11.52,0,1,1-7.3-14.55A11.52,11.52,0,0,1,233.09,34Z"/><path class="cls-30" d="M231.37,33.44a9.71,9.71,0,1,1-6.15-12.28A9.71,9.71,0,0,1,231.37,33.44Z"/><path class="cls-47" d="M229.11,32.68a7.32,7.32,0,1,1-4.64-9.26A7.32,7.32,0,0,1,229.11,32.68Z"/><path class="cls-48" d="M226.84,26.73l-9.53,7a5.92,5.92,0,1,0,9.53-7Z"/><path class="cls-49" d="M224,24.75a5.91,5.91,0,0,0-6.72,9l9.53-7A5.9,5.9,0,0,0,224,24.75Z"/><path class="cls-50" d="M224.35,31.21a2.34,2.34,0,1,1-1.48-3A2.33,2.33,0,0,1,224.35,31.21Z"/><path class="cls-42" d="M212.93,21.05a1,1,0,1,1-.63-1.26A1,1,0,0,1,212.93,21.05Z"/><path class="cls-30" d="M202.08,44.85a4.09,4.09,0,0,0,.81,1.66,5.36,5.36,0,0,0,3.81,1.81c2.45.16,4.54-1,6.65-2a15.87,15.87,0,0,1,13.58-.15,5.07,5.07,0,0,0,3.89.58,3.41,3.41,0,0,0,2.35-2.66,3.38,3.38,0,0,0-2.66-.72,3.24,3.24,0,0,1-1,1.58c-.51.31-1.17-.06-1.69-.21a22,22,0,0,0-4.56-.75,22.83,22.83,0,0,0-5.09.26,27.13,27.13,0,0,0-4.77,1.38,11,11,0,0,1-3.81.83,4.59,4.59,0,0,1-3.5-1.47c-.5-.6-.85-1.41-1.58-1.68a6.9,6.9,0,0,0-1.21-.15,1,1,0,0,1-.93-.67A3.46,3.46,0,0,0,202.08,44.85Z"/></g></g><g id="_13" data-name="13"><path class="cls-51" d="M222.73,87.76c-.29,1.64-8.47,1.6-18.29-.09s-17.54-4.4-17.26-6,8.47-1.6,18.29.09S223,86.11,222.73,87.76Z"/><path class="cls-6" d="M203.35,82A10.76,10.76,0,0,1,199,78.54l-2.47-3.38-1.36,1,2.47,3.38a12.2,12.2,0,0,0,4.19,3.61Z"/><path class="cls-6" d="M228.46,63.71c-.63-3.49-2-4.93-5.3-9.4l-1.37,1c3.25,4.45,4.73,5.91,5.13,9.52Z"/><path class="cls-52" d="M225.1,66.51l-3.22-5.73c-1.71-3,2.45-4.39,4.18-1.3l2.33,4.13C230.1,66.66,226.82,69.56,225.1,66.51Z"/><path class="cls-52" d="M204.82,85.44h0c1.3-.41,1.67-1.88.57-3.19l-4.25-5c-1.1-1.31-2.61-1.19-3.24,0h0a3.34,3.34,0,0,0,.56,3.44l3.06,3.63A3.34,3.34,0,0,0,204.82,85.44Z"/><path class="cls-5" d="M192,72.63l2.79,3.83,2.18-1.6-2.74-3.76c-7.85-15.21,5.88-28.46,18.32-23.1,4,1.71,5.53,3.64,8.88,7.61l2.19-1.6c-1.17-1.86-.79-1.27-1.92-3,0,0-.05-.07,0,.05C209.08,32.15,177.08,50.72,192,72.63Z"/><path class="cls-6" d="M225.69,58.88l3.46,6.26a2.34,2.34,0,0,0,1-3.23L229,59.71A2.33,2.33,0,0,0,225.69,58.88Z"/><path class="cls-6" d="M197.74,79.27l.12-.1,4.6,5.48-.12.1a2.32,2.32,0,0,1-3.27-.28l-1.62-1.93A2.32,2.32,0,0,1,197.74,79.27Z"/></g></g></g></g></g></g></svg>