<svg xmlns="http://www.w3.org/2000/svg" viewBox="0 0 204.84 121.27"><defs><style>.cls-1{isolation:isolate;}.cls-2{fill:#7ebfce;}.cls-3{fill:#b6e7f2;}.cls-4{fill:#2a445d;}.cls-5{fill:#48647c;}.cls-6{fill:#6aafba;}.cls-7{fill:#628096;}.cls-8{fill:#fff;}.cls-14,.cls-9{fill:#bcbec0;}.cls-10,.cls-20,.cls-33,.cls-9{mix-blend-mode:overlay;}.cls-10,.cls-13{fill:#939598;}.cls-11{fill:#58595b;}.cls-12{fill:#7f8c8d;}.cls-15{fill:#e6e7e8;}.cls-16{fill:#c8cacc;}.cls-17{fill:#808285;}.cls-18{fill:#ce1b31;}.cls-19{mix-blend-mode:multiply;}.cls-21{fill:#2c3e50;}.cls-22{fill:#c1c1c1;}.cls-23{fill:#a5a8aa;}.cls-24{fill:#37474f;}.cls-25{fill:#455a64;}.cls-26{fill:#b0b0b0;}.cls-27{fill:#838487;}.cls-28{fill:#707172;}.cls-29{fill:#34495e;}.cls-30{fill:#87ccd8;}.cls-31{fill:#a7d6db;}.cls-32{fill:#ecf0f1;}.cls-33,.cls-37{fill:#a7a9ac;}.cls-34{fill:#bdc3c7;}.cls-35{fill:#17c5cc;}.cls-36{fill:#14b0bf;}</style></defs><title>Ресурс 4</title><g class="cls-1"><g id="Слой_2" data-name="Слой 2"><g id="_1" data-name="1"><g id="_1-2" data-name="1"><g id="_2" data-name="2"><g id="_1-3" data-name="1"><rect class="cls-2" x="0.14" y="59.35" width="52.11" height="2.95"/><rect class="cls-2" x="0.14" y="117.03" width="52.11" height="1.97"/><rect class="cls-3" x="0.14" y="62.3" width="52.11" height="54.73"/><rect class="cls-2" x="17.94" y="63.46" width="12.56" height="6.21"/><polygon class="cls-4" points="29.63 64.28 18.82 64.28 18.82 64.35 29.63 68.82 29.63 64.28"/><polygon class="cls-5" points="18.82 64.35 18.82 68.85 29.63 68.85 29.63 68.82 18.82 64.35"/><path class="cls-2" d="M42.81,64.9a.86.86,0,1,1-1.72,0,.86.86,0,1,1,1.72,0Z"/><path class="cls-2" d="M42.81,68.07a.86.86,0,1,1-.86-.86A.86.86,0,0,1,42.81,68.07Z"/><path class="cls-2" d="M45.77,64.9a.86.86,0,0,1-1.72,0,.86.86,0,1,1,1.72,0Z"/><path class="cls-2" d="M45.77,68.07a.86.86,0,1,1-.86-.86A.86.86,0,0,1,45.77,68.07Z"/><path class="cls-2" d="M48.74,64.9a.86.86,0,1,1-.86-.86A.86.86,0,0,1,48.74,64.9Z"/><path class="cls-2" d="M48.74,68.07a.86.86,0,0,1-1.72,0,.86.86,0,0,1,1.72,0Z"/><path class="cls-2" d="M16.46,61.26l-.65,1L12,68.5A5.2,5.2,0,0,1,7.54,71H.14V69.32H6.67A5.14,5.14,0,0,0,11,66.9l2.86-4.6,1.18-1.91Z"/><path class="cls-2" d="M38.19,66.56a2.62,2.62,0,1,1-2.62-2.62A2.62,2.62,0,0,1,38.19,66.56Z"/><path class="cls-3" d="M37.52,66.49a1.87,1.87,0,1,1-1.87-1.88A1.87,1.87,0,0,1,37.52,66.49Z"/><polygon class="cls-2" points="35.1 64.55 35.57 67.38 36.04 64.55 35.1 64.55"/><path class="cls-4" d="M35.61,63.76c-.18,0-.33-.11-.33-.25v-.67c0-.13.15-.24.33-.24s.33.11.33.24v.67C35.94,63.65,35.79,63.76,35.61,63.76Z"/><path class="cls-4" d="M33.11,65.05a.29.29,0,0,1-.38.16l-.58-.33a.3.3,0,0,1,0-.41.29.29,0,0,1,.38-.16l.58.33A.3.3,0,0,1,33.11,65.05Z"/><path class="cls-4" d="M33,67.86a.3.3,0,0,1,0,.41l-.58.33a.29.29,0,0,1-.38-.16A.3.3,0,0,1,32,68l.58-.33A.29.29,0,0,1,33,67.86Z"/><path class="cls-4" d="M35.34,69.38c.18,0,.33.11.33.25v.67c0,.13-.15.24-.33.24S35,70.43,35,70.3v-.67A.29.29,0,0,1,35.34,69.38Z"/><path class="cls-4" d="M37.84,68.09a.29.29,0,0,1,.38-.16l.58.33a.3.3,0,0,1,.05.41.29.29,0,0,1-.38.16l-.58-.33A.3.3,0,0,1,37.84,68.09Z"/><path class="cls-4" d="M38,65.28a.3.3,0,0,1,.05-.41l.58-.33c.12-.07.28,0,.38.16a.3.3,0,0,1-.06.41l-.58.33C38.24,65.51,38.07,65.44,38,65.28Z"/><rect class="cls-3" x="0.14" y="53.45" width="52.11" height="7.37"/><path class="cls-2" d="M8.2,65.3H3.06a1,1,0,1,0,0,1.91H8.2a1,1,0,0,0,0-1.91Z"/><path class="cls-2" d="M42.81,88A16.62,16.62,0,1,1,26.19,71.34,16.62,16.62,0,0,1,42.81,88Z"/><path class="cls-3" d="M41.05,88A14.86,14.86,0,1,1,26.19,73.1,14.86,14.86,0,0,1,41.05,88Z"/><path class="cls-6" d="M37.41,88a11.18,11.18,0,0,1-2,6.42l-1-.66a10,10,0,1,1-.24-11.85l1-.65A11.19,11.19,0,0,1,37.41,88Z"/><path class="cls-2" d="M36.21,88a10,10,0,1,1-2.07-6.09A9.95,9.95,0,0,1,36.21,88Z"/><path class="cls-7" d="M35,88a8.85,8.85,0,0,1-8.85,8.85h-.14A8.85,8.85,0,0,0,21.8,80.28,8.84,8.84,0,0,1,35,88Z"/><path class="cls-5" d="M30.51,89.13a8.86,8.86,0,0,1-4.46,7.68A8.85,8.85,0,0,1,21.8,80.28,8.85,8.85,0,0,1,30.51,89.13Z"/><rect class="cls-2" x="0.14" y="107.97" width="52.11" height="1.65"/><path class="cls-2" d="M32.42,111V117h1V112H48.24V117h1V111Z"/><path class="cls-8" d="M26.19,74.85c8.32-.77,15.37,6.13,13.89,15.57a12.72,12.72,0,0,1-13.89,10.44C42.07,97.76,41.94,77.92,26.19,74.85Z"/><polygon class="cls-9" points="1.23 54.65 51.26 54.65 51.26 59.35 1.23 54.65"/><path class="cls-10" d="M52.25,53.45H.66l51.59,65.4Z"/><rect class="cls-2" x="38.56" y="112.44" width="4.59" height="0.98"/></g><g id="_2-2" data-name="2"><rect class="cls-11" x="162.39" y="118.16" width="2.61" height="2.08"/><rect class="cls-12" x="161.82" y="120.23" width="3.76" height="1.04"/><rect class="cls-11" x="198.22" y="118.16" width="2.61" height="2.08"/><rect class="cls-12" x="197.65" y="120.23" width="3.76" height="1.04"/><rect class="cls-13" x="161" y="76.25" width="42.09" height="6.23"/><rect class="cls-11" x="161" y="75.87" width="42.09" height="3.11"/><rect class="cls-14" x="159.5" y="81.49" width="45.35" height="37.16"/><rect class="cls-15" x="159.5" y="80.42" width="45.35" height="1.06"/><rect class="cls-15" x="159.31" y="29.89" width="45.35" height="1.2"/><rect class="cls-14" x="159.31" y="31.09" width="45.35" height="47.21"/><rect class="cls-15" x="174.26" y="36.75" width="16.79" height="6.83"/><rect class="cls-16" x="164.07" y="31.09" width="8.38" height="47.21"/><rect class="cls-16" x="164.07" y="81.49" width="8.38" height="37.16"/><path class="cls-13" d="M163.38,54.1a1.52,1.52,0,0,0-1.63,1.38v17a1.52,1.52,0,0,0,1.63,1.38,2.19,2.19,0,0,0,.63-.1V54.2A2.19,2.19,0,0,0,163.38,54.1Z"/><path class="cls-17" d="M164,54.2V73.74a1.41,1.41,0,0,0,1-1.28v-17A1.41,1.41,0,0,0,164,54.2Z"/><path class="cls-13" d="M163.38,84.25a1.52,1.52,0,0,0-1.63,1.38v17a1.52,1.52,0,0,0,1.63,1.39,1.9,1.9,0,0,0,.63-.11V84.36A1.9,1.9,0,0,0,163.38,84.25Z"/><path class="cls-17" d="M164,84.36v19.53a1.41,1.41,0,0,0,1-1.28v-17A1.4,1.4,0,0,0,164,84.36Z"/><polygon class="cls-4" points="175.65 37.5 188.25 42.84 188.37 42.84 188.37 37.5 175.65 37.5"/><polygon class="cls-5" points="175.65 37.5 175.34 37.5 175.34 42.84 188.25 42.84 175.65 37.5"/><rect class="cls-13" x="188.98" y="37.53" width="1.84" height="0.85"/><rect class="cls-13" x="188.98" y="38.95" width="1.84" height="0.85"/><rect class="cls-13" x="188.98" y="40.36" width="1.84" height="0.85"/><rect class="cls-13" x="188.98" y="41.78" width="1.84" height="0.85"/><rect class="cls-16" x="192.15" y="31.09" width="8.38" height="47.21"/><rect class="cls-16" x="192.15" y="81.49" width="8.38" height="37.16"/></g><g id="_3" data-name="3"><rect class="cls-2" x="55.85" y="68.75" width="0.62" height="2.2"/><rect class="cls-2" x="54.04" y="61.76" width="48.99" height="2.77"/><rect class="cls-2" x="54.04" y="115.98" width="48.99" height="1.85"/><rect class="cls-3" x="54.04" y="64.53" width="48.99" height="51.45"/><rect class="cls-2" x="70.78" y="65.62" width="11.81" height="8.05"/><polygon class="cls-4" points="81.77 66.68 71.61 66.68 71.61 66.78 81.77 72.58 81.77 66.68"/><polygon class="cls-5" points="71.61 66.78 71.61 72.62 81.77 72.62 81.77 72.58 71.61 66.78"/><rect class="cls-3" x="54.04" y="59.07" width="48.99" height="4.07"/><rect class="cls-2" x="54.04" y="107.46" width="48.99" height="1.55"/><rect class="cls-2" x="54.04" y="74.47" width="48.99" height="1.55"/><rect class="cls-2" x="63.94" y="65.95" width="3.7" height="1.4"/><rect class="cls-2" x="63.94" y="68.45" width="3.7" height="1.4"/><rect class="cls-2" x="63.94" y="70.94" width="3.7" height="1.4"/><rect class="cls-2" x="84.69" y="66.5" width="3.7" height="1.4"/><rect class="cls-2" x="84.69" y="69" width="3.7" height="1.4"/><rect class="cls-2" x="84.69" y="71.49" width="3.7" height="1.4"/><path class="cls-2" d="M91.83,67.32a.78.78,0,1,1-.78-.77A.78.78,0,0,1,91.83,67.32Z"/><path class="cls-2" d="M91.83,69.48a.78.78,0,1,1-.78-.78A.78.78,0,0,1,91.83,69.48Z"/><path class="cls-18" d="M91.83,71.63a.78.78,0,1,1-.78-.78A.78.78,0,0,1,91.83,71.63Z"/><path class="cls-2" d="M99.4,69.48A2.46,2.46,0,1,1,97,67,2.45,2.45,0,0,1,99.4,69.48Z"/><path class="cls-3" d="M98.74,69.48A1.8,1.8,0,1,1,97,67.68,1.79,1.79,0,0,1,98.74,69.48Z"/><path class="cls-2" d="M63.42,69.85A2.46,2.46,0,1,1,61,67.39,2.45,2.45,0,0,1,63.42,69.85Z"/><path class="cls-3" d="M62.76,69.85A1.8,1.8,0,1,1,61,68.05,1.79,1.79,0,0,1,62.76,69.85Z"/><path class="cls-2" d="M56.16,71.26a1.41,1.41,0,1,1,1.41-1.41A1.41,1.41,0,0,1,56.16,71.26Zm0-2.21a.8.8,0,1,0,.79.8A.79.79,0,0,0,56.16,69.05Z"/><rect class="cls-2" x="99.19" y="67.08" width="2.08" height="0.62"/><rect class="cls-2" x="99.19" y="71.18" width="2.08" height="0.62"/><rect class="cls-2" x="92.85" y="67.12" width="2.08" height="0.62"/><rect class="cls-2" x="92.85" y="71.22" width="2.08" height="0.62"/><g class="cls-19"><rect class="cls-14" x="71.6" y="69" width="10.17" height="0.7"/></g><rect class="cls-2" x="69.79" y="77.92" width="16.74" height="1.95"/><g class="cls-20"><path class="cls-13" d="M56,59.07l2.16,2.69c.36.45.73.91,1.12,1.38l1.11,1.39,3.51,4.33.8,1,.89,1.09,1.13,1.4,1.73,2.13L69.75,76l1.54,1.9c.53.64,1,1.3,1.59,2C80.57,89.33,89,99.61,95.37,107.46L96.63,109l5.69,7,.71.86V59.07Z"/></g><polygon class="cls-9" points="55.06 60.15 102.04 60.15 102.04 62.22 55.06 60.15"/></g><g id="_4" data-name="4"><rect class="cls-21" x="106.47" y="61.47" width="48.09" height="59.3"/><rect class="cls-22" x="106.47" y="107.32" width="48.09" height="9.72"/><rect class="cls-22" x="106.47" y="76.03" width="48.09" height="29.29"/><rect class="cls-22" x="106.47" y="63.96" width="48.09" height="10.22"/><polygon class="cls-23" points="110.64 79.93 150.39 79.93 149.3 81.42 111.68 81.42 110.64 79.93"/><polygon class="cls-24" points="111.61 82.4 111.33 82.4 111.33 101.34 149.7 101.34 149.7 101.12 111.61 82.4"/><polygon class="cls-25" points="149.7 82.4 111.61 82.4 149.7 101.12 149.7 82.4"/><path class="cls-15" d="M109.71,78.88h0a1.46,1.46,0,0,0,1.46,1.46h38.69a1.46,1.46,0,0,0,1.46-1.46h0a1.46,1.46,0,0,0-1.46-1.46H111.17A1.46,1.46,0,0,0,109.71,78.88Z"/><path class="cls-15" d="M128.56,69a2.87,2.87,0,1,1-2.87-2.86A2.88,2.88,0,0,1,128.56,69Z"/><path class="cls-15" d="M118.24,69a2.87,2.87,0,1,1-2.86-2.86A2.87,2.87,0,0,1,118.24,69Z"/><path class="cls-15" d="M136.65,69a2.87,2.87,0,1,1-2.86-2.86A2.87,2.87,0,0,1,136.65,69Z"/><path class="cls-15" d="M144.75,69a2.87,2.87,0,1,1-2.86-2.86A2.87,2.87,0,0,1,144.75,69Z"/><path class="cls-15" d="M152.85,69A2.87,2.87,0,1,1,150,66.13,2.87,2.87,0,0,1,152.85,69Z"/><rect class="cls-21" x="108.18" y="66.72" width="3.18" height="1.68"/><rect class="cls-21" x="108.18" y="69.58" width="3.18" height="1.68"/><rect class="cls-21" x="111" y="59.97" width="14.43" height="1.49"/><rect class="cls-21" x="135.61" y="59.97" width="14.43" height="1.49"/></g><g id="_5" data-name="5"><rect class="cls-22" x="130.69" width="6.14" height="15.86"/><rect class="cls-26" x="124.68" width="6.01" height="15.86"/><polygon class="cls-26" points="124.68 15.86 104.82 31.14 130.69 31.14 130.69 15.86 124.68 15.86"/><polygon class="cls-22" points="156.69 31.14 130.69 31.14 130.69 15.86 136.83 15.86 156.69 31.14"/><rect class="cls-27" x="104.82" y="31.14" width="25.87" height="5.24"/><rect class="cls-13" x="130.69" y="31.14" width="26" height="5.24"/><path class="cls-22" d="M136.83,32.49a1.27,1.27,0,1,0,1.27,1.27A1.27,1.27,0,0,0,136.83,32.49Z"/><path class="cls-22" d="M141.07,32.49a1.27,1.27,0,1,0,1.26,1.27A1.27,1.27,0,0,0,141.07,32.49Z"/><path class="cls-22" d="M145.3,32.49a1.27,1.27,0,1,0,1.27,1.27A1.26,1.26,0,0,0,145.3,32.49Z"/><circle class="cls-18" cx="149.54" cy="33.76" r="1.27"/><rect class="cls-26" x="108.38" y="32.49" width="17.26" height="2.53"/><path class="cls-28" d="M124.61,14a.93.93,0,1,0,0,1.85h6.07V14Z"/><path class="cls-13" d="M136.91,14h-6.23v1.85h6.23a.93.93,0,1,0,0-1.85Z"/><path class="cls-28" d="M104.16,29.78a.73.73,0,0,0-.73.72v.1a.73.73,0,0,0,.73.72h26.52V29.78Z"/><path class="cls-27" d="M157.17,29.78H130.68v1.54h26.49a.72.72,0,0,0,.72-.72v-.1A.72.72,0,0,0,157.17,29.78Z"/></g><g id="_6" data-name="6"><rect class="cls-5" x="2.5" y="35.51" width="48.62" height="3.86"/><path class="cls-3" d="M39.92,7.51H2.55A2.37,2.37,0,0,0,0,9.64V35.17a2.37,2.37,0,0,0,2.55,2.14H44.17V7.51Z"/><path class="cls-3" d="M51.34,7.51H45.07v29.8h6.27a2.34,2.34,0,0,0,2.5-2.14V9.64A2.34,2.34,0,0,0,51.34,7.51Z"/><rect class="cls-8" x="3.94" y="11.96" width="34.07" height="20.9"/><rect class="cls-29" x="4.63" y="12.67" width="32.69" height="19.47"/><polygon class="cls-5" points="10.67 12.67 4.63 18.97 4.63 23.84 15.34 12.67 10.67 12.67"/><polygon class="cls-5" points="24.68 12.67 6 32.14 10.4 32.14 29.08 12.67 24.68 12.67"/><polygon class="cls-5" points="37.32 14.68 20.56 32.14 24.41 32.14 37.32 18.68 37.32 14.68"/><polygon class="cls-5" points="46.66 10.92 46.66 14.44 46.81 14.44 52.1 10.92 46.66 10.92"/><polygon class="cls-29" points="46.81 14.44 52.25 14.44 52.25 10.92 52.1 10.92 46.81 14.44"/><rect class="cls-8" x="46.33" y="15.99" width="2.39" height="1.28"/><rect class="cls-8" x="46.33" y="18.16" width="2.39" height="1.28"/><rect class="cls-8" x="46.33" y="20.34" width="2.39" height="1.28"/><rect class="cls-8" x="46.33" y="22.51" width="2.39" height="1.28"/><rect class="cls-8" x="46.33" y="24.68" width="2.39" height="1.28"/><rect class="cls-8" x="50.19" y="15.99" width="2.39" height="1.28"/><rect class="cls-8" x="50.19" y="18.16" width="2.39" height="1.28"/><rect class="cls-8" x="50.19" y="20.34" width="2.39" height="1.28"/><rect class="cls-8" x="50.19" y="22.51" width="2.39" height="1.28"/><rect class="cls-8" x="50.19" y="24.68" width="2.39" height="1.28"/><path class="cls-30" d="M50.72,27.17H48.46a2,2,0,0,0-2,1.93h6.24A2,2,0,0,0,50.72,27.17Z"/><path class="cls-2" d="M46.47,29.1v.06a2,2,0,0,0,2,2h2.26a2,2,0,0,0,2-2V29.1Z"/><path class="cls-31" d="M43.18,37.27h1.25V13.08l-2.31-2.31-.77.63h-.68V34.81C40.67,34.71,42.08,36.15,43.18,37.27Z"/><rect class="cls-2" x="44.17" y="7.51" width="0.9" height="29.8"/><path class="cls-32" d="M41.35,10.45a1.1,1.1,0,0,0-1.1,1.1V34.08a1.1,1.1,0,1,0,2.19,0V11.55a1.09,1.09,0,0,0-1.09-1.1Z"/><path class="cls-8" d="M41.35,25.32c-.38,0-.68-.18-.68-.41V11.28c0-.23.3-.41.68-.41a.92.92,0,0,1,.48.12.36.36,0,0,1,.19.29V24.91C42,25.14,41.72,25.32,41.35,25.32Z"/><rect class="cls-8" x="46.33" y="32.79" width="6.38" height="1.6"/></g><g id="_7" data-name="7"><path class="cls-5" d="M70.62,6.25V44.53H61.51V14.4a8.11,8.11,0,0,1,1.82-5.14A8.55,8.55,0,0,1,65.17,7.6a7.82,7.82,0,0,1,2.52-1.11,8,8,0,0,1,2-.24Z"/><path class="cls-5" d="M93.59,14.4V44.53H84.48V6.25h1a8.06,8.06,0,0,1,2.79.49,8.47,8.47,0,0,1,1.82.94,8.21,8.21,0,0,1,3.54,6.72Z"/><path class="cls-21" d="M68.54,6.25H87.08a1.59,1.59,0,0,1,1.59,1.59V44.53a0,0,0,0,1,0,0H66.94a0,0,0,0,1,0,0V7.84A1.59,1.59,0,0,1,68.54,6.25Z"/><path class="cls-5" d="M88.83,8.65V8.6a7.89,7.89,0,0,0-5.74-6.45A24.21,24.21,0,0,0,72,2.15,7.87,7.87,0,0,0,66.28,8.6v.05Z"/><rect class="cls-5" x="69.84" y="9.09" width="15.41" height="13.95"/><path class="cls-29" d="M85.26,23.05H69.84l1,3.18a7,7,0,0,0,6.66,4.82h0a7,7,0,0,0,6.66-4.82Z"/><path class="cls-5" d="M95.9,46.21A2.45,2.45,0,0,0,93.46,44H61.64a2.45,2.45,0,0,0-2.44,2.19Z"/><rect class="cls-33" x="74.53" y="9.09" width="6.04" height="13.95"/><rect class="cls-13" x="73.51" y="31.92" width="1.21" height="3.62"/><rect class="cls-13" x="80.38" y="31.92" width="1.21" height="3.62"/><rect class="cls-13" x="73.39" y="23.05" width="2.37" height="0.95"/><path class="cls-34" d="M73.39,24v9.5a.23.23,0,0,0,.23.23h1.9a.23.23,0,0,0,.24-.23V24Z"/><path class="cls-34" d="M79.34,24v9.5a.23.23,0,0,0,.23.23h1.91a.23.23,0,0,0,.23-.23V24Z"/><rect class="cls-13" x="79.34" y="23.05" width="2.37" height="0.95"/><path class="cls-34" d="M82.89,31.67a.8.8,0,0,0-.8-.81H73a.81.81,0,0,0-.81.81v.13H82.89Z"/><path class="cls-13" d="M72.2,31.8v.1a.81.81,0,0,0,.81.81h9.08a.81.81,0,0,0,.8-.81v-.1Z"/><path class="cls-32" d="M84.89,42.18a2.51,2.51,0,0,1-1.67-.63l.34-.38A2,2,0,0,0,86.84,40a1.61,1.61,0,0,0-.72-1.69,1.17,1.17,0,0,0-1,0,.93.93,0,0,0-.55.55l-.49-.16a1.49,1.49,0,0,1,.85-.87,1.7,1.7,0,0,1,1.4.06,2.1,2.1,0,0,1,1,2.23A2.55,2.55,0,0,1,85.7,42,2.51,2.51,0,0,1,84.89,42.18Z"/><path class="cls-32" d="M79.94,44h4.24a6.19,6.19,0,0,0,1.06-3.6V37.14H78.88v3.28A6.19,6.19,0,0,0,79.94,44Z"/><path class="cls-34" d="M79.67,43.61a4.15,4.15,0,0,0,.27.41h4.24a6.19,6.19,0,0,0,1.06-3.6v-3.2C85.17,40.06,82.41,43.08,79.67,43.61Z"/><path class="cls-32" d="M76.11,42.13a2.56,2.56,0,0,1-1.67-.62l.34-.39A2,2,0,0,0,78.06,40a1.61,1.61,0,0,0-.72-1.69,1.17,1.17,0,0,0-1,0,.93.93,0,0,0-.55.55l-.49-.15a1.43,1.43,0,0,1,.85-.87,1.66,1.66,0,0,1,1.4.05,2.11,2.11,0,0,1,1,2.23A2.56,2.56,0,0,1,76.92,42,2.5,2.5,0,0,1,76.11,42.13Z"/><path class="cls-32" d="M71.16,44H75.4a6.17,6.17,0,0,0,1.06-3.6V37.1H70.1v3.27A6.17,6.17,0,0,0,71.16,44Z"/><path class="cls-34" d="M70.89,43.57c.09.14.17.27.27.4H75.4a6.17,6.17,0,0,0,1.06-3.6v-3.2C76.39,40,73.63,43,70.89,43.57Z"/><polygon class="cls-35" points="80.92 3.37 74.37 3.37 80.92 6.21 80.92 3.37"/><polygon class="cls-36" points="74.37 3.37 74.18 3.37 74.18 6.25 80.92 6.25 80.92 6.21 74.37 3.37"/><path class="cls-34" d="M72.35,4.29H70.77a.44.44,0,0,0-.47.41.45.45,0,0,0,.47.42h1.58a.45.45,0,0,0,.47-.42A.45.45,0,0,0,72.35,4.29Z"/><path class="cls-34" d="M72.35,5.68H70.77a.45.45,0,0,0-.47.42.45.45,0,0,0,.47.41h1.58a.45.45,0,0,0,.47-.41A.45.45,0,0,0,72.35,5.68Z"/><path class="cls-34" d="M72.35,7.07H70.77a.45.45,0,0,0-.47.42.44.44,0,0,0,.47.41h1.58a.45.45,0,0,0,.47-.41A.45.45,0,0,0,72.35,7.07Z"/><path class="cls-34" d="M84.33,4.29H82.75a.44.44,0,0,0-.47.41.45.45,0,0,0,.47.42h1.58a.45.45,0,0,0,.47-.42A.44.44,0,0,0,84.33,4.29Z"/><path class="cls-34" d="M84.33,5.68H82.75a.45.45,0,0,0-.47.42.45.45,0,0,0,.47.41h1.58a.45.45,0,0,0,.47-.41A.45.45,0,0,0,84.33,5.68Z"/><path class="cls-34" d="M84.33,7.07H82.75a.45.45,0,0,0-.47.42.44.44,0,0,0,.47.41h1.58a.44.44,0,0,0,.47-.41A.45.45,0,0,0,84.33,7.07Z"/><path class="cls-34" d="M80.46,7.07H74.64a.41.41,0,0,0-.41.42h0a.41.41,0,0,0,.41.41h5.82a.41.41,0,0,0,.41-.41h0A.41.41,0,0,0,80.46,7.07Z"/><g class="cls-20"><path class="cls-37" d="M65.11,7.6V44H63.27V9.26A8.1,8.1,0,0,1,65.11,7.6Z"/><path class="cls-37" d="M91.83,9.43V44H90V7.68A8,8,0,0,1,91.83,9.43Z"/></g><rect class="cls-21" x="59.18" y="46.21" width="36.73" height="2.3"/><circle class="cls-21" cx="77.55" cy="16.06" r="2.28"/><circle class="cls-5" cx="77.55" cy="16.06" r="1.76"/></g></g></g></g></g></g></svg>