<svg xmlns="http://www.w3.org/2000/svg" xmlns:xlink="http://www.w3.org/1999/xlink" viewBox="0 0 299.16 292"><defs><style>.cls-1,.cls-2,.cls-3,.cls-4,.cls-5,.cls-6{fill-rule:evenodd;}.cls-1{fill:url(#New_Gradient_Swatch_8);}.cls-2{fill:url(#New_Gradient_Swatch_1);}.cls-3{fill:url(#New_Gradient_Swatch_1-2);}.cls-4{fill:url(#New_Gradient_Swatch_8-2);}.cls-5{fill:url(#New_Gradient_Swatch_8-3);}.cls-6{fill:url(#New_Gradient_Swatch_8-4);}</style><linearGradient id="New_Gradient_Swatch_8" x1="149.58" y1="340.12" x2="149.58" y2="118.64" gradientUnits="userSpaceOnUse"><stop offset="0" stop-color="#5167ac"/><stop offset="1" stop-color="#b266a5"/></linearGradient><linearGradient id="New_Gradient_Swatch_1" x1="331.35" y1="61.5" x2="69.35" y2="272.5" gradientUnits="userSpaceOnUse"><stop offset="0" stop-color="#655fa4"/><stop offset="1" stop-color="#fff"/></linearGradient><linearGradient id="New_Gradient_Swatch_1-2" x1="268.67" y1="178.97" x2="171.67" y2="296.97" xlink:href="#New_Gradient_Swatch_1"/><linearGradient id="New_Gradient_Swatch_8-2" x1="171.46" y1="292" x2="171.46" y2="56.96" xlink:href="#New_Gradient_Swatch_8"/><linearGradient id="New_Gradient_Swatch_8-3" x1="225.57" y1="285.45" x2="225.57" y2="136.12" xlink:href="#New_Gradient_Swatch_8"/><linearGradient id="New_Gradient_Swatch_8-4" x1="101.05" y1="268.12" x2="101.05" y2="56.62" xlink:href="#New_Gradient_Swatch_8"/></defs><title>Ресурс 1</title><g id="Слой_2" data-name="Слой 2"><g id="OBJECT"><path class="cls-1" d="M37.31,259.09c42.11-53,104.89-105.16,167-133.92-.79-17.18,11.8-29.43,27.56-27.85,14.65,2,27.21,15.85,28.86,31.61,1.15,16.45-9.71,29.79-25.08,29.35a31,31,0,0,1-22-10.42c-54.2,27.58-99.28,86.5-127.16,144.14H147c13-26.2,28.61-50.71,51.5-70.13a31.41,31.41,0,0,1-1.13-9.61c.34-18.24,14.8-33.23,31.73-33.36,15.88-.14,27.54,13.72,26.77,30.61-1.28,16.39-14.18,30.68-29.45,32.2a26.53,26.53,0,0,1-13.2-2.29c-12.41,14.8-19.83,34.1-24,52.58h72.59V136.3h37.29L149.58,0,91,53.39V17.53H55.82V85.44L0,136.3H37.31ZM235.37,136.65c6.71.34,11.65-5.26,11.16-12.54-.57-7-6.25-13.22-12.76-13.84-6.79-.56-12.12,4.82-11.7,12.22s6.37,13.89,13.3,14.16Zm6.93,71c.34-7.39-4.87-13.27-11.78-13.1-7.15.2-13.22,6.61-13.44,14.28s5.26,13.3,12.31,12.81c6.74-.44,12.52-6.73,12.91-14Z"/><path class="cls-2" d="M213.61,147.86a31,31,0,0,0,22,10.42c15.37.44,26.23-12.9,25.08-29.35a37.17,37.17,0,0,0-7.31-18.26,30.54,30.54,0,0,1,4.9,13.52c1,13.74-8.12,24.87-20.92,24.5-9.66-.19-18.41-6.39-22.94-15.19-2.55,1.16-5.09,2.36-7.64,3.62-62.46,31-125.61,96.45-155.9,154.88H86.45c27.88-57.64,73-116.56,127.16-144.14Z"/><path class="cls-3" d="M213.24,239.42a26.53,26.53,0,0,0,13.2,2.29c15.27-1.52,28.17-15.81,29.45-32.2a32.16,32.16,0,0,0-3.24-15.81,27.22,27.22,0,0,1,1.62,10.87c-1.06,14-12.07,26.2-25.12,27.5A22.41,22.41,0,0,1,211,225.24c-2.38,2.34-4.67,4.77-6.91,7.28A182.58,182.58,0,0,0,168.63,292h20.65c4.1-18.48,11.55-37.75,23.91-52.53,0,0,0,0,0-.05Z"/><path class="cls-4" d="M154,278.61c-15.81-48.38,2.6-88.64,58.26-120.11a30.64,30.64,0,0,0,19.86,8.26c12.16.34,21.51-8,24.31-19.64a23.32,23.32,0,0,1-20.8,11.16,31,31,0,0,1-22-10.42c-2.38,1.23-4.77,2.5-7.1,3.83h0c-51,28.93-93.41,85.2-120.06,140.31H147q3.36-6.78,7-13.39Z"/><path class="cls-5" d="M213.19,239.47c-12.36,14.78-19.81,34-23.91,52.53h72.59c-44.72-3.17-56.81-36.35-48.68-52.53Z"/><path class="cls-6" d="M37.31,259.09C63.22,183,98.79,108.85,202.11,47.86L149.58,0,91,53.39V17.53H55.82V85.44L0,136.3H37.31Z"/></g></g></svg>