<svg width="292" height="252" viewBox="0 0 292 252" fill="none" xmlns="http://www.w3.org/2000/svg">
<path d="M285.891 90.2978C281.816 86.2257 276.9 84.1876 271.14 84.1876H271.144V21.6163C271.144 15.966 269.078 11.0783 264.953 6.95023C260.826 2.82214 255.931 0.757812 250.285 0.757812C200.207 42.4719 151.539 63.3303 104.284 63.3303H26.0721C18.9026 63.3303 12.7638 65.882 7.65805 70.9883C2.55173 76.0958 0 82.2346 0 89.4024V120.687C0 127.858 2.54774 133.996 7.65462 139.101C12.7598 144.211 18.8986 146.76 26.0686 146.76H45.9489C44.1025 152.629 42.9069 158.633 42.3647 164.765C41.823 170.904 41.6324 176.252 41.7945 180.817C41.9566 185.379 42.7727 190.864 44.2389 197.274C45.7046 203.682 46.955 208.516 47.9869 211.774C49.0182 215.035 50.7567 220.166 53.2005 227.172C55.6438 234.179 57.2464 238.931 58.0061 241.429C63.0022 245.992 70.1718 249.007 79.514 250.472C88.8591 251.935 98.0102 251.314 106.972 248.598C115.934 245.883 121.991 241.371 125.14 235.074C121.013 231.814 117.673 229.072 115.121 226.844C112.567 224.617 109.961 221.905 107.298 218.699C104.636 215.496 102.819 212.507 101.84 209.738C100.863 206.968 100.537 203.818 100.863 200.285C101.189 196.754 102.439 193.195 104.611 189.613C100.484 185.375 98.3087 180.352 98.093 174.539C97.8772 168.73 99.5609 163.27 103.145 158.164C106.729 153.059 111.673 149.473 117.973 147.41C160.885 150.994 204.988 171.633 250.287 209.33C255.933 209.33 260.828 207.266 264.951 203.137C269.079 199.012 271.142 194.121 271.142 188.473V125.903C276.904 125.903 281.82 123.867 285.893 119.793C289.963 115.718 292.002 110.802 292.002 105.047C292 99.2885 289.961 94.3723 285.891 90.2978ZM250.286 182.608C207.809 150.129 166.098 131.604 125.144 127.044V83.0461C165.77 78.5922 207.487 59.9624 250.286 27.1563V182.608Z" fill="#515151"/>
</svg>
