<svg width="496" height="496" viewBox="0 0 496 496" fill="none" xmlns="http://www.w3.org/2000/svg">
<g clip-path="url(#clip0)">
<path d="M495.622 113.089V263.119C495.622 263.119 463.512 269.445 456.897 270.277C450.303 271.107 429.581 277.798 414.563 263.363C391.403 241.166 309.116 159.333 309.116 159.333C309.116 159.333 294.928 145.411 272.147 157.443C251.235 168.465 220.236 184.618 207.288 190.908C182.811 203.936 162.524 183.266 162.524 167.521C162.524 155.308 170.145 147.019 181.039 140.923C210.563 123.025 272.791 88.0961 298.709 74.3251C314.463 65.9461 325.814 65.2281 347.443 83.4491C374.081 105.852 397.787 126.273 397.787 126.273C397.787 126.273 405.519 132.726 417.85 130.127C448.13 123.725 495.622 113.089 495.622 113.089ZM168.098 367.3C172.083 357.062 170.751 345.611 163.111 337.755C156.246 330.728 146.223 328.876 136.666 331.066C139.339 321.587 137.863 311.498 130.961 304.378C124.075 297.369 114.071 295.48 104.515 297.69C107.168 288.225 105.696 278.137 98.79 271.038C87.976 259.946 69.271 260.422 56.983 272.135C44.76 283.864 36.93 305.114 47.839 317.622C58.73 330.067 71.244 322.495 80.784 320.321C78.13 329.786 70.178 338.59 79.971 350.979C89.755 363.374 103.375 355.854 112.925 353.7C110.262 363.129 102.657 372.817 112.074 384.304C121.576 395.826 137.139 389.687 147.418 386.494C143.451 396.693 134.96 407.687 145.869 420.007C156.761 432.416 181.932 426.675 194.227 414.944C206.489 403.215 207.666 384.626 196.881 373.499C189.435 365.865 178.335 364.089 168.098 367.3ZM392.442 289.246C303.562 200.365 345.367 242.188 297.536 194.254C297.536 194.254 283.161 179.943 264.215 188.256C250.915 194.084 233.792 202.027 220.908 208.091C206.75 215.515 196.561 217.813 191.777 217.781C164.407 217.602 142.201 195.603 142.201 168.26C142.201 150.522 151.618 135.079 165.663 126.313C185.413 112.646 230.873 88.4661 230.873 88.4661C230.873 88.4661 217.024 70.9171 186.686 70.9171C156.357 70.9171 92.991 112.429 92.991 112.429C92.991 112.429 75.015 123.943 49.39 113.572L0 96.3731V268.05C0 268.05 14.103 272.132 26.775 277.308C29.637 269.146 34.255 261.609 40.661 255.384C61.684 235.36 96.53 235.152 115.657 254.847C121.419 260.834 125.44 267.976 127.492 275.871C135.199 278.25 142.18 282.464 147.79 288.244C153.569 294.191 157.575 301.373 159.644 309.228C167.342 311.609 174.313 315.839 179.942 321.623C186.281 328.16 190.504 336.056 192.476 344.611C200.523 346.955 207.795 351.316 213.652 357.304C225.147 369.111 229.227 385.13 226.755 400.582C226.775 400.582 226.813 400.582 226.831 400.617C227.019 400.863 233.953 408.593 238.277 412.953C246.751 421.435 260.588 421.435 269.088 412.953C277.532 404.474 277.569 390.664 269.088 382.142C268.784 381.839 238.516 350.179 240.952 347.724C243.37 345.286 281.933 385.412 282.651 386.146C291.114 394.611 304.942 394.611 313.443 386.146C321.924 377.667 321.906 363.857 313.443 355.355C313.027 354.959 311.291 353.296 310.647 352.634C310.647 352.634 272.413 318.574 275.323 315.664C278.269 312.736 325.761 357.056 325.838 357.056C334.375 364.744 347.525 364.687 355.738 356.47C363.729 348.48 363.9 335.841 356.816 327.324C356.666 326.871 320.622 289.203 323.435 286.369C326.289 283.498 361.954 320.222 362.029 320.298C370.473 328.761 384.32 328.761 392.821 320.298C401.284 311.834 401.284 298.007 392.821 289.468C392.706 289.396 392.555 289.32 392.442 289.246Z" fill="#515151"/>
</g>
<defs>
<clipPath id="clip0">
<rect width="495.622" height="495.622" fill="white"/>
</clipPath>
</defs>
</svg>
