<svg width="17" height="22" viewBox="0 0 17 22" fill="none" xmlns="http://www.w3.org/2000/svg">
<path d="M8.94107 0C4.49796 0 0.882812 3.61515 0.882812 8.05871C0.882812 9.21776 1.12004 10.3244 1.58756 11.3481C3.60235 15.757 7.46526 20.4118 8.60146 21.7332C8.68659 21.832 8.81069 21.8889 8.94129 21.8889C9.07189 21.8889 9.196 21.832 9.28113 21.7332C10.4169 20.412 14.2798 15.7574 16.2952 11.3481C16.763 10.3244 17 9.21776 17 8.05871C16.9996 3.61515 13.3844 0 8.94107 0ZM8.94107 12.2444C6.63305 12.2444 4.75513 10.3665 4.75513 8.05848C4.75513 5.75023 6.63305 3.87232 8.94107 3.87232C11.2491 3.87232 13.127 5.75023 13.127 8.05848C13.1272 10.3665 11.2493 12.2444 8.94107 12.2444Z" fill="#515151"/>
</svg>
