<svg width="457" height="439" viewBox="0 0 457 439" fill="none" xmlns="http://www.w3.org/2000/svg">
<path d="M441.11 243.677C451.578 231.687 456.814 217.508 456.814 201.137C456.814 186.291 451.382 173.445 440.555 162.59C429.706 151.736 416.86 146.312 402.014 146.312H322.932C323.692 143.648 324.454 141.364 325.214 139.461C325.967 137.558 327.025 135.462 328.352 133.178C329.68 130.893 330.635 129.179 331.204 128.039C334.629 121.571 337.251 116.238 339.061 112.054C340.868 107.862 342.667 102.154 344.481 94.9207C346.292 87.6917 347.192 80.4557 347.192 73.2227C347.192 68.6567 347.137 64.9417 347.047 62.0887C346.958 59.2337 346.473 54.9497 345.624 49.2387C344.762 43.5307 343.618 38.7717 342.194 34.9667C340.764 31.1607 338.478 26.8747 335.343 22.1197C332.201 17.3557 328.396 13.5067 323.919 10.5547C319.443 7.60474 313.735 5.13074 306.788 3.13374C299.834 1.13474 291.987 0.135742 283.226 0.135742C278.278 0.135742 273.999 1.94474 270.379 5.56174C266.573 9.36774 263.332 14.1257 260.67 19.8337C258.004 25.5447 256.147 30.4937 255.099 34.6827C254.052 38.8697 252.861 44.6767 251.534 52.0977C249.815 60.0957 248.536 65.8497 247.674 69.3707C246.819 72.8917 245.149 77.5067 242.677 83.2157C240.2 88.9287 237.253 93.4937 233.826 96.9217C227.546 103.202 217.935 114.623 204.989 131.181C195.66 143.361 186.049 154.876 176.152 165.726C166.253 176.578 159.021 182.192 154.454 182.573C149.699 182.953 145.606 184.904 142.179 188.427C138.752 191.948 137.039 196.089 137.039 200.846V383.856C137.039 388.805 138.846 393.038 142.463 396.559C146.078 400.084 150.361 401.939 155.31 402.13C161.971 402.321 177.008 406.504 200.421 414.696C215.075 419.637 226.541 423.402 234.821 425.968C243.099 428.534 254.67 431.296 269.505 434.25C284.354 437.199 298.056 438.678 310.615 438.678H315.47H337.17H347.446C372.767 438.298 391.507 430.872 403.693 416.41C414.729 403.275 419.39 386.049 417.683 364.731C425.105 357.689 430.248 348.747 433.099 337.895C436.33 326.291 436.33 315.155 433.099 304.498C441.853 292.887 445.946 279.849 445.371 265.383C445.395 259.286 443.971 252.055 441.11 243.677Z" fill="#515151"/>
<path d="M100.5 182.863H18.276C13.324 182.863 9.041 184.672 5.425 188.289C1.809 191.904 0 196.187 0 201.136V383.868C0 388.81 1.809 393.095 5.426 396.715C9.045 400.326 13.328 402.136 18.277 402.136H100.5C105.448 402.136 109.729 400.326 113.347 396.715C116.963 393.095 118.771 388.811 118.771 383.868V201.136C118.771 196.187 116.962 191.905 113.347 188.289C109.73 184.671 105.449 182.863 100.5 182.863ZM67.665 360.307C64.049 363.828 59.767 365.588 54.818 365.588C49.678 365.588 45.347 363.828 41.828 360.307C38.307 356.786 36.547 352.457 36.547 347.317C36.547 342.369 38.306 338.085 41.828 334.47C45.348 330.853 49.678 329.042 54.818 329.042C59.767 329.042 64.049 330.853 67.665 334.47C71.282 338.084 73.091 342.368 73.091 347.317C73.091 352.457 71.286 356.785 67.665 360.307Z" fill="#515151"/>
</svg>
