<svg width="81" height="68" viewBox="0 0 81 68" fill="none" xmlns="http://www.w3.org/2000/svg">
<path d="M48.355 11.9217C52.06 14.2447 54.658 18.1757 55.131 22.7387C56.642 23.4447 58.319 23.8507 60.097 23.8507C66.588 23.8507 71.849 18.5897 71.849 12.0997C71.849 5.60866 66.588 0.347656 60.097 0.347656C53.668 0.349656 48.453 5.51666 48.355 11.9217ZM40.656 35.9837C47.147 35.9837 52.408 30.7217 52.408 24.2317C52.408 17.7417 47.146 12.4807 40.656 12.4807C34.166 12.4807 28.902 17.7427 28.902 24.2327C28.902 30.7227 34.166 35.9837 40.656 35.9837ZM45.641 36.7847H35.669C27.372 36.7847 20.622 43.5357 20.622 51.8327V64.0277L20.653 64.2187L21.493 64.4817C29.411 66.9557 36.29 67.7807 41.952 67.7807C53.011 67.7807 59.421 64.6277 59.816 64.4267L60.601 64.0297H60.685V51.8327C60.688 43.5357 53.938 36.7847 45.641 36.7847ZM65.084 24.6527H55.189C55.082 28.6117 53.392 32.1767 50.719 34.7407C58.094 36.9337 63.49 43.7727 63.49 51.8507V55.6087C73.26 55.2507 78.89 52.4817 79.261 52.2957L80.046 51.8977H80.13V39.6987C80.13 31.4027 73.38 24.6527 65.084 24.6527ZM20.035 23.8527C22.334 23.8527 24.473 23.1817 26.285 22.0387C26.861 18.2817 28.875 14.9987 31.752 12.7627C31.764 12.5427 31.785 12.3247 31.785 12.1027C31.785 5.61166 26.523 0.350656 20.035 0.350656C13.543 0.350656 8.283 5.61166 8.283 12.1027C8.283 18.5907 13.543 23.8527 20.035 23.8527ZM30.589 34.7407C27.929 32.1897 26.245 28.6437 26.122 24.7087C25.755 24.6817 25.392 24.6527 25.018 24.6527H15.047C6.75 24.6527 0 31.4027 0 39.6987V51.8957L0.031 52.0837L0.871 52.3487C7.223 54.3317 12.892 55.2457 17.816 55.5337V51.8507C17.818 43.7727 23.212 36.9357 30.589 34.7407Z" fill="#515151"/>
</svg>
