<svg width="247" height="279" viewBox="0 0 247 279" fill="none" xmlns="http://www.w3.org/2000/svg">
<path d="M246.421 270.339L230.466 72.896C230.151 69.001 226.898 66 222.99 66H180.157V56.505C180.157 25.348 155.143 0 123.985 0H122.995C91.8382 0 66.1572 25.348 66.1572 56.505V66H23.9902C20.0822 66 16.8292 69.001 16.5142 72.896L0.514215 270.896C0.345215 272.984 1.05721 275.046 2.47721 276.585C3.89721 278.124 5.89721 279 7.99021 279H238.99C238.996 279 239.004 279 239.01 279C243.153 279 246.51 275.643 246.51 271.5C246.51 271.105 246.48 270.717 246.421 270.339ZM81.1572 56.505C81.1572 33.619 100.109 15 122.995 15H123.985C146.871 15 165.157 33.619 165.157 56.505V66H81.1572V56.505V56.505Z" fill="#86A1BF"/>
</svg>
