<svg width="308" height="308" viewBox="0 0 308 308" fill="none" xmlns="http://www.w3.org/2000/svg">
<g clip-path="url(#clip0)">
<path d="M284.909 66.1462H203.564L187.138 38.5512C185.531 35.8532 182.624 34.2002 179.484 34.2002H127.822C124.682 34.2002 121.774 35.8532 120.168 38.5512L103.742 66.1462H77.049V60.0642C77.049 55.1452 73.061 51.1572 68.142 51.1572H35.185C30.265 51.1572 26.278 55.1452 26.278 60.0642V66.1462H22.398C10.027 66.1462 0 76.1742 0 88.5432V250.709C0 263.079 10.027 273.107 22.397 273.107H284.909C297.279 273.107 307.307 263.079 307.307 250.709V88.5432C307.308 76.1742 297.279 66.1462 284.909 66.1462ZM153.653 233.379C118.443 233.379 89.9 204.836 89.9 169.625C89.9 134.416 118.443 105.872 153.653 105.872C188.863 105.872 217.406 134.416 217.406 169.625C217.406 204.836 188.863 233.379 153.653 233.379ZM270.935 112.322H243.025C238.106 112.322 234.118 108.334 234.118 103.414C234.118 98.4942 238.106 94.5062 243.025 94.5062H270.935C275.856 94.5062 279.843 98.4942 279.843 103.414C279.843 108.334 275.855 112.322 270.935 112.322Z" fill="#86A1BF"/>
<path d="M153.653 214.163C178.251 214.163 198.191 194.223 198.191 169.625C198.191 145.027 178.251 125.087 153.653 125.087C129.055 125.087 109.115 145.027 109.115 169.625C109.115 194.223 129.055 214.163 153.653 214.163Z" fill="#86A1BF"/>
</g>
<defs>
<clipPath id="clip0">
<rect width="307.308" height="307.308" fill="white"/>
</clipPath>
</defs>
</svg>
