<svg width="297" height="297" viewBox="0 0 297 297" fill="none" xmlns="http://www.w3.org/2000/svg">
<g clip-path="url(#clip0)">
<path d="M206.093 181.516C223.472 181.516 237.608 167.378 237.608 150.001V54.5932C237.608 37.2152 223.472 23.0752 206.093 23.0752H31.51C14.135 23.0752 0 37.2152 0 54.5932V150.001C0 167.378 14.135 181.516 31.51 181.516H54.443V214.504C54.443 218.516 56.859 222.131 60.564 223.666C61.792 224.173 63.08 224.419 64.356 224.419C66.936 224.419 69.473 223.412 71.37 221.515L111.361 181.516H206.093V181.516Z" fill="#86A1BF"/>
<path d="M269.415 105.583H253.471V150.001C253.471 176.126 232.218 197.379 206.093 197.379H117.932L99.395 215.921C101.629 228.908 112.962 238.823 126.576 238.823H203.338L235.529 271.019C237.425 272.916 239.963 273.924 242.543 273.924C243.819 273.924 245.107 273.675 246.335 273.168C250.04 271.633 252.455 268.019 252.455 264.008V238.822H269.416C284.627 238.822 297.001 226.444 297.001 211.231V133.17C297 117.959 284.626 105.583 269.415 105.583Z" fill="#86A1BF"/>
</g>
<defs>
<clipPath id="clip0">
<rect width="297" height="297" fill="white"/>
</clipPath>
</defs>
</svg>
