<svg width="317" height="279" viewBox="0 0 317 279" fill="none" xmlns="http://www.w3.org/2000/svg">
<path d="M233.274 0.337891H84.053C37.8887 0.337891 0.333369 37.894 0.333369 84.0591L0.339322 135.47C-0.369158 155.158 -2.47673 254.514 25.8386 276.763C27.4283 278.014 29.381 278.662 31.3517 278.662C32.2685 278.662 33.1913 278.526 34.0844 278.24C36.9064 277.341 39.0973 275.084 39.9308 272.238C44.2174 257.568 60.5065 219.512 84.059 219.512H233.274C279.439 219.512 316.994 181.956 316.994 135.791V84.0651C317 37.888 279.433 0.337891 233.274 0.337891ZM299.139 135.785C299.139 172.103 269.597 201.645 233.28 201.645H84.053C55.6305 201.645 37.8768 230.795 29.1846 250.251C19.7302 225.228 16.8725 172.728 18.1882 135.779V84.0591C18.1882 47.7414 47.7301 18.1991 84.0471 18.1991H233.262C269.579 18.1991 299.121 47.7414 299.121 84.0591V135.785H299.139V135.785Z" fill="#C4C4C4"/>
</svg>
