<svg width="486" height="549" viewBox="0 0 486 549" fill="none" xmlns="http://www.w3.org/2000/svg">
<path d="M455.201 196.121H442.035V132.596C442.035 132.197 441.973 131.801 441.92 131.396C441.899 128.874 441.095 126.396 439.368 124.436L333.657 3.675C333.624 3.644 333.593 3.633 333.572 3.602C332.942 2.898 332.208 2.31 331.429 1.806C331.2 1.649 330.968 1.52 330.727 1.387C330.055 1.022 329.34 0.715 328.606 0.494C328.406 0.442 328.227 0.36 328.029 0.306C327.23 0.118 326.401 0 325.562 0H65.7569C53.8939 0 44.2559 9.649 44.2559 21.502V196.115H31.0919C14.1209 196.115 0.359863 209.871 0.359863 226.845V386.655C0.359863 403.621 14.1209 417.391 31.0919 417.391H44.2559V526.79C44.2559 538.644 53.8939 548.291 65.7569 548.291H420.533C432.386 548.291 442.034 538.644 442.034 526.79V417.392H455.2C472.166 417.392 485.929 403.628 485.929 386.661V226.851C485.93 209.877 472.167 196.121 455.201 196.121ZM65.7569 21.507H314.811V131.513C314.811 137.453 319.628 142.264 325.562 142.264H420.534V196.125H65.7569V21.507ZM336.547 335.847C344.39 335.847 353.094 334.146 358.213 332.088L362.129 352.389C357.361 354.765 346.62 357.338 332.636 357.338C292.888 357.338 272.432 332.608 272.432 299.866C272.432 260.64 300.401 238.811 335.194 238.811C348.659 238.811 358.899 241.548 363.504 243.93L358.219 264.57C352.932 262.344 345.604 260.307 336.387 260.307C315.746 260.307 299.724 272.751 299.724 298.334C299.718 321.337 313.362 335.847 336.547 335.847ZM260.647 296.97C260.647 334.655 237.793 357.507 204.203 357.507C170.09 357.507 150.137 331.748 150.137 299.012C150.137 264.565 172.132 238.806 206.077 238.806C241.39 238.806 260.647 265.248 260.647 296.97ZM36.7199 355.124V242.221C46.2719 240.689 58.7189 239.846 71.8499 239.846C93.6799 239.846 107.831 243.762 118.905 252.122C130.85 260.985 138.36 275.143 138.36 295.433C138.36 317.427 130.343 332.614 119.255 341.989C107.144 352.047 88.7269 356.83 66.2099 356.83C52.7489 356.825 43.1979 355.968 36.7199 355.124ZM420.534 520.968H65.7569V417.392H420.533V520.968H420.534ZM440.245 355.627L429.836 334.823C425.573 326.811 422.844 320.833 419.605 314.187H419.263C416.875 320.843 413.983 326.811 410.402 334.823L400.85 355.627H371.175L404.429 297.469L372.375 240.683H402.224L412.282 261.667C415.695 268.646 418.245 274.281 420.976 280.759H421.311C424.04 273.427 426.266 268.313 429.154 261.667L438.875 240.683H468.558L436.152 296.786L470.257 355.627H440.245V355.627Z" fill="#86A1BF"/>
<path d="M110.729 296.277C110.894 272.408 96.9146 259.783 74.5786 259.783C68.7716 259.783 65.0266 260.297 62.8066 260.81V336.01C65.0326 336.519 68.6126 336.519 71.8536 336.519C95.3876 336.698 110.729 323.743 110.729 296.277Z" fill="#86A1BF"/>
<path d="M177.604 298.493C177.604 321.008 188.179 336.865 205.573 336.865C223.14 336.865 233.19 320.162 233.19 297.82C233.19 277.179 223.305 259.443 205.389 259.443C187.827 259.448 177.604 276.162 177.604 298.493Z" fill="#86A1BF"/>
</svg>
