<svg width="265" height="466" viewBox="0 0 265 466" fill="none" xmlns="http://www.w3.org/2000/svg">
<path d="M260.08 384.767C251.255 413.766 227.901 437.467 190.687 455.23C178.268 461.744 160.376 465.349 140.345 465.349C94.046 465.349 51.61 447.203 26.831 416.803C2.16002 386.54 -5.12299 345.797 5.18601 295.703C19.387 239.101 63.419 189.75 105.991 142.012C105.991 142.012 195.238 64.454 206.084 0C210.996 26.879 219.318 72.655 168.344 134.508C84.858 229.944 98.488 281.701 104.65 295.296C110.345 307.832 120.966 315.339 133.066 315.351H133.072C135.862 315.351 138.702 314.95 141.515 314.169C171.01 302.383 166.795 274.177 161.913 241.525C157.692 213.304 152.917 181.318 170.301 155.145L171.684 153.049V155.568C171.636 193.397 186.685 208.221 204.11 225.385C213.65 234.798 222.404 245.213 231.849 258.914C264.175 305.811 270.506 350.508 260.08 384.767Z" fill="#EF5553"/>
</svg>
