<svg width="337" height="337" viewBox="0 0 337 337" fill="none" xmlns="http://www.w3.org/2000/svg">
<g clip-path="url(#clip0)">
<path d="M306.867 96.3632C262.355 23.2332 195.302 74.1106 195.302 74.1106C190.953 77.3973 182.935 80.0995 177.486 80.1121L159.526 80.1246C154.077 80.1309 146.059 77.4287 141.716 74.142C141.716 74.142 74.6569 23.252 30.1391 96.382C-14.366 169.487 3.56927 249.102 3.56927 249.102C6.7114 268.596 17.0679 281.604 36.6119 279.971C56.0994 278.343 98.3988 227.472 98.3988 227.472C101.893 223.28 109.214 219.855 114.65 219.855L222.325 219.836C227.767 219.836 235.082 223.261 238.569 227.453C238.569 227.453 280.875 278.324 300.394 279.952C319.913 281.586 330.294 268.565 333.418 249.083C333.411 249.083 351.378 169.481 306.867 96.3632ZM128.035 155.888H104.947V178.14C104.947 178.14 100.058 181.873 92.4916 181.779C84.9379 181.666 81.5193 177.707 81.5193 177.707V155.894H59.7129C59.7129 155.894 56.9918 153.104 56.2628 145.758C55.5464 138.411 59.273 132.473 59.273 132.473H82.3677V109.384C82.3677 109.384 87.1186 106.839 93.9496 107.034C100.787 107.248 105.795 109.818 105.795 109.818L105.701 132.466H127.508C127.508 132.466 131.316 137.355 131.63 143.263C131.944 149.176 128.035 155.888 128.035 155.888ZM233.938 181.251C223.826 181.251 215.676 173.075 215.676 162.976C215.676 152.859 223.826 144.702 233.938 144.702C244.005 144.702 252.219 152.859 252.219 162.976C252.219 173.081 244.005 181.251 233.938 181.251ZM233.938 130.971C223.826 130.971 215.676 122.801 215.676 112.702C215.676 102.585 223.826 94.4276 233.938 94.4276C244.005 94.4276 252.219 102.585 252.219 112.702C252.219 122.807 244.005 130.971 233.938 130.971ZM279.448 157.962C269.337 157.962 261.186 149.792 261.186 139.687C261.186 129.576 269.337 121.412 279.448 121.412C289.516 121.412 297.729 129.576 297.729 139.687C297.729 149.792 289.516 157.962 279.448 157.962Z" fill="#86A1BF"/>
</g>
<defs>
<clipPath id="clip0">
<rect width="337" height="337" fill="white"/>
</clipPath>
</defs>
</svg>
