<svg width="337" height="225" viewBox="0 0 337 225" fill="none" xmlns="http://www.w3.org/2000/svg">
<path d="M306.867 40.3632C262.355 -32.7668 195.302 18.1106 195.302 18.1106C190.953 21.3973 182.935 24.0995 177.486 24.1121L159.526 24.1246C154.077 24.1309 146.059 21.4287 141.716 18.142C141.716 18.142 74.6569 -32.748 30.1391 40.382C-14.366 113.487 3.56927 193.102 3.56927 193.102C6.7114 212.596 17.0679 225.604 36.6119 223.971C56.0994 222.343 98.3988 171.472 98.3988 171.472C101.893 167.28 109.214 163.855 114.65 163.855L222.325 163.836C227.767 163.836 235.082 167.261 238.569 171.453C238.569 171.453 280.875 222.324 300.394 223.952C319.913 225.586 330.294 212.565 333.418 193.083C333.411 193.083 351.378 113.481 306.867 40.3632ZM128.035 99.8877H104.947V122.14C104.947 122.14 100.058 125.873 92.4916 125.779C84.9379 125.666 81.5193 121.707 81.5193 121.707V99.894H59.7129C59.7129 99.894 56.9918 97.1038 56.2628 89.7575C55.5464 82.4112 59.273 76.4726 59.273 76.4726H82.3677V53.3842C82.3677 53.3842 87.1186 50.839 93.9496 51.0339C100.787 51.2475 105.795 53.8178 105.795 53.8178L105.701 76.4663H127.508C127.508 76.4663 131.316 81.3554 131.63 87.2627C131.944 93.1762 128.035 99.8877 128.035 99.8877ZM233.938 125.251C223.826 125.251 215.676 117.075 215.676 106.976C215.676 96.8587 223.826 88.7017 233.938 88.7017C244.005 88.7017 252.219 96.8587 252.219 106.976C252.219 117.081 244.005 125.251 233.938 125.251ZM233.938 74.9706C223.826 74.9706 215.676 66.8011 215.676 56.7023C215.676 46.5846 223.826 38.4276 233.938 38.4276C244.005 38.4276 252.219 46.5846 252.219 56.7023C252.219 66.8074 244.005 74.9706 233.938 74.9706ZM279.448 101.962C269.337 101.962 261.186 93.792 261.186 83.6869C261.186 73.5755 269.337 65.4123 279.448 65.4123C289.516 65.4123 297.729 73.5755 297.729 83.6869C297.729 93.792 289.516 101.962 279.448 101.962Z" fill="#86A1BF"/>
</svg>
