<svg width="411" height="411" viewBox="0 0 411 411" fill="none" xmlns="http://www.w3.org/2000/svg">
<path d="M248.021 91.9236C267.024 103.839 280.35 124.001 282.776 147.406C290.526 151.027 299.128 153.109 308.247 153.109C341.541 153.109 368.525 126.125 368.525 92.8365C368.525 59.5431 341.541 32.5586 308.247 32.5586C275.272 32.5689 248.523 59.0713 248.021 91.9236ZM208.531 215.342C241.825 215.342 268.809 188.352 268.809 155.064C268.809 121.775 241.82 94.7908 208.531 94.7908C175.243 94.7908 148.243 121.78 148.243 155.069C148.243 188.357 175.243 215.342 208.531 215.342ZM234.1 219.45H182.952C140.396 219.45 105.774 254.077 105.774 296.634V359.184L105.933 360.164L110.241 361.512C150.854 374.202 186.137 378.434 215.179 378.434C271.902 378.434 304.78 362.261 306.806 361.23L310.833 359.194H311.263V296.634C311.279 254.077 276.657 219.45 234.1 219.45ZM333.827 157.223H283.073C282.525 177.529 273.856 195.815 260.146 208.966C297.974 220.214 325.651 255.293 325.651 296.726V316.001C375.763 314.165 404.64 299.963 406.543 299.008L410.569 296.967H411V234.396C411 191.845 376.378 157.223 333.827 157.223ZM102.763 153.12C114.555 153.12 125.526 149.678 134.82 143.815C137.775 124.545 148.105 107.706 162.861 96.2372C162.923 95.1088 163.031 93.9906 163.031 92.8519C163.031 59.5585 136.041 32.574 102.763 32.574C69.4643 32.574 42.4849 59.5585 42.4849 92.8519C42.4849 126.13 69.4643 153.12 102.763 153.12ZM156.896 208.966C143.252 195.881 134.615 177.693 133.984 157.51C132.102 157.372 130.24 157.223 128.321 157.223H77.1785C34.6219 157.223 0 191.845 0 234.396V296.957L0.159004 297.921L4.4675 299.28C37.048 309.451 66.1252 314.14 91.3812 315.617V296.726C91.3915 255.293 119.058 220.224 156.896 208.966Z" fill="#86A1BF"/>
</svg>
