<svg width="512" height="440" viewBox="0 0 512 440" fill="none" xmlns="http://www.w3.org/2000/svg">
<path d="M475.366 35.9489C451.191 12.3429 417.791 0.544922 375.151 0.544922C363.351 0.544922 351.308 2.59092 339.034 6.68092C326.755 10.7739 315.332 16.2959 304.778 23.2429C294.21 30.1879 285.128 36.7099 277.509 42.7989C269.899 48.8899 262.664 55.3629 255.813 62.2129C248.959 55.3629 241.726 48.8899 234.115 42.7989C226.499 36.7099 217.413 30.1919 206.847 23.2429C196.283 16.2929 184.862 10.7749 172.586 6.68092C160.311 2.59192 148.27 0.544922 136.47 0.544922C93.833 0.544922 60.431 12.3459 36.259 35.9489C12.087 59.5499 0 92.2859 0 134.16C0 146.913 2.24 160.051 6.711 173.558C11.182 187.072 16.277 198.589 21.986 208.104C27.694 217.618 34.167 226.896 41.4 235.938C48.633 244.979 53.919 251.21 57.246 254.636C60.576 258.062 63.194 260.539 65.097 262.063L243.25 433.938C246.677 437.364 250.864 439.082 255.812 439.082C260.76 439.082 264.95 437.364 268.375 433.938L446.245 262.628C489.833 219.048 511.625 176.222 511.625 134.156C511.626 92.2789 499.54 59.5459 475.366 35.9489ZM421.405 235.795L255.813 395.391L89.938 235.507C54.344 199.922 36.55 166.133 36.55 134.156C36.55 118.741 38.596 105.13 42.686 93.3319C46.779 81.5319 52.013 72.1549 58.389 65.2079C64.766 58.2589 72.521 52.6009 81.657 48.2199C90.798 43.8429 99.743 40.8919 108.497 39.3699C117.251 37.8499 126.576 37.0889 136.475 37.0889C146.371 37.0889 157.032 39.5129 168.452 44.3679C179.87 49.2209 190.386 55.3119 199.997 62.6389C209.61 69.9709 217.842 76.8219 224.697 83.1959C231.548 89.5759 237.256 95.4249 241.825 100.755C245.249 104.944 249.916 107.038 255.814 107.038C261.714 107.038 266.376 104.944 269.804 100.755C274.372 95.4249 280.084 89.5729 286.935 83.1959C293.787 76.8219 302.02 69.9739 311.629 62.6389C321.242 55.3119 331.758 49.2209 343.182 44.3679C354.598 39.5139 365.262 37.0889 375.159 37.0889C385.056 37.0889 394.378 37.8499 403.136 39.3699C411.893 40.8909 420.838 43.8429 429.976 48.2199C439.113 52.5999 446.868 58.2619 453.243 65.2079C459.619 72.1549 464.855 81.5319 468.948 93.3319C473.034 105.13 475.08 118.741 475.08 134.156C475.078 166.133 457.19 200.016 421.405 235.795Z" fill="#C4C4C4"/>
</svg>
