<svg width="222" height="222" viewBox="0 0 222 222" fill="none" xmlns="http://www.w3.org/2000/svg">
<g clip-path="url(#clip0)">
<path d="M218.278 103.775L118.384 7.49733C116.286 5.47533 113.495 4.36133 110.528 4.36133C107.559 4.36133 104.768 5.47433 102.671 7.49733L2.77594 103.775C-0.570056 106.999 -0.179056 109.771 0.350944 111.087C0.881944 112.402 2.46594 114.692 7.11194 114.692H18.3599V200.262C18.3599 209.168 26.0359 216.692 34.7279 216.692H85.3599V158.692H134.36V216.692H186.325C195.045 216.692 202.36 209.014 202.36 200.262V114.692H213.941C218.587 114.692 220.17 112.402 220.702 111.087C221.232 109.771 221.624 107 218.278 103.775Z" fill="#86A1BF"/>
</g>
<defs>
<clipPath id="clip0">
<rect width="221.053" height="221.053" fill="white"/>
</clipPath>
</defs>
</svg>
