<svg width="440" height="490" viewBox="0 0 440 490" fill="none" xmlns="http://www.w3.org/2000/svg">
<path d="M135 75.459V360.779C120.726 350.405 102.427 344.163 82.5 344.163C37.009 344.163 0 376.686 0 416.663C0 456.64 37.009 489.163 82.5 489.163C127.991 489.163 165 456.64 165 416.663V168.942L410 108.327V292.743C395.726 282.369 377.427 276.127 357.5 276.127C312.009 276.127 275 308.65 275 348.627C275 388.604 312.009 421.127 357.5 421.127C402.991 421.127 440 388.604 440 348.627V0L135 75.459Z" fill="#1E3C5F"/>
</svg>
