<svg width="249" height="249" viewBox="0 0 249 249" fill="none" xmlns="http://www.w3.org/2000/svg">
<g clip-path="url(#clip0)">
<path d="M241.07 42.7671H214.361V17.7451C214.361 13.6031 211.003 10.2451 206.861 10.2451H7.5C3.358 10.2451 0 13.6031 0 17.7451V213.72C0 227.287 11.038 238.325 24.605 238.325H223.964C237.531 238.325 248.569 227.287 248.569 213.72V50.2671C248.57 46.1251 245.212 42.7671 241.07 42.7671ZM15 25.2451H199.361V50.2661V213.72C199.361 217.126 200.057 220.373 201.314 223.325H24.605C19.309 223.325 15 219.016 15 213.72V25.2451ZM223.965 223.325C218.67 223.325 214.361 219.016 214.361 213.72V57.7671H233.57V213.72C233.57 219.016 229.261 223.325 223.965 223.325Z" fill="#86A1BF"/>
<path d="M32.4221 107.085H181.942C186.084 107.085 189.442 103.727 189.442 99.5849V49.4609C189.442 45.3189 186.084 41.9609 181.942 41.9609H32.4221C28.2801 41.9609 24.9221 45.3189 24.9221 49.4609V99.5849C24.9221 103.727 28.2801 107.085 32.4221 107.085ZM39.9221 56.9609H174.442V92.0849H39.9221V56.9609Z" fill="#86A1BF"/>
<path d="M32.4221 205.672H97.7301C101.872 205.672 105.23 202.314 105.23 198.172V132.859C105.23 128.717 101.872 125.359 97.7301 125.359H32.4221C28.2801 125.359 24.9221 128.717 24.9221 132.859V198.172C24.9221 202.314 28.2801 205.672 32.4221 205.672ZM39.9221 140.358H90.2301V190.671H39.9221V140.358Z" fill="#86A1BF"/>
<path d="M181.941 125.358H118.781C114.639 125.358 111.281 128.716 111.281 132.858C111.281 137 114.639 140.358 118.781 140.358H181.941C186.083 140.358 189.441 137 189.441 132.858C189.441 128.716 186.083 125.358 181.941 125.358Z" fill="#86A1BF"/>
<path d="M181.941 190.672H118.781C114.639 190.672 111.281 194.03 111.281 198.172C111.281 202.314 114.639 205.672 118.781 205.672H181.941C186.083 205.672 189.441 202.314 189.441 198.172C189.441 194.03 186.083 190.672 181.941 190.672Z" fill="#86A1BF"/>
<path d="M181.941 158.011H118.781C114.639 158.011 111.281 161.369 111.281 165.511C111.281 169.653 114.639 173.011 118.781 173.011H181.941C186.083 173.011 189.441 169.653 189.441 165.511C189.441 161.369 186.083 158.011 181.941 158.011Z" fill="#86A1BF"/>
</g>
<defs>
<clipPath id="clip0">
<rect width="248.57" height="248.57" fill="white"/>
</clipPath>
</defs>
</svg>
