<svg width="517" height="283" viewBox="0 0 517 283" fill="none" xmlns="http://www.w3.org/2000/svg">
<path d="M404.676 29.2196H226.598C202.874 11.1236 173.248 0.351563 141.103 0.351563C63.166 0.346563 0 63.5176 0 141.457C0 219.385 63.166 282.565 141.11 282.565C173.255 282.565 202.874 271.796 226.598 253.695H404.676C466.575 253.695 516.917 203.352 516.917 141.462C516.917 79.5726 466.566 29.2196 404.676 29.2196ZM141.104 219.123C98.272 219.123 63.435 184.283 63.435 141.457C63.435 98.6286 98.279 63.7886 141.104 63.7886C183.932 63.7886 218.771 98.6236 218.771 141.457C218.771 184.288 183.936 219.123 141.104 219.123ZM404.676 204.891H267.137C276.762 185.82 282.201 164.283 282.201 141.457C282.201 118.632 276.751 97.0956 267.137 78.0216H404.676C439.653 78.0216 468.113 106.479 468.113 141.457C468.113 176.43 439.653 204.891 404.676 204.891Z" fill="#C4C4C4"/>
<path d="M141.104 219.123C98.272 219.123 63.435 184.283 63.435 141.457C63.435 98.6286 98.279 63.7886 141.104 63.7886C183.932 63.7886 218.771 98.6236 218.771 141.457C218.771 184.288 183.936 219.123 141.104 219.123Z" fill="#C4C4C4"/>
</svg>
