<svg width="517" height="282" viewBox="0 0 517 282" fill="none" xmlns="http://www.w3.org/2000/svg">
<path d="M112.154 253.157H290.087C313.795 271.234 343.397 282 375.515 282C453.398 282 516.518 218.886 516.518 141.003C516.518 63.1278 453.398 0 375.515 0C343.397 0 313.8 10.7611 290.098 28.8458H112.154C50.306 28.8557 0 79.1643 0 141.002C0 202.842 50.306 253.157 112.154 253.157ZM375.515 63.3981C418.317 63.3981 453.125 98.2171 453.125 141.002C453.125 183.804 418.312 218.612 375.515 218.612C332.724 218.612 297.911 183.804 297.911 141.002C297.911 98.2117 332.719 63.3981 375.515 63.3981ZM112.154 77.6199H249.581C239.966 96.678 234.525 118.205 234.525 141.002C234.525 163.813 239.971 185.335 249.581 204.395H112.154C77.1987 204.395 48.7606 175.952 48.7606 141.002C48.7615 106.054 77.1996 77.6199 112.154 77.6199Z" fill="#C4C4C4"/>
<path d="M112.154 77.6199H249.581C239.966 96.678 234.525 118.205 234.525 141.002C234.525 163.813 239.971 185.335 249.581 204.395H112.154C77.1987 204.395 48.7606 175.952 48.7606 141.002C48.7615 106.054 77.1996 77.6199 112.154 77.6199Z" fill="#C4C4C4"/>
</svg>
