<svg width="482" height="482" viewBox="0 0 482 482" fill="none" xmlns="http://www.w3.org/2000/svg">
<g clip-path="url(#clip0)">
<path d="M384.759 213.6C380.059 209.9 338.559 164.2 315.059 142.9C314.959 142.8 314.959 142.8 314.959 142.7V44.3C314.959 19.9 295.059 0 270.659 0H125.559C102.859 0 84.3589 18.6 84.3589 41.2V272C84.3589 296.4 104.259 316.3 128.659 316.3H170.859H181.559C183.359 316.3 184.859 314.7 184.659 312.9L182.359 293.3C182.159 291.7 180.859 290.6 179.259 290.6H175.359H172.959C171.259 290.6 169.859 289.2 169.859 287.5V25.3C169.859 23.6 171.259 22.2 172.959 22.2H270.959C280.859 22.2 288.959 30.3 288.959 40.2V254.4V275.5C288.959 282.3 284.259 288.1 277.959 289.9C277.859 289.9 277.859 289.9 277.759 289.9C267.059 284.1 254.459 259.3 252.559 255.4C252.359 255.1 252.259 254.7 252.259 254.4C251.559 248.1 244.459 187.1 211.959 187.1C211.059 187.1 210.159 187.1 209.259 187.2C209.259 187.2 183.259 189.4 204.759 263.5C204.759 263.7 204.859 263.8 204.859 264L214.359 346.1C214.359 346.2 214.359 346.3 214.459 346.5C215.259 349.6 226.059 391.5 253.959 421.2C254.459 421.8 254.759 422.5 254.759 423.3V430.4C254.759 430.6 254.659 430.7 254.459 430.7H251.959C245.859 430.7 240.859 435.7 240.859 441.8V470.7C240.859 476.8 245.859 481.8 251.959 481.8H369.659C375.759 481.8 380.759 476.8 380.759 470.7V442C380.759 435.9 375.759 430.9 369.659 430.9C369.459 430.9 369.359 430.8 369.359 430.6C373.259 394.4 387.259 270.6 394.759 260.9C394.959 260.6 395.159 260.3 395.259 259.9C396.559 255.4 403.059 227.9 384.759 213.6ZM130.659 287.7C130.659 289.3 129.359 290.5 127.859 290.5C118.059 290.5 110.059 282.5 110.059 272.7V40C110.059 30.2 118.059 22.2 127.859 22.2C129.459 22.2 130.659 23.5 130.659 25V287.7Z" fill="#86A1BF"/>
</g>
<defs>
<clipPath id="clip0">
<rect width="481.8" height="481.8" fill="white"/>
</clipPath>
</defs>
</svg>
