<svg width="992" height="992" viewBox="0 0 992 992" fill="none" xmlns="http://www.w3.org/2000/svg">
<path d="M901.007 405.009H587.024V90.9577C587.027 40.799 546.208 0 495.998 0C445.788 0 404.973 40.799 404.973 90.9577V405.009H91.0251C40.8344 405.009 0 445.843 0 495.998C0 546.138 40.8183 586.956 91.0251 586.956H404.973V901.007C404.973 951.182 445.772 991.997 495.998 991.997C546.208 991.997 587.024 951.178 587.024 901.007V586.956H901.007C951.182 586.956 991.997 546.138 991.997 495.998C992 445.843 951.182 405.009 901.007 405.009Z" fill="#86A1BF"/>
</svg>
