<svg width="117" height="117" viewBox="0 0 117 117" fill="none" xmlns="http://www.w3.org/2000/svg">
<path d="M114.982 108.176L87.143 80.3367C94.0438 71.9234 98.2031 61.1469 98.2031 49.4014C98.2031 22.46 76.3428 0.599609 49.4014 0.599609C22.4363 0.599609 0.599609 22.46 0.599609 49.4014C0.599609 76.3428 22.4363 98.2031 49.4014 98.2031C61.1469 98.2031 71.8998 94.0674 80.3131 87.1666L108.153 114.982C110.043 116.873 113.092 116.873 114.982 114.982C116.873 113.115 116.873 110.043 114.982 108.176ZM49.4014 88.49C27.8246 88.49 10.2891 70.9545 10.2891 49.4014C10.2891 27.8482 27.8246 10.2891 49.4014 10.2891C70.9545 10.2891 88.5137 27.8482 88.5137 49.4014C88.5137 70.9545 70.9545 88.49 49.4014 88.49Z" fill="#86A1BF"/>
</svg>
