<svg width="512" height="458" viewBox="0 0 512 458" fill="none" xmlns="http://www.w3.org/2000/svg">
<path d="M506.206 152.012L360.025 5.8342C356.408 2.2172 352.127 0.408203 347.178 0.408203C342.229 0.408203 337.945 2.2172 334.331 5.8342C330.714 9.4532 328.903 13.7362 328.903 18.6842V91.7732H264.95C129.234 91.7732 45.966 130.127 15.127 206.833C5.042 232.335 0 264.03 0 301.907C0 333.501 12.087 376.421 36.259 430.669C36.829 432.004 37.825 434.283 39.255 437.518C40.684 440.751 41.967 443.606 43.109 446.083C44.255 448.554 45.493 450.648 46.824 452.359C49.106 455.596 51.772 457.218 54.818 457.218C57.673 457.218 59.91 456.267 61.529 454.364C63.144 452.462 63.953 450.08 63.953 447.232C63.953 445.514 63.715 442.996 63.238 439.663C62.762 436.33 62.523 434.099 62.523 432.955C61.57 420.017 61.094 408.302 61.094 397.841C61.094 378.618 62.762 361.392 66.09 346.166C69.423 330.937 74.038 317.759 79.94 306.623C85.841 295.483 93.452 285.878 102.781 277.788C112.106 269.698 122.145 263.086 132.899 257.946C143.655 252.805 156.312 248.76 170.873 245.811C185.433 242.861 200.088 240.814 214.841 239.671C229.594 238.528 246.296 237.96 264.95 237.96H328.903V311.051C328.903 315.999 330.71 320.283 334.324 323.898C337.944 327.511 342.225 329.322 347.171 329.322C352.119 329.322 356.403 327.511 360.025 323.898L506.203 177.715C509.82 174.098 511.627 169.817 511.627 164.868C511.626 159.92 509.82 155.636 506.206 152.012Z" fill="#C4C4C4"/>
</svg>
