<svg width="203" height="203" viewBox="0 0 203 203" fill="none" xmlns="http://www.w3.org/2000/svg">
<path d="M94.4627 8.97309C95.7896 6.29293 98.5223 4.59375 101.509 4.59375C104.496 4.59375 107.233 6.29293 108.555 8.97309L133.829 60.1895C134.972 62.5062 137.188 64.1134 139.749 64.4856L196.269 72.6969C199.234 73.1261 201.686 75.2019 202.611 78.0441C203.535 80.8862 202.764 84.0131 200.622 86.0977L159.728 125.967C157.876 127.771 157.03 130.373 157.464 132.922L167.116 189.218C167.615 192.17 166.411 195.148 163.985 196.908C161.563 198.66 158.362 198.892 155.708 197.508L105.153 170.926C102.867 169.721 100.13 169.721 97.8392 170.926L47.284 197.504C44.6389 198.892 41.4289 198.664 39.0071 196.908C36.5853 195.152 35.3766 192.17 35.8802 189.218L45.5323 132.922C45.9702 130.373 45.1206 127.771 43.2682 125.967L2.37389 86.0977C0.23239 84.0087 -0.538374 80.8862 0.385667 78.0441C1.30971 75.2019 3.76652 73.1261 6.73133 72.6969L63.2599 64.4856C65.8174 64.1134 68.0334 62.5062 69.1764 60.1851L94.4627 8.97309Z" fill="#86A1BF"/>
</svg>
