<?xml version="1.0" encoding="iso-8859-1"?>
<!-- Generator: Adobe Illustrator 16.0.0, SVG Export Plug-In . SVG Version: 6.00 Build 0)  -->
<!DOCTYPE svg PUBLIC "-//W3C//DTD SVG 1.1//EN" "http://www.w3.org/Graphics/SVG/1.1/DTD/svg11.dtd">
<svg version="1.1" id="Capa_1" xmlns="http://www.w3.org/2000/svg" xmlns:xlink="http://www.w3.org/1999/xlink" x="0px" y="0px"
	 width="516.917px" height="516.917px" viewBox="0 0 516.917 516.917" style="enable-background:new 0 0 516.917 516.917;"
	 xml:space="preserve">
<g>
	<path d="M404.676,146.22H226.598c-23.724-18.096-53.35-28.868-85.495-28.868C63.166,117.347,0,180.518,0,258.457
		c0,77.928,63.166,141.108,141.11,141.108c32.145,0,61.764-10.769,85.488-28.87h178.078c61.899,0,112.241-50.343,112.241-112.233
		C516.917,196.573,466.566,146.22,404.676,146.22z M141.104,336.123c-42.832,0-77.669-34.84-77.669-77.666
		c0-42.828,34.844-77.668,77.669-77.668c42.828,0,77.667,34.835,77.667,77.668C218.771,301.288,183.936,336.123,141.104,336.123z
		 M404.676,321.891H267.137c9.625-19.071,15.064-40.608,15.064-63.434c0-22.825-5.45-44.361-15.064-63.435h137.539
		c34.977,0,63.437,28.457,63.437,63.435C468.113,293.43,439.653,321.891,404.676,321.891z"/>
</g>
<g>
</g>
<g>
</g>
<g>
</g>
<g>
</g>
<g>
</g>
<g>
</g>
<g>
</g>
<g>
</g>
<g>
</g>
<g>
</g>
<g>
</g>
<g>
</g>
<g>
</g>
<g>
</g>
<g>
</g>
</svg>
