<svg width="407" height="407" viewBox="0 0 407 407" fill="none" xmlns="http://www.w3.org/2000/svg">
<g clip-path="url(#clip0)">
<path d="M36.01 406.819H370.826C385.084 406.819 396.748 395.163 396.748 380.913V25.906C396.748 11.689 385.075 0 370.826 0H36.01C21.72 0 10.071 11.689 10.071 25.906V380.913C10.071 395.163 21.72 406.819 36.01 406.819ZM333.515 31.693C333.515 27.393 337.035 23.922 341.294 23.922H365.598C369.89 23.922 373.361 27.393 373.361 31.693V56.721C373.361 61.021 369.89 64.492 365.598 64.492H341.294C337.035 64.492 333.515 61.029 333.515 56.721V31.693ZM333.515 95.364C333.515 91.064 337.035 87.585 341.294 87.585H365.598C369.89 87.585 373.361 91.064 373.361 95.364V120.392C373.361 124.684 369.89 128.187 365.598 128.187H341.294C337.035 128.187 333.515 124.684 333.515 120.392V95.364ZM333.515 159.084C333.515 154.792 337.035 151.289 341.294 151.289H365.598C369.89 151.289 373.361 154.792 373.361 159.084V184.12C373.361 188.379 369.89 191.883 365.598 191.883H341.294C337.035 191.883 333.515 188.38 333.515 184.12V159.084ZM333.515 222.755C333.515 218.455 337.035 214.96 341.294 214.96H365.598C369.89 214.96 373.361 218.455 373.361 222.755V247.791C373.361 252.083 369.89 255.562 365.598 255.562H341.294C337.035 255.562 333.515 252.083 333.515 247.791V222.755ZM333.515 286.427C333.515 282.127 337.035 278.656 341.294 278.656H365.598C369.89 278.656 373.361 282.119 373.361 286.427V311.479C373.361 315.755 369.89 319.234 365.598 319.234H341.294C337.035 319.234 333.515 315.755 333.515 311.479V286.427ZM333.515 350.098C333.515 345.822 337.035 342.327 341.294 342.327H365.598C369.89 342.327 373.361 345.822 373.361 350.098V375.175C373.361 379.418 369.89 382.93 365.598 382.93H341.294C337.035 382.93 333.515 379.427 333.515 375.175V350.098ZM99.981 50.478C99.981 46.178 103.484 42.707 107.776 42.707H299.074C303.342 42.707 306.837 46.178 306.837 50.478V174.423C306.837 178.682 303.342 182.218 299.074 182.218H107.777C103.485 182.218 99.982 178.682 99.982 174.423C99.981 174.423 99.981 50.478 99.981 50.478ZM99.981 241.598C99.981 237.33 103.484 233.851 107.776 233.851H299.074C303.342 233.851 306.837 237.33 306.837 241.598V356.17C306.837 360.446 303.342 363.941 299.074 363.941H107.777C103.485 363.941 99.982 360.446 99.982 356.17C99.981 356.17 99.981 241.598 99.981 241.598ZM33.457 31.693C33.457 27.393 36.952 23.922 41.236 23.922H65.549C69.817 23.922 73.304 27.393 73.304 31.693V56.721C73.304 61.021 69.817 64.492 65.549 64.492H41.236C36.952 64.492 33.457 61.029 33.457 56.721C33.457 56.721 33.457 31.693 33.457 31.693ZM33.457 95.364C33.457 91.064 36.952 87.585 41.236 87.585H65.549C69.817 87.585 73.304 91.064 73.304 95.364V120.392C73.304 124.684 69.817 128.187 65.549 128.187H41.236C36.952 128.187 33.457 124.684 33.457 120.392C33.457 120.392 33.457 95.364 33.457 95.364ZM33.457 159.084C33.457 154.792 36.952 151.289 41.236 151.289H65.549C69.817 151.289 73.304 154.792 73.304 159.084V184.12C73.304 188.379 69.817 191.883 65.549 191.883H41.236C36.952 191.883 33.457 188.38 33.457 184.12C33.457 184.12 33.457 159.084 33.457 159.084ZM33.457 222.755C33.457 218.455 36.952 214.96 41.236 214.96H65.549C69.817 214.96 73.304 218.455 73.304 222.755V247.791C73.304 252.083 69.817 255.562 65.549 255.562H41.236C36.952 255.562 33.457 252.083 33.457 247.791C33.457 247.791 33.457 222.755 33.457 222.755ZM33.457 286.427C33.457 282.127 36.952 278.656 41.236 278.656H65.549C69.817 278.656 73.304 282.119 73.304 286.427V311.479C73.304 315.755 69.817 319.234 65.549 319.234H41.236C36.952 319.234 33.457 315.755 33.457 311.479C33.457 311.479 33.457 286.427 33.457 286.427ZM33.457 350.098C33.457 345.822 36.952 342.327 41.236 342.327H65.549C69.817 342.327 73.304 345.822 73.304 350.098V375.175C73.304 379.418 69.817 382.93 65.549 382.93H41.236C36.952 382.93 33.457 379.427 33.457 375.175C33.457 375.174 33.457 350.098 33.457 350.098Z" fill="#86A1BF"/>
</g>
<defs>
<clipPath id="clip0">
<rect width="406.819" height="406.819" fill="white"/>
</clipPath>
</defs>
</svg>
