<svg width="266" height="151" viewBox="0 0 266 151" fill="none" xmlns="http://www.w3.org/2000/svg">
<path d="M254.981 122.312C247.061 112.783 237.741 104.651 228.923 96.0158C220.967 88.232 220.465 83.7166 226.861 74.7327C233.841 64.9276 241.347 55.4986 248.39 45.7378C254.965 36.6156 261.685 27.5184 265.145 16.5962C267.339 9.64748 265.399 6.5782 258.295 5.36155C257.071 5.14864 255.805 5.13758 254.559 5.13758L212.413 5.08781C207.222 5.01039 204.353 7.28055 202.517 11.8955C200.039 18.1336 197.483 24.3662 194.531 30.3858C187.832 44.0344 180.351 57.2268 169.862 68.3979C167.549 70.8616 164.991 73.9751 161.126 72.6921C156.291 70.9224 154.865 62.9312 154.945 60.2297L154.904 11.4337C153.967 4.46289 152.426 1.35491 145.526 0L101.745 0.00829606C95.9007 0.00829606 92.9704 2.27292 89.8499 5.93946C88.0498 8.05754 87.5067 9.4318 91.2061 10.1341C98.4726 11.5167 102.566 16.234 103.652 23.5422C105.395 35.2193 105.273 46.9433 104.27 58.6674C103.975 62.0906 103.388 65.5056 102.034 68.702C99.9171 73.7262 96.4989 74.7493 92.0083 71.6579C87.9423 68.8596 85.0864 64.9111 82.2911 60.9459C71.7911 46.064 63.4136 30.0153 56.5827 13.1509C54.6089 8.27875 51.2044 5.32561 46.0578 5.24542C33.413 5.04357 20.7655 5.01038 8.12081 5.25648C0.51247 5.40027 -1.75625 9.10552 1.34222 16.0238C15.1144 46.7525 30.4441 76.6268 50.4546 103.841C60.7287 117.808 72.5243 130.137 87.7631 138.875C105.033 148.78 123.624 151.761 143.205 150.843C152.373 150.411 155.127 148.019 155.552 138.853C155.838 132.582 156.547 126.346 159.632 120.711C162.658 115.181 167.243 114.127 172.527 117.567C175.171 119.29 177.398 121.483 179.501 123.794C184.662 129.457 189.638 135.291 194.994 140.764C201.712 147.621 209.67 151.672 219.677 150.845L258.413 150.854C264.654 150.444 267.891 142.768 264.307 135.781C261.79 130.887 258.488 126.529 254.981 122.312Z" fill="white"/>
</svg>
